STARTFONT 2.1
COMMENT
COMMENT Converted from OpenType font "truongsa_regular.ttf" by "otf2bdf 3.0".
COMMENT
FONT -FreeType-VPS Truong Sa Light Hoa-Medium-R-Normal--89-640-100-100-P-445-ISO10646-1
SIZE 64 100 100
FONTBOUNDINGBOX 84 122 -2 -21
STARTPROPERTIES 19
FOUNDRY "FreeType"
FAMILY_NAME "VPS Truong Sa Light Hoa"
WEIGHT_NAME "Medium"
SLANT "R"
SETWIDTH_NAME "Normal"
ADD_STYLE_NAME ""
PIXEL_SIZE 89
POINT_SIZE 640
RESOLUTION_X 100
RESOLUTION_Y 100
SPACING "P"
AVERAGE_WIDTH 445
CHARSET_REGISTRY "ISO10646"
CHARSET_ENCODING "1"
FONT_ASCENT 86
FONT_DESCENT 20
COPYRIGHT "VPS Font"
_OTF_FONTFILE "truongsa_regular.ttf"
_OTF_PSNAME "VPS Truong Sa Light Hoa"
ENDPROPERTIES
CHARS 270
STARTCHAR 0002
ENCODING 2
SWIDTH 652 0
DWIDTH 58 0
BBX 60 80 -1 -14
BITMAP
0000000400000000
0000000E00000000
0000001F00000000
0000001F80000000
0000003FC0000000
0000003FC0000000
0000007FE0000000
000000FFF0000000
000000FFF0000000
000001FFF8000000
000001FFF8000000
000003FFFC000000
000003F3FC000000
000007F3FE000000
000007E1FE000000
00000FE1FF000000
00000FC0FF000000
00000FC0FF800000
00001F807F800000
00001F807FC00000
00003F003FC00000
00003F003FC00000
00007E003FE00000
00007E001FE00000
00007E001FF00000
0000FC000FF00000
0000FC000FF80000
0001F80007F80000
0001F80007F80000
0001F80007FC0000
0003F00003FC0000
0003F00003FE0000
0007E00001FE0000
0007E00001FE0000
0007E00001FF0000
000FC00000FF0000
000FC00000FF0000
001F800000FF8000
001F8000007F8000
001FFFFFFFFFC000
003FFFFFFFFFC000
003FFFFFFFFFC000
003FFFFFFFFFE000
007FFFFFFFFFE000
007E0000001FE000
00FE0000001FF000
00FC0000000FF000
00FC0000000FF000
01FC0000000FF800
01F800000007F800
01F800000007F800
03F800000003FC00
03F000000003FC00
03F000000003FC00
07F000000003FC00
07F000000001FE00
07F000000001FE00
0FE000000001FE00
0FE000000001FF00
1FF000000001FF00
1FF000000001FF80
3FFC00000007FFC0
7FFE0000000FFFE0
FFFF0000001FFFF0
FFFF0000001FFFF0
7FFE0000000FFFE0
0000000000000000
0000000000000000
0000000000000000
0000000000000000
0000003800000000
000000FE00000000
000001FF00000000
000001FF00000000
000001FF00000000
000001FF00000000
000001FF00000000
000001FF00000000
000000FE00000000
0000003800000000
ENDCHAR
STARTCHAR 0003
ENCODING 3
SWIDTH 652 0
DWIDTH 58 0
BBX 60 100 -1 -14
BITMAP
0000000F80000000
0000001FC0000000
0000003FC0000000
0000003FE0000000
0000007FF0000000
000000FFF0000000
000000FFF8000000
000001F8FC000000
000003F07C000000
000003E03E000000
000007C01F000000
00000F800F000000
00000F0007800000
00001E0003C00000
0000380001C00000
0000300000E00000
0000000000000000
0000000000000000
0000000000000000
0000000000000000
0000000400000000
0000000E00000000
0000001F00000000
0000001F80000000
0000003FC0000000
0000003FC0000000
0000007FE0000000
000000FFF0000000
000000FFF0000000
000001FFF8000000
000001FFF8000000
000003FFFC000000
000003F3FC000000
000007F3FE000000
000007E1FE000000
00000FE1FF000000
00000FC0FF000000
00000FC0FF800000
00001F807F800000
00001F807FC00000
00003F003FC00000
00003F003FC00000
00007E003FE00000
00007E001FE00000
00007E001FF00000
0000FC000FF00000
0000FC000FF80000
0001F80007F80000
0001F80007F80000
0001F80007FC0000
0003F00003FC0000
0003F00003FE0000
0007E00001FE0000
0007E00001FE0000
0007E00001FF0000
000FC00000FF0000
000FC00000FF0000
001F800000FF8000
001F8000007F8000
001FFFFFFFFFC000
003FFFFFFFFFC000
003FFFFFFFFFC000
003FFFFFFFFFE000
007FFFFFFFFFE000
007E0000001FE000
00FE0000001FF000
00FC0000000FF000
00FC0000000FF000
01FC0000000FF800
01F800000007F800
01F800000007F800
03F800000003FC00
03F000000003FC00
03F000000003FC00
07F000000003FC00
07F000000001FE00
07F000000001FE00
0FE000000001FE00
0FE000000001FF00
1FF000000001FF00
1FF000000001FF80
3FFC00000007FFC0
7FFE0000000FFFE0
FFFF0000001FFFF0
FFFF0000001FFFF0
7FFE0000000FFFE0
0000000000000000
0000000000000000
0000000000000000
0000000000000000
0000003800000000
000000FE00000000
000001FF00000000
000001FF00000000
000001FF00000000
000001FF00000000
000001FF00000000
000001FF00000000
000000FE00000000
0000003800000000
ENDCHAR
STARTCHAR 0004
ENCODING 4
SWIDTH 652 0
DWIDTH 58 0
BBX 60 95 -1 -14
BITMAP
0000300003000000
0000300003000000
0000380007000000
00003C000E000000
00001E001E000000
00001FFFFE000000
00000FFFFC000000
000007FFF8000000
000003FFF0000000
000000FFC0000000
0000000E00000000
0000000000000000
0000000000000000
0000000000000000
0000000000000000
0000000400000000
0000000E00000000
0000001F00000000
0000001F80000000
0000003FC0000000
0000003FC0000000
0000007FE0000000
000000FFF0000000
000000FFF0000000
000001FFF8000000
000001FFF8000000
000003FFFC000000
000003F3FC000000
000007F3FE000000
000007E1FE000000
00000FE1FF000000
00000FC0FF000000
00000FC0FF800000
00001F807F800000
00001F807FC00000
00003F003FC00000
00003F003FC00000
00007E003FE00000
00007E001FE00000
00007E001FF00000
0000FC000FF00000
0000FC000FF80000
0001F80007F80000
0001F80007F80000
0001F80007FC0000
0003F00003FC0000
0003F00003FE0000
0007E00001FE0000
0007E00001FE0000
0007E00001FF0000
000FC00000FF0000
000FC00000FF0000
001F800000FF8000
001F8000007F8000
001FFFFFFFFFC000
003FFFFFFFFFC000
003FFFFFFFFFC000
003FFFFFFFFFE000
007FFFFFFFFFE000
007E0000001FE000
00FE0000001FF000
00FC0000000FF000
00FC0000000FF000
01FC0000000FF800
01F800000007F800
01F800000007F800
03F800000003FC00
03F000000003FC00
03F000000003FC00
07F000000003FC00
07F000000001FE00
07F000000001FE00
0FE000000001FE00
0FE000000001FF00
1FF000000001FF00
1FF000000001FF80
3FFC00000007FFC0
7FFE0000000FFFE0
FFFF0000001FFFF0
FFFF0000001FFFF0
7FFE0000000FFFE0
0000000000000000
0000000000000000
0000000000000000
0000000000000000
0000003800000000
000000FE00000000
000001FF00000000
000001FF00000000
000001FF00000000
000001FF00000000
000001FF00000000
000001FF00000000
000000FE00000000
0000003800000000
ENDCHAR
STARTCHAR 0005
ENCODING 5
SWIDTH 607 0
DWIDTH 54 0
BBX 51 78 3 -14
BITMAP
FFFFFFFFFFFC00
FFFFFFFFFFFE00
FFFFFFFFFFFE00
7FFFFFFFFFFE00
1FFFFFFFFFFE00
0FFE000007FF00
07FC000000FF00
07F80000003F00
07F80000001F00
07F80000000F00
07F80000000600
07F80000000000
07F80000000000
07F80000000000
07F80000000000
07F80000000000
07F80000000000
07F80000000000
07F80000000000
07F80000000000
07F80000000000
07F80000000000
07F80000000000
07F80000000000
07F80000038000
07F800000F8000
07F80000FF8000
07FFFFFFFF8000
07FFFFFFFF8000
07FFFFFFFF8000
07FFFFFFFF8000
07FFFFFFFF8000
07F800000F8000
07F80000038000
07F80000000000
07F80000000000
07F80000000000
07F80000000000
07F80000000000
07F80000000000
07F80000000000
07F80000000000
07F80000000000
07F80000000000
07F80000000000
07F80000000000
07F80000000000
07F80000000000
07F80000000000
07F80000000000
07F80000000000
07F80000000000
07F800000001C0
07F800000003E0
07F800000007E0
07F80000000FE0
07F80000001FC0
0FFC000000FFC0
0FFF00000FFFC0
3FFFFFFFFFFFC0
7FFFFFFFFFFFC0
FFFFFFFFFFFF80
FFFFFFFFFFFF80
7FFFFFFFFFFE00
00000000000000
00000000000000
00000000000000
00000000000000
00000380000000
00000FE0000000
00001FF0000000
00001FF0000000
00001FF0000000
00001FF0000000
00001FF0000000
00001FF0000000
00000FE0000000
00000380000000
ENDCHAR
STARTCHAR 0006
ENCODING 6
SWIDTH 607 0
DWIDTH 54 0
BBX 51 101 3 -15
BITMAP
000001F8000000
000001F8000000
000003FC000000
000007FE000000
000007FE000000
00000FFF000000
00001FFF800000
00001F9F800000
00003F0FC00000
00007E07E00000
00007803E00000
0000F000F00000
0001E000780000
0001C000380000
000380001C0000
000700000E0000
00000000000000
00000000000000
00000000000000
00000000000000
00000000000000
00000000000000
FFFFFFFFFFFC00
FFFFFFFFFFFE00
FFFFFFFFFFFE00
7FFFFFFFFFFE00
1FFFFFFFFFFE00
0FFE000007FF00
07FC000000FF00
07F80000003F00
07F80000001F00
07F80000000F00
07F80000000600
07F80000000000
07F80000000000
07F80000000000
07F80000000000
07F80000000000
07F80000000000
07F80000000000
07F80000000000
07F80000000000
07F80000000000
07F80000000000
07F80000000000
07F80000000000
07F80000038000
07F800000F8000
07F80000FF8000
07FFFFFFFF8000
07FFFFFFFF8000
07FFFFFFFF8000
07FFFFFFFF8000
07FFFFFFFF8000
07F800000F8000
07F80000038000
07F80000000000
07F80000000000
07F80000000000
07F80000000000
07F80000000000
07F80000000000
07F80000000000
07F80000000000
07F80000000000
07F80000000000
07F80000000000
07F80000000000
07F80000000000
07F80000000000
07F80000000000
07F80000000000
07F80000000000
07F80000000000
07F800000001C0
07F800000003E0
07F800000007E0
07F80000000FE0
07F80000001FC0
0FFC000000FFC0
0FFF00000FFFC0
3FFFFFFFFFFFC0
7FFFFFFFFFFFC0
FFFFFFFFFFFF80
FFFFFFFFFFFF80
7FFFFFFFFFFE00
00000000000000
00000000000000
00000000000000
00000000000000
00000000000000
00000000000000
000001F8000000
000003FC000000
000003FE000000
000007FE000000
000007FE000000
000003FE000000
000003FE000000
000001FC000000
000000F8000000
ENDCHAR
STARTCHAR 0015
ENCODING 21
SWIDTH 708 0
DWIDTH 63 0
BBX 64 96 2 -16
BITMAP
00000000000003F0
0000000000000F1C
0000000000000E06
0000000000000E07
0000000000000C03
0000000000000003
0000000000000003
0000000000000003
0000000000000007
0000000000000007
000000000000000E
000000000000003E
00000000000001FC
00000000000007F0
00000000000007C0
0000000000000400
7FFFC000007FFFC0
FFFFE000007FFFC0
FFFFE000007FFFC0
7FFFC000003FFF80
3FFF8000001FFF00
0FFE00000007FC00
07FC00000003FC00
07FC00000001FC00
07FC00000001FC00
07F800000001FC00
07F800000000FC00
07F800000000FC00
07F800000000FC00
07F800000000FC00
07F800000000FC00
0FF000000000FC00
0FF000000000FC00
0FF000000000FC00
0FF000000000FC00
0FF000000000FC00
0FF000000000FC00
0FF000000000FC00
0FF000000000FC00
0FF000000000FC00
0FF000000000FC00
0FF000000000FC00
0FF000000000FC00
0FF000000000FE00
0FF000000000FE00
0FE000000000FE00
0FE000000000FE00
0FE000000000FE00
0FE000000000FE00
0FE000000000FE00
0FE000000000FE00
0FE000000000FE00
0FE000000000FE00
0FE000000000FE00
0FE000000000FE00
0FE000000000FE00
0FF000000000FE00
0FF000000000FE00
0FF000000000FE00
0FF000000000FE00
0FF000000000FC00
0FF000000000FC00
07F000000000FC00
07F000000001FC00
07F800000001FC00
07F800000001F800
07F800000003F800
03FC00000003F800
03FC00000007F000
01FE00000007F000
01FF0000000FE000
00FF8000001FE000
00FFC000003FC000
007FE000007F8000
003FF80001FF0000
003FFE0007FE0000
000FFFF9FFFC0000
0007FFFFFFF80000
0003FFFFFFF00000
0000FFFFFFC00000
00001FFFFE000000
000000FF80000000
0000000000000000
0000000000000000
0000000000000000
0000000000000000
0000000E00000000
0000003F80000000
0000003FC0000000
0000007FC0000000
0000007FC0000000
0000007FC0000000
0000007FC0000000
0000007FC0000000
0000003F80000000
0000000F00000000
ENDCHAR
STARTCHAR 0019
ENCODING 25
SWIDTH 652 0
DWIDTH 58 0
BBX 60 78 -2 -14
BITMAP
7FFFE0000007FFF0
FFFFE000000FFFF0
7FFFE000000FFFF0
7FFFC0000007FFE0
1FFF00000001FFC0
07FE00000000FF80
03FE000000007F00
03FE000000007F00
01FF00000000FE00
00FF00000000FC00
00FF80000000FC00
007F80000001F800
007FC0000001F000
003FE0000003F000
001FE0000007E000
001FF0000007C000
000FF800000FC000
000FF800000F8000
0007FC00001F0000
0003FE00003F0000
0003FE00003E0000
0001FF00007C0000
0000FF8000FC0000
0000FFC000F80000
00007FC001F00000
00003FE003F00000
00001FF007E00000
00001FF007C00000
00000FF80FC00000
000007FC1F800000
000003FE3F000000
000003FF3E000000
000001FF7E000000
000000FFFC000000
0000007FF8000000
0000007FF8000000
0000003FF0000000
0000003FE0000000
0000001FE0000000
0000001FE0000000
0000001FE0000000
0000001FE0000000
0000001FE0000000
0000001FE0000000
0000001FE0000000
0000001FE0000000
0000001FE0000000
0000001FE0000000
0000001FE0000000
0000001FE0000000
0000001FE0000000
0000001FE0000000
0000001FE0000000
0000001FE0000000
0000001FE0000000
0000001FE0000000
0000001FE0000000
0000001FF0000000
0000003FF0000000
000000FFFC000000
000001FFFE000000
000003FFFF000000
000003FFFF000000
000001FFFE000000
0000000000000000
0000000000000000
0000000000000000
0000000000000000
0000000000000000
00000007C0000000
0000000FE0000000
0000001FF0000000
0000001FF0000000
0000001FF0000000
0000001FF0000000
0000001FF0000000
0000000FF0000000
00000007E0000000
ENDCHAR
STARTCHAR 001C
ENCODING 28
SWIDTH 652 0
DWIDTH 58 0
BBX 60 97 -1 0
BITMAP
0000000000E00000
0000000000C00000
000001FE01C00000
000007FFE3C00000
00000FFFFF800000
00000FFFFF800000
00001FFFFF000000
00001C0FFE000000
00003801F0000000
0000300000000000
0000300000000000
0000000F80000000
0000001FC0000000
0000003FC0000000
0000003FE0000000
0000007FF0000000
000000FFF0000000
000000FFF8000000
000001F8FC000000
000003F07C000000
000003E03E000000
000007C01F000000
00000F800F000000
00000F0007800000
00001E0003C00000
0000380001C00000
0000300000E00000
0000000000000000
0000000000000000
0000000000000000
0000000000000000
0000000400000000
0000000E00000000
0000001F00000000
0000001F80000000
0000003FC0000000
0000003FC0000000
0000007FE0000000
000000FFF0000000
000000FFF0000000
000001FFF8000000
000001FFF8000000
000003FFFC000000
000003F3FC000000
000007F3FE000000
000007E1FE000000
00000FE1FF000000
00000FC0FF000000
00000FC0FF800000
00001F807F800000
00001F807FC00000
00003F003FC00000
00003F003FC00000
00007E003FE00000
00007E001FE00000
00007E001FF00000
0000FC000FF00000
0000FC000FF80000
0001F80007F80000
0001F80007F80000
0001F80007FC0000
0003F00003FC0000
0003F00003FE0000
0007E00001FE0000
0007E00001FE0000
0007E00001FF0000
000FC00000FF0000
000FC00000FF0000
001F800000FF8000
001F8000007F8000
001FFFFFFFFFC000
003FFFFFFFFFC000
003FFFFFFFFFC000
003FFFFFFFFFE000
007FFFFFFFFFE000
007E0000001FE000
00FE0000001FF000
00FC0000000FF000
00FC0000000FF000
01FC0000000FF800
01F800000007F800
01F800000007F800
03F800000003FC00
03F000000003FC00
03F000000003FC00
07F000000003FC00
07F000000001FE00
07F000000001FE00
0FE000000001FE00
0FE000000001FF00
1FF000000001FF00
1FF000000001FF80
3FFC00000007FFC0
7FFE0000000FFFE0
FFFF0000001FFFF0
FFFF0000001FFFF0
7FFE0000000FFFE0
ENDCHAR
STARTCHAR 001D
ENCODING 29
SWIDTH 708 0
DWIDTH 63 0
BBX 64 100 2 -2
BITMAP
0000000000380000
0000000000380000
0000007F80700000
000001FFF8F00000
000001FFFFF00000
000003FFFFE00000
000007FFFFC00000
00000707FF800000
000006007E000000
00000E0000000000
00000C0000000000
0000000000000000
0000000000000000
0000000000000000
0000000000000000
0000000000000000
0000000000000000
0000000000000000
00000000000003F0
0000000000000F1C
0000000000000E06
0000000000000E07
0000000000000C03
0000000000000003
0000000000000003
0000000000000003
0000000000000007
0000000000000007
000000000000000E
000000000000003E
00000000000001FC
00000000000007F0
00000000000007C0
0000000000000400
7FFFC000007FFFC0
FFFFE000007FFFC0
FFFFE000007FFFC0
7FFFC000003FFF80
3FFF8000001FFF00
0FFE00000007FC00
07FC00000003FC00
07FC00000001FC00
07FC00000001FC00
07F800000001FC00
07F800000000FC00
07F800000000FC00
07F800000000FC00
07F800000000FC00
07F800000000FC00
0FF000000000FC00
0FF000000000FC00
0FF000000000FC00
0FF000000000FC00
0FF000000000FC00
0FF000000000FC00
0FF000000000FC00
0FF000000000FC00
0FF000000000FC00
0FF000000000FC00
0FF000000000FC00
0FF000000000FC00
0FF000000000FE00
0FF000000000FE00
0FE000000000FE00
0FE000000000FE00
0FE000000000FE00
0FE000000000FE00
0FE000000000FE00
0FE000000000FE00
0FE000000000FE00
0FE000000000FE00
0FE000000000FE00
0FE000000000FE00
0FE000000000FE00
0FF000000000FE00
0FF000000000FE00
0FF000000000FE00
0FF000000000FE00
0FF000000000FC00
0FF000000000FC00
07F000000000FC00
07F000000001FC00
07F800000001FC00
07F800000001F800
07F800000003F800
03FC00000003F800
03FC00000007F000
01FE00000007F000
01FF0000000FE000
00FF8000001FE000
00FFC000003FC000
007FE000007F8000
003FF80001FF0000
003FFE0007FE0000
000FFFF9FFFC0000
0007FFFFFFF80000
0003FFFFFFF00000
0000FFFFFFC00000
00001FFFFE000000
000000FF80000000
ENDCHAR
STARTCHAR 0020
ENCODING 32
SWIDTH 270 0
DWIDTH 24 0
BBX 0 0 0 0
BITMAP
ENDCHAR
STARTCHAR 0021
ENCODING 33
SWIDTH 270 0
DWIDTH 24 0
BBX 10 67 7 -1
BITMAP
0C00
3F00
7F80
7F80
FF80
FF80
FF80
FF80
FF80
FF80
FF80
FF80
7F80
7F80
7F80
7F80
7F80
7F00
7F00
7F00
7F00
7F00
7F00
7F00
7F00
7F00
7F00
7F00
3F00
3F00
3E00
3E00
3E00
3E00
3E00
3E00
3E00
3E00
3E00
3E00
3E00
3E00
3E00
3E00
3E00
1C00
1C00
1C00
1C00
0000
0000
0000
0000
0000
0000
0000
0000
0000
3E00
7F80
FF80
FF80
FFC0
FF80
FF80
7F00
3E00
ENDCHAR
STARTCHAR 0022
ENCODING 34
SWIDTH 326 0
DWIDTH 29 0
BBX 22 26 4 37
BITMAP
7C01F0
FE01F8
FE03F8
FE03FC
FE03FC
FE03F8
FE03F8
FE01F8
FE01F8
7E01F8
7C01F8
7C01F8
7C01F0
7C01F0
7C00F0
7C00F0
3C00F0
3800F0
3800F0
3800E0
3800E0
380060
380060
180060
100060
100060
ENDCHAR
STARTCHAR 0023
ENCODING 35
SWIDTH 765 0
DWIDTH 68 0
BBX 59 63 5 0
BITMAP
00000007C001F000
0000000FC003F000
0000000FC003F000
0000001F8003E000
0000001F8007E000
0000001F8007E000
0000003F0007C000
0000003F000FC000
0000003E000FC000
0000007E000F8000
0000007E001F8000
0000007C001F8000
000000FC003F0000
000000FC003F0000
000000F8003F0000
000001F8007E0000
000001F8007E0000
000001F0007C0000
000003F000FC0000
000003F000FC0000
03FFFFFFFFFFFFE0
03FFFFFFFFFFFFC0
03FFFFFFFFFFFFC0
07FFFFFFFFFFFFC0
07FFFFFFFFFFFF80
00000F8003F00000
00001F8003E00000
00001F8007E00000
00001F0007E00000
00003F0007C00000
00003F000FC00000
00003E000F800000
00007E001F800000
00007E001F800000
0000FC001F000000
0000FC003F000000
0000F8003F000000
0001F8003E000000
7FFFFFFFFFFFF800
7FFFFFFFFFFFF800
FFFFFFFFFFFFF800
FFFFFFFFFFFFF000
FFFFFFFFFFFFF000
0007E001F8000000
0007E001F8000000
0007C001F8000000
000FC003F0000000
000FC003F0000000
000F8003E0000000
001F8007E0000000
001F8007E0000000
003F0007C0000000
003F000FC0000000
003E000FC0000000
007E000F80000000
007E001F80000000
007C001F80000000
00FC003F00000000
00FC003F00000000
00F8003F00000000
01F8007E00000000
01F8007E00000000
01F0007E00000000
ENDCHAR
STARTCHAR 0024
ENCODING 36
SWIDTH 540 0
DWIDTH 48 0
BBX 40 82 5 -10
BITMAP
0000100000
0000380000
00007C0000
00007C0000
00007C0000
00007C0000
00007C0000
0000FF0000
000FFFF000
003FFFFC00
00FFFFFE00
01FFFFFF00
07F87C3F80
07E07C0FC0
0FC07C07E0
1F807C03E0
1F007C03E0
3F007C03F0
3E007C03F0
3E007C03F0
3E007C01E0
3E007C01E0
3E007C0000
3E007C0000
3E007C0000
3F007C0000
3F007C0000
3F807C0000
3FC07C0000
1FF07C0000
1FF87C0000
0FFE7C0000
07FFFC0000
07FFFC0000
03FFFE0000
00FFFF8000
007FFFE000
003FFFF800
000FFFFE00
0003FFFF00
0000FFFF80
00007FFFC0
00007FFFE0
00007DFFF0
00007C7FF8
00007C1FFC
00007C0FFC
00007C03FE
00007C01FE
00007C00FE
00007C00FE
00007C007F
00007C007F
00007C007F
00007C003F
70007C003E
F8007C003E
F8007C003E
F8007C007E
FC007C007E
FC007C007C
7C007C00FC
7E007C00F8
3F007C01F8
3F807C03F0
1FC07C07E0
0FF07C1FC0
07FC7CFF80
03FFFFFF00
00FFFFFC00
003FFFF000
000FFF8000
00007C0000
00007C0000
00007C0000
00007C0000
00007C0000
00007C0000
00007C0000
00007C0000
00007C0000
0000380000
ENDCHAR
STARTCHAR 0025
ENCODING 37
SWIDTH 866 0
DWIDTH 77 0
BBX 67 69 6 -2
BITMAP
0000000000000C0000
0000000000003C0000
003FFC0000007C0000
00FFFF000000FC0000
03FFFFE00003F80000
07F00FFC000FF00000
0FE007FFE0FFF00000
1FC003FFFFFFE00000
1F8001FFFFFDE00000
3F8001FCFFE3C00000
3F0000FC0003C00000
7F0000FE0007800000
7F0000FE000F000000
7E0000FE000F000000
FE00007E001E000000
FE00007F001E000000
FE00007F003C000000
FE00007F003C000000
FE00007F0078000000
FE00007F0078000000
7E00007E00F0000000
7F0000FE01E0000000
7F0000FE01E0000000
7F0000FE03C0000000
3F0000FC03C0000000
3F8001FC0780000000
1F8001F80780000000
1FC003F00F00000000
0FE007F01E00000000
07F81FE01E00000000
01FFFF803C00000000
00FFFE003C00000000
001FF8007800000000
000000007800000000
00000000F000000000
00000001F000000000
00000001E000000000
00000003C003FF8000
00000003C00FFFE000
00000007803FFFF800
00000007807F01FC00
0000000F00FC007E00
0000000F01F8003F00
0000001E03F8003F80
0000003E03F0001F80
0000003C07F0001FC0
0000007807E0000FC0
000000780FE0000FE0
000000F00FE0000FE0
000000F00FE0000FE0
000001E00FE0000FE0
000003E00FE0000FE0
000003C00FE0000FE0
000007800FE0000FE0
000007800FE0000FE0
00000F000FE0000FE0
00000F000FE0000FE0
00001E000FE0000FE0
00003E0007E0000FC0
00003C0007F0001FC0
00007C0003F0001F80
0000780003F8003F80
0000F00001F8003F00
0000F00000FC00FE00
0001E000007F01FC00
0001E000003FFFF800
0003C000000FFFE000
0003C0000003FF8000
000380000000000000
ENDCHAR
STARTCHAR 0026
ENCODING 38
SWIDTH 765 0
DWIDTH 68 0
BBX 65 68 2 -2
BITMAP
000000F80000000000
00001FFF0000000000
00007FFFC000000000
0001FFFFF000000000
0003FFFFF800000000
0007F803FC00000000
000FE001FC00000000
001FC000FE00000000
003F80007E00000000
003F00003F00000000
003F00003F00000000
007F00003F00000000
007E00001F00000000
007E00001F00000000
007E00001F00000000
007E00003F00000000
007F00003F00000000
007F00003F00000000
007F00007E00000000
007F8000FE00000000
007F8001FC00000000
003FC003F800000000
003FC007F000000000
001FE00FE000000000
001FE03FC000000000
000FF07F8000000000
000FF9FE0000000000
0007FFFC0000000000
0007FFF80000000000
0003FFE00007FFE000
0001FF80003FFFF800
0003FF80003FFFF800
0007FF80001FFFF800
001FFFC00007FFE000
007FFFE00001FF8000
00FE3FE00001FF0000
01FC1FF00000FC0000
03F80FF80001FC0000
07F00FFC0001F80000
0FE007FC0001F80000
1FC003FE0001F00000
1F8001FF0003E00000
3F8001FF8003E00000
3F0000FFC007C00000
7F00007FC00FC00000
7F00003FE00F800000
7F00001FF01F000000
7E00001FF83F000000
FE00000FFC3E000000
FE000007FE7C000000
FE000003FFFC000000
FF000001FFF8000000
FF000000FFF0000000
7F0000007FE0000000
7F0000007FF0000000
7F8000003FF8000000
7FC000003FFC000000
3FC000007FFE000000
3FE00000FFFF800000
1FF80003FFFFC00000
0FFC000FF9FFF80700
0FFF807FF0FFFFFF80
07FFFFFFC07FFFFF80
03FFFFFF803FFFFF00
00FFFFFE000FFFFE00
007FFFF80003FFFC00
000FFFE000007FE000
00007C000000000000
ENDCHAR
STARTCHAR 0027
ENCODING 39
SWIDTH 168 0
DWIDTH 15 0
BBX 7 26 4 37
BITMAP
7C
FE
FE
FE
FE
FE
FE
FE
FE
7E
7C
7C
7C
7C
7C
7C
3C
38
38
38
38
38
38
18
10
10
ENDCHAR
STARTCHAR 0028
ENCODING 40
SWIDTH 326 0
DWIDTH 29 0
BBX 15 81 8 -15
BITMAP
000C
001E
003E
007E
007C
00FC
00F8
01F8
01F0
03F0
03F0
07E0
07E0
07C0
0FC0
0FC0
0F80
1F80
1F80
1F80
3F00
3F00
3F00
7F00
7E00
7E00
7E00
7E00
7E00
FE00
FC00
FC00
FC00
FC00
FC00
FC00
FC00
FC00
FC00
FC00
FC00
FC00
FC00
FC00
FC00
FC00
FC00
FC00
FC00
FC00
FC00
FE00
7E00
7E00
7E00
7E00
7E00
3F00
3F00
3F00
3F00
1F80
1F80
1F80
0F80
0FC0
0FC0
07C0
07E0
03E0
03E0
03F0
01F0
01F8
00F8
00FC
007C
007C
003E
001E
000C
ENDCHAR
STARTCHAR 0029
ENCODING 41
SWIDTH 326 0
DWIDTH 29 0
BBX 16 81 6 -15
BITMAP
6000
F000
F800
7C00
7C00
3E00
3E00
3F00
1F00
1F80
0F80
0FC0
0FC0
07C0
07E0
07E0
03F0
03F0
03F0
01F0
01F8
01F8
01F8
01FC
00FC
00FC
00FC
00FC
00FE
007E
007E
007E
007E
007E
007E
007E
007E
007F
007F
007F
007F
007F
007F
007F
007E
007E
007E
007E
007E
007E
007E
00FE
00FE
00FC
00FC
00FC
00FC
01FC
01F8
01F8
01F8
03F8
03F0
03F0
03F0
07E0
07E0
07C0
0FC0
0FC0
0F80
1F80
1F00
3F00
3E00
3E00
7C00
7C00
F800
F000
6000
ENDCHAR
STARTCHAR 002A
ENCODING 42
SWIDTH 483 0
DWIDTH 43 0
BBX 32 36 6 30
BITMAP
00010000
0007E000
000FF000
000FF000
000FF000
000FF000
000FE000
3807E018
7C07C07E
FE03C0FF
FF03C0FF
FF8381FF
FFC183FF
FFC187FE
7FE18FFC
0FF19FE0
003DB800
0007E000
00038000
0007E000
00393C00
1FF19FF8
7FE187FE
FFC187FF
FF8383FF
FF8381FF
FF03C0FF
FE07C07F
7C07E03E
0007E000
000FE000
000FF000
000FF000
000FF000
000FE000
0007C000
ENDCHAR
STARTCHAR 002B
ENCODING 43
SWIDTH 832 0
DWIDTH 74 0
BBX 52 53 11 0
BITMAP
000001F8000000
000001F8000000
000001F8000000
000001F8000000
000001F8000000
000001F8000000
000001F8000000
000001F8000000
000001F8000000
000001F8000000
000001F8000000
000001F8000000
000001F8000000
000001F8000000
000001F8000000
000001F8000000
000001F8000000
000001F8000000
000001F8000000
000001F8000000
000001F8000000
000001F8000000
000001F8000000
000001F8000000
FFFFFFFFFFFFF0
FFFFFFFFFFFFF0
FFFFFFFFFFFFF0
FFFFFFFFFFFFF0
FFFFFFFFFFFFF0
000001F8000000
000001F8000000
000001F8000000
000001F8000000
000001F8000000
000001F8000000
000001F8000000
000001F8000000
000001F8000000
000001F8000000
000001F8000000
000001F8000000
000001F8000000
000001F8000000
000001F8000000
000001F8000000
000001F8000000
000001F8000000
000001F8000000
000001F8000000
000001F8000000
000001F8000000
000001F8000000
000001F8000000
ENDCHAR
STARTCHAR 002C
ENCODING 44
SWIDTH 270 0
DWIDTH 24 0
BBX 11 23 6 -15
BITMAP
1F00
3F80
7FC0
FFE0
FFE0
FFE0
FFE0
7FE0
3FE0
01E0
00E0
00E0
00E0
01C0
01C0
0380
0380
0700
0F00
0E00
1C00
3800
3000
ENDCHAR
STARTCHAR 002D
ENCODING 45
SWIDTH 326 0
DWIDTH 29 0
BBX 21 7 4 17
BITMAP
7FFFF0
FFFFF8
FFFFF8
FFFFF8
FFFFF8
FFFFF8
7FFFF0
ENDCHAR
STARTCHAR 002E
ENCODING 46
SWIDTH 270 0
DWIDTH 24 0
BBX 10 9 7 -1
BITMAP
3F00
7F80
7FC0
FFC0
FFC0
FFC0
7FC0
7F80
1F00
ENDCHAR
STARTCHAR 002F
ENCODING 47
SWIDTH 258 0
DWIDTH 23 0
BBX 26 74 -2 -8
BITMAP
00000180
000003C0
000003C0
00000380
00000780
00000780
00000700
00000F00
00000F00
00000F00
00001E00
00001E00
00001E00
00003C00
00003C00
00003C00
00003800
00007800
00007800
00007000
0000F000
0000F000
0000E000
0001E000
0001E000
0001E000
0003C000
0003C000
0003C000
00078000
00078000
00078000
000F0000
000F0000
000F0000
000E0000
001E0000
001E0000
001C0000
003C0000
003C0000
00380000
00780000
00780000
00780000
00F00000
00F00000
00F00000
01E00000
01E00000
01E00000
01C00000
03C00000
03C00000
03800000
07800000
07800000
07000000
0F000000
0F000000
0F000000
1E000000
1E000000
1E000000
3C000000
3C000000
3C000000
38000000
78000000
78000000
70000000
F0000000
F0000000
E0000000
ENDCHAR
STARTCHAR 0030
ENCODING 48
SWIDTH 540 0
DWIDTH 48 0
BBX 43 66 3 -1
BITMAP
0001FFF00000
0007FFFC0000
001FFFFF0000
007FFFFF8000
00FFC07FC000
01FE001FE000
03FC0007F000
03F80003F800
07F00001FC00
0FF00001FC00
0FE00000FE00
1FE00000FE00
1FC00000FF00
1FC000007F00
3FC000007F00
3F8000007F80
3F8000003F80
7F8000003F80
7F8000003FC0
7F8000003FC0
7F8000003FC0
FF8000003FC0
FF0000003FC0
FF0000003FE0
FF0000001FE0
FF0000001FE0
FF0000001FE0
FF0000001FE0
FF0000001FE0
FF0000001FE0
FF0000001FE0
FF0000001FE0
FF0000001FE0
FF0000001FE0
FF0000001FE0
FF0000001FE0
FF0000001FE0
FF0000001FE0
FF0000001FE0
FF0000001FE0
FF0000001FE0
FF0000003FE0
FF0000003FE0
FF0000003FC0
FF8000003FC0
7F8000003FC0
7F8000003FC0
7F8000003FC0
7F8000003F80
3F8000007F80
3F8000007F80
3FC000007F80
1FC000007F00
1FC00000FF00
1FE00000FE00
0FE00000FE00
07F00001FC00
07F00003FC00
03F80003F800
01FC0007F000
01FF001FE000
00FFC0FFC000
003FFFFF8000
001FFFFF0000
0007FFFC0000
0001FFE00000
ENDCHAR
STARTCHAR 0031
ENCODING 49
SWIDTH 540 0
DWIDTH 48 0
BBX 33 65 8 0
BITMAP
0000180000
0000780000
0001F80000
0003F80000
001FF80000
00FFF80000
3FFFF80000
FFFFF80000
FFFFF80000
FFFFF80000
603FF80000
0007F80000
0007F80000
0003F80000
0003F80000
0003F80000
0003F80000
0003F80000
0003F80000
0003F80000
0003F80000
0003F80000
0003F80000
0003F80000
0003F80000
0003F80000
0003F80000
0003F80000
0003F80000
0003F80000
0003F80000
0003F80000
0003F80000
0003F80000
0003F80000
0003F80000
0003F80000
0003F80000
0003F80000
0003F80000
0003F80000
0003F80000
0003F80000
0003F80000
0003F80000
0003F80000
0003F80000
0003F80000
0003F80000
0003F80000
0003F80000
0003F80000
0003F80000
0003F80000
0003FC0000
0003FC0000
0007FC0000
0007FC0000
000FFE0000
003FFF0000
03FFFFF800
3FFFFFFF00
3FFFFFFF80
3FFFFFFF80
3FFFFFFF00
ENDCHAR
STARTCHAR 0032
ENCODING 50
SWIDTH 540 0
DWIDTH 48 0
BBX 43 66 1 0
BITMAP
000005C00000
0000FFFE0000
0007FFFFC000
001FFFFFF000
003FFFFFF800
00FFC01FFC00
01FF0003FE00
03FC0001FF00
07F80000FF80
07F000007F80
0FE000003FC0
0FE000003FC0
1FC000003FC0
1FC000001FE0
1FC000001FE0
1FC000001FE0
3FC000001FE0
3FE000001FE0
1FE000003FE0
1FF000003FE0
1FF000003FE0
1FF000007FC0
0FF000007FC0
07E000007FC0
00000000FF80
00000001FF80
00000001FF00
00000003FF00
00000007FE00
0000000FFC00
0000001FF800
0000003FF000
0000007FE000
000000FFC000
000001FF8000
000003FF0000
000007FE0000
00000FFC0000
00001FF80000
00003FE00000
00007FC00000
0000FF800000
0001FF000000
0003FE000000
0007F8000000
000FF0000000
001FE0000000
003FC0000000
003F80000000
007F00000000
00FE00000000
01FC00000000
03FC00000000
03F8000001E0
07F0000003E0
0FE0000007E0
0FE000000FE0
1FC000001FC0
3FC000007FC0
3FFFFFFFFFC0
7FFFFFFFFFC0
7FFFFFFFFF80
FFFFFFFFFF80
FFFFFFFFFF80
FFFFFFFFFF00
7FFFFFFFFE00
ENDCHAR
STARTCHAR 0033
ENCODING 51
SWIDTH 540 0
DWIDTH 48 0
BBX 43 66 1 0
BITMAP
0001FFF80000
000FFFFF0000
003FFFFFC000
007FFFFFE000
00FF003FF000
01FE000FF800
03F80007FC00
07F00003FE00
0FF00001FE00
0FE00001FF00
0FE00000FF00
0FE00000FF00
0FE00000FF80
0FF000007F80
0FF000007F80
0FE000007F80
07E00000FF80
00000000FF80
00000000FF00
00000000FF00
00000000FF00
00000001FE00
00000003FE00
00000003FC00
00000007F800
0000000FF000
0000003FE000
000001FF8000
00007FFE0000
0003FFF00000
0007FFF80000
0007FFFF0000
0003FFFFC000
0000007FF000
0000000FF800
00000007FE00
00000001FF00
00000000FF00
00000000FF80
000000007FC0
000000007FC0
000000003FE0
000000003FE0
000000003FE0
000000003FE0
000000001FE0
000000001FE0
000000001FE0
3C0000001FE0
7E0000003FE0
FE0000003FE0
FE0000003FE0
FE0000003FC0
FF0000003FC0
FF0000007FC0
FF0000007F80
7F000000FF80
7F800001FF00
7FC00003FE00
3FE00007FC00
1FF0000FF800
0FFC007FF000
07FFFFFFE000
01FFFFFF8000
007FFFFE0000
001FFFE00000
ENDCHAR
STARTCHAR 0034
ENCODING 52
SWIDTH 540 0
DWIDTH 48 0
BBX 47 66 1 0
BITMAP
00000000C000
00000007E000
0000000FE000
0000003FE000
0000007FF000
000000FFF000
000001FFF000
000003FFF000
000007FFF000
00000FFFF000
00001FEFF000
00003FCFF000
00003F8FF000
00007F0FF000
0000FE0FF000
0001FC0FF000
0001F80FF000
0003F00FF000
0007E00FF000
000FE00FF000
000FC00FF000
001F800FF000
003F800FF000
003F000FF000
007E000FF000
00FE000FF000
00FC000FF000
01F8000FF000
01F8000FF000
03F0000FF000
03F0000FF000
07E0000FF000
07E0000FF000
0FC0000FF000
0FC0000FF000
1F80000FF000
1F80000FF000
3F80000FF000
3F00000FF000
3F00000FF000
7E00000FF000
7E00000FF000
7E00000FF000
FFFFFFFFFFFC
FFFFFFFFFFFE
FFFFFFFFFFFE
FFFFFFFFFFFE
FFFFFFFFFFFE
7FFFFFFFFFFC
0000000FF000
0000000FF000
0000000FF000
0000000FF000
0000000FF000
0000000FF000
0000000FF000
0000000FF000
0000000FF000
0000000FF000
0000000FF000
0000000FF000
0000003FFC00
000000FFFF00
000001FFFF80
000003FFFF80
000001FFFF80
ENDCHAR
STARTCHAR 0035
ENCODING 53
SWIDTH 540 0
DWIDTH 48 0
BBX 43 66 2 -1
BITMAP
000000007800
03FFFFFFFC00
03FFFFFFFC00
03FFFFFFFC00
03FFFFFFF800
03FFFFFFE000
03FFFFFF0000
03FFFFF00000
03E000000000
03E000000000
03E000000000
03E000000000
03E000000000
03E000000000
03E000000000
03E000000000
07E000000000
07E000000000
07E000000000
07C000000000
07C000000000
07C000000000
07C000000000
07C000000000
07C000000000
07C03FF00000
07C3FFFF0000
07CFFFFFC000
0FFFFFFFF000
0FFFFFFFF800
0FFF001FFC00
0FFC0007FE00
0FE00003FF00
0FC00001FF80
03000000FF80
000000007FC0
000000007FC0
000000003FC0
000000003FE0
000000003FE0
000000003FE0
000000001FE0
000000001FE0
000000001FE0
000000001FE0
000000001FE0
000000001FE0
000000001FE0
000000001FE0
7E0000003FE0
7F0000003FC0
FF0000003FC0
FF0000007FC0
FF0000007F80
FF000000FF80
FF000000FF00
FF000001FF00
7F800003FE00
7F800007FC00
3FC0000FFC00
1FF0003FF000
0FFF01FFE000
07FFFFFFC000
01FFFFFF0000
007FFFFC0000
000FFFC00000
ENDCHAR
STARTCHAR 0036
ENCODING 54
SWIDTH 540 0
DWIDTH 48 0
BBX 43 67 3 -1
BITMAP
000000001000
0000000FFC00
0000007FFE00
000003FFFC00
00000FFFF000
00003FFE0000
00007FE00000
0001FF800000
0003FE000000
0007F8000000
000FF0000000
003FE0000000
003FC0000000
007F80000000
00FF00000000
01FE00000000
03FC00000000
03FC00000000
07F800000000
07F000000000
0FF000000000
0FE000000000
1FE000000000
1FE000000000
3FC000000000
3FC000000000
3FC001E00000
3F803FFF0000
7F81FFFFC000
7F87FFFFF000
7F9FFFFFF800
7FBFE0FFFC00
FFFE000FFE00
FFF80003FF00
FFF00001FF00
FFC00000FF80
FF8000007F80
FF8000007FC0
FF0000003FC0
FF0000003FC0
FF0000003FE0
FF0000003FE0
FF0000001FE0
FF0000001FE0
FF0000001FE0
FF0000001FE0
FF0000001FE0
FF0000001FE0
7F0000001FE0
7F8000001FE0
7F8000001FE0
7F8000001FE0
3F8000003FC0
3FC000003FC0
3FC000003FC0
1FE000003F80
1FE000007F80
0FF000007F00
0FF80000FE00
07F80001FE00
03FE0003FC00
01FF000FF800
00FFE03FF000
007FFFFFE000
001FFFFF8000
000FFFFE0000
0001FFF00000
ENDCHAR
STARTCHAR 0037
ENCODING 55
SWIDTH 540 0
DWIDTH 48 0
BBX 40 65 6 -1
BITMAP
7FFFFFFFFE
FFFFFFFFFF
FFFFFFFFFE
FFFFFFFFFE
FFFFFFFFFE
FFFFFFFFFC
FFE000007C
FC000000FC
F8000000F8
F8000001F8
F0000001F0
F0000003F0
F0000003F0
E0000007E0
40000007E0
00000007C0
0000000FC0
0000000FC0
0000001F80
0000001F80
0000003F00
0000003F00
0000007F00
0000007E00
0000007E00
000000FE00
000000FC00
000001FC00
000001F800
000003F800
000003F800
000003F000
000007F000
000007E000
00000FE000
00000FE000
00001FC000
00001FC000
00003FC000
00003F8000
00003F8000
00007F8000
00007F0000
0000FF0000
0000FE0000
0001FE0000
0001FE0000
0001FC0000
0003FC0000
0003FC0000
0007FC0000
0007F80000
0007F80000
000FF80000
000FF00000
001FF00000
001FF00000
001FE00000
003FE00000
003FE00000
003FE00000
007FC00000
007FC00000
007F800000
003F000000
ENDCHAR
STARTCHAR 0038
ENCODING 56
SWIDTH 540 0
DWIDTH 48 0
BBX 44 66 2 -1
BITMAP
0000FFFC0000
0007FFFF8000
001FFFFFE000
007FFFFFF800
00FF800FFC00
01FC0003FE00
03F80001FE00
07F000007F00
07E000007F80
0FC000003F80
0FC000001F80
1F8000001F80
1F8000001FC0
1F8000001FC0
1F8000001FC0
1F8000001FC0
1F8000001F80
1F8000001F80
1FC000003F80
1FC000003F00
1FE000007F00
1FF000007E00
0FF80000FC00
0FFE0001F800
07FF8007F000
03FFE00FE000
03FFFC3FC000
01FFFFFF0000
007FFFFC0000
003FFFFC0000
001FFFFF0000
0007FFFFC000
0001FFFFF000
0007FFFFF800
001FEFFFFC00
007F81FFFE00
00FE007FFF00
01FC001FFF80
07F80007FFC0
0FF00001FFE0
1FE00000FFE0
1FC000007FE0
3F8000003FF0
3F0000001FF0
7F0000000FF0
7F0000000FF0
7E00000007F0
FE00000007F0
FE00000007F0
FE00000007F0
FE00000007F0
FE00000007F0
FE00000007F0
7E00000007E0
7F0000000FE0
7F0000000FC0
3F8000001FC0
3F8000003F80
1FC000007F00
0FF00000FF00
07F80003FC00
03FF000FF800
01FFFFFFF000
007FFFFFC000
001FFFFF0000
0003FFF00000
ENDCHAR
STARTCHAR 0039
ENCODING 57
SWIDTH 540 0
DWIDTH 48 0
BBX 43 66 3 0
BITMAP
0003FFF00000
001FFFFE0000
007FFFFF0000
00FFFFFFC000
01FF007FE000
03FC001FF000
07F0000FF800
0FF00007FC00
1FE00003FC00
3FC00001FE00
3FC00000FF00
7F800000FF00
7F8000007F00
7F0000007F80
FF0000007F80
FF0000003F80
FF0000003FC0
FF0000003FC0
FF0000003FC0
FF0000003FC0
FF0000003FC0
FF0000001FE0
FF0000001FE0
FF0000001FE0
FF0000001FE0
FF0000001FE0
FF0000001FE0
FF8000003FE0
7F8000003FE0
7FC000003FE0
7FC000007FE0
3FE00000FFE0
1FF00001FFC0
1FF80007FFC0
0FFE001FFFC0
07FFFFFFBFC0
03FFFFFE3FC0
01FFFFF83FC0
007FFFE03F80
001FFF807F80
000000007F80
000000007F00
000000007F00
00000000FF00
00000000FE00
00000001FE00
00000001FC00
00000003FC00
00000003F800
00000007F800
0000000FF000
0000001FE000
0000001FE000
0000003FC000
0000007F8000
000001FF0000
000003FE0000
000007FC0000
00001FF00000
00007FE00000
0001FFC00000
001FFF000000
03FFFC000000
0FFFF0000000
0FFF80000000
07FC00000000
ENDCHAR
STARTCHAR 003A
ENCODING 58
SWIDTH 270 0
DWIDTH 24 0
BBX 10 40 7 -1
BITMAP
3F00
7F80
7FC0
FFC0
FFC0
7FC0
7F80
3F80
1E00
0000
0000
0000
0000
0000
0000
0000
0000
0000
0000
0000
0000
0000
0000
0000
0000
0000
0000
0000
0000
0000
0000
3F00
7F80
7FC0
FFC0
FFC0
FFC0
7FC0
7F80
1F00
ENDCHAR
STARTCHAR 003B
ENCODING 59
SWIDTH 270 0
DWIDTH 24 0
BBX 11 54 6 -15
BITMAP
3F00
7F80
7FC0
FFC0
FFC0
FFC0
7FC0
7F80
3F00
0000
0000
0000
0000
0000
0000
0000
0000
0000
0000
0000
0000
0000
0000
0000
0000
0000
0000
0000
0000
0000
0000
1F00
7F80
7FC0
FFE0
FFE0
FFE0
FFE0
7FE0
3FE0
01E0
00E0
00E0
00E0
01C0
01C0
0380
0380
0700
0F00
0E00
1C00
3800
3000
ENDCHAR
STARTCHAR 003C
ENCODING 60
SWIDTH 832 0
DWIDTH 74 0
BBX 52 47 11 3
BITMAP
00000000000010
00000000000070
000000000003F0
00000000000FF0
00000000007FF0
0000000001FFF0
000000000FFFC0
000000003FFE00
00000000FFF800
00000007FFE000
0000001FFF0000
000000FFFC0000
000003FFE00000
00001FFF800000
00007FFC000000
0001FFF0000000
000FFF80000000
003FFE00000000
01FFF800000000
07FFC000000000
3FFF0000000000
FFF80000000000
FFE00000000000
FF000000000000
FFE00000000000
FFF80000000000
3FFF0000000000
07FFC000000000
01FFF000000000
003FFE00000000
000FFF80000000
0001FFF0000000
00007FFC000000
00001FFF800000
000003FFE00000
000000FFFC0000
0000001FFF0000
00000007FFE000
00000000FFF800
000000003FFF00
000000000FFFC0
0000000001FFF0
00000000007FF0
00000000000FF0
000000000003F0
00000000000070
00000000000010
ENDCHAR
STARTCHAR 003D
ENCODING 61
SWIDTH 832 0
DWIDTH 74 0
BBX 52 21 11 16
BITMAP
FFFFFFFFFFFFF0
FFFFFFFFFFFFF0
FFFFFFFFFFFFF0
FFFFFFFFFFFFF0
FFFFFFFFFFFFF0
00000000000000
00000000000000
00000000000000
00000000000000
00000000000000
00000000000000
00000000000000
00000000000000
00000000000000
00000000000000
00000000000000
FFFFFFFFFFFFF0
FFFFFFFFFFFFF0
FFFFFFFFFFFFF0
FFFFFFFFFFFFF0
FFFFFFFFFFFFF0
ENDCHAR
STARTCHAR 003E
ENCODING 62
SWIDTH 832 0
DWIDTH 74 0
BBX 52 47 11 3
BITMAP
80000000000000
E0000000000000
FC000000000000
FF000000000000
FFE00000000000
FFF80000000000
3FFF0000000000
07FFC000000000
01FFF800000000
007FFE00000000
000FFF80000000
0003FFF0000000
00007FFC000000
00001FFF800000
000003FFE00000
000000FFFC0000
0000001FFF0000
00000007FFC000
00000001FFF800
000000003FFE00
000000000FFFC0
0000000001FFF0
00000000007FF0
00000000000FF0
00000000007FF0
0000000001FFF0
0000000007FFC0
000000003FFE00
00000000FFF800
00000007FFC000
0000001FFF0000
000000FFFC0000
000003FFE00000
00001FFF800000
00007FFC000000
0003FFF0000000
000FFF80000000
007FFE00000000
01FFF000000000
0FFFC000000000
3FFF0000000000
FFF80000000000
FFE00000000000
FF000000000000
FC000000000000
E0000000000000
80000000000000
ENDCHAR
STARTCHAR 003F
ENCODING 63
SWIDTH 438 0
DWIDTH 39 0
BBX 34 67 2 -1
BITMAP
0000C00000
003FFF0000
01FFFFC000
03FFFFE000
0FF00FF800
1FC003FC00
3F8001FC00
7F0000FE00
7F00007F00
7F00003F00
FF00003F80
FF00003F80
FF00001F80
FF00001FC0
7F00001FC0
3E00001FC0
0000001FC0
0000001FC0
0000001FC0
0000001FC0
0000001FC0
0000001FC0
0000003F80
0000003F80
0000007F80
0000007F80
000000FF00
000001FF00
000003FE00
000007FC00
00001FFC00
00003FF800
0000FFF000
0003FFE000
000FFF8000
001FFF0000
001FFC0000
001FF00000
001F800000
001E000000
001E000000
001E000000
001E000000
001E000000
001E000000
001C000000
001C000000
001C000000
001C000000
001C000000
0000000000
0000000000
0000000000
0000000000
0000000000
0000000000
0000000000
0000000000
003F000000
007F800000
007FC00000
00FFC00000
00FFC00000
007FC00000
007FC00000
007F800000
001F000000
ENDCHAR
STARTCHAR 0040
ENCODING 64
SWIDTH 978 0
DWIDTH 87 0
BBX 75 75 6 -12
BITMAP
000000001FFFC0000000
00000003FFFFFC000000
0000001FFC007F800000
0000007F000007F00000
000001F8000000FC0000
000007E00000001E0000
00001F80000000078000
00003E0000000003C000
0000F80000000000E000
0001F000000000007000
0003E000000000003800
0007C000000000001C00
000F8000000000000C00
001F0000000000000E00
003E0000000000000700
007C0000000000000300
00F80000000000000380
01F00000000000000180
01F000000000000001C0
03E0000000E0000000C0
07E000000FFC07E000C0
07C000007E0F07E000C0
0F800000F8038FE00060
0F800003F0018FC00060
1F800007E001CFC00060
1F00000FC000CFC00060
1F00001FC000FFC00060
3E00003F80007F800060
3E00007F00007F800060
3E00007F00007F800060
7E0000FE00007F000060
7C0001FE00007F000060
7C0001FC00007F000060
7C0003FC00007F000060
7C0003F800007E000060
FC0003F80000FE000060
FC0007F80000FE000060
F80007F00000FE0000E0
F80007F00000FC0000C0
F8000FF00001FC0000C0
F8000FE00001FC0001C0
F8000FE00001F8000180
F8000FE00003F8000180
F8000FE00003F8000380
78000FE00007F8000300
7C000FE00007F0000700
7C000FE0000FF0000E00
7C0007E0000FF0000C00
7C0007E0001FF0001C00
3C0007E0003BE0003800
3E0003E00033E0007000
3E0003E00073E000E000
1E0001F000E3E001C000
1F0001F801C1F0078000
1F0000FC0781F00F0000
0F00003FFE00FEFC0000
0F80001FF8003FF00000
07C00001800002000000
03C00000000000000000
03E00000000000000000
01F00000000000000000
00F80000000000000000
007C0000000000000000
007E0000000000000000
003F0000000000001000
000F8000000000007800
0007C00000000000F000
0003F00000000003C000
0001FC000000000F8000
00007F000000003E0000
00001FC0000001F80000
000007FC00000FE00000
000001FFE001FF000000
0000001FFFFFF8000000
00000001FFFF00000000
ENDCHAR
STARTCHAR 0041
ENCODING 65
SWIDTH 652 0
DWIDTH 58 0
BBX 60 66 -1 0
BITMAP
0000000400000000
0000000E00000000
0000001F00000000
0000001F80000000
0000003FC0000000
0000003FC0000000
0000007FE0000000
000000FFF0000000
000000FFF0000000
000001FFF8000000
000001FFF8000000
000003FFFC000000
000003F3FC000000
000007F3FE000000
000007E1FE000000
00000FE1FF000000
00000FC0FF000000
00000FC0FF800000
00001F807F800000
00001F807FC00000
00003F003FC00000
00003F003FC00000
00007E003FE00000
00007E001FE00000
00007E001FF00000
0000FC000FF00000
0000FC000FF80000
0001F80007F80000
0001F80007F80000
0001F80007FC0000
0003F00003FC0000
0003F00003FE0000
0007E00001FE0000
0007E00001FE0000
0007E00001FF0000
000FC00000FF0000
000FC00000FF0000
001F800000FF8000
001F8000007F8000
001FFFFFFFFFC000
003FFFFFFFFFC000
003FFFFFFFFFC000
003FFFFFFFFFE000
007FFFFFFFFFE000
007E0000001FE000
00FE0000001FF000
00FC0000000FF000
00FC0000000FF000
01FC0000000FF800
01F800000007F800
01F800000007F800
03F800000003FC00
03F000000003FC00
03F000000003FC00
07F000000003FC00
07F000000001FE00
07F000000001FE00
0FE000000001FE00
0FE000000001FF00
1FF000000001FF00
1FF000000001FF80
3FFC00000007FFC0
7FFE0000000FFFE0
FFFF0000001FFFF0
FFFF0000001FFFF0
7FFE0000000FFFE0
ENDCHAR
STARTCHAR 0042
ENCODING 66
SWIDTH 652 0
DWIDTH 58 0
BBX 54 64 3 0
BITMAP
FFFFFFFFF80000
FFFFFFFFFF8000
FFFFFFFFFFE000
7FFFFFFFFFF000
1FFFFFFFFFFC00
0FFE00007FFC00
07FC00000FFE00
07F8000003FF00
07F8000001FF00
07F8000001FF80
07F8000000FF80
07F8000000FF80
07F80000007F80
07F80000007F80
07F80000007F80
07F80000007F80
07F8000000FF80
07F8000000FF80
07F8000000FF00
07F8000001FF00
07F8000003FE00
07F8000007FE00
07F800000FFC00
07F800001FF800
07F800007FF000
07F80000FFC000
07F80007FF8000
07F8001FFE0000
07F801FFF80000
07F81FFFF80000
07FBFFFFFF8000
07FFFFFFFFF000
07FFFFE1FFF800
07FFFE003FFE00
07FFE00007FF00
07F8000003FF80
07F8000000FFC0
07F80000007FE0
07F80000003FE0
07F80000001FF0
07F80000001FF0
07F80000000FF8
07F80000000FF8
07F800000007F8
07F800000007F8
07F800000007FC
07F800000007FC
07F800000007FC
07F800000007F8
07F80000000FF8
07F80000000FF8
07F80000000FF8
07F80000001FF0
07F80000003FF0
07F80000003FF0
07F8000000FFE0
07FC000001FFC0
0FFC00000FFFC0
0FFF0000FFFF80
3FFFFFFFFFFF00
7FFFFFFFFFFC00
FFFFFFFFFFF800
FFFFFFFFFFC000
7FFFFFFFFC0000
ENDCHAR
STARTCHAR 0043
ENCODING 67
SWIDTH 697 0
DWIDTH 62 0
BBX 57 68 3 -2
BITMAP
00000007E0000000
000000FFFFE00000
00000FFFFFFC0000
00003FFFFFFF8000
0000FFFFFFFFE000
0003FFE00FFFF000
0007FF0000FFF800
000FFC00003FFC00
001FF000001FFC00
003FE000000FFC00
007FC0000003FC00
00FF80000001FC00
01FF00000001FC00
03FE00000000FC00
03FE000000007C00
07FC000000007C00
0FF8000000003E00
0FF8000000003E00
1FF0000000001C00
1FF0000000000C00
3FE0000000000000
3FE0000000000000
3FE0000000000000
7FC0000000000000
7FC0000000000000
7FC0000000000000
7FC0000000000000
7FC0000000000000
FFC0000000000000
FF80000000000000
FF80000000000000
FF80000000000000
FF80000000000000
FF80000000000000
FF80000000000000
FF80000000000000
FF80000000000000
FF80000000000000
FF80000000000000
FF80000000000000
FFC0000000000000
FFC0000000000000
7FC0000000000000
7FC0000000000000
7FC0000000000000
7FE0000000000000
3FE0000000000000
3FE0000000000000
3FF0000000000000
1FF0000000000000
1FF8000000000000
1FF8000000000780
0FFC000000000F80
0FFE000000001F80
07FE000000003F80
03FF000000007F00
03FF80000000FF00
01FFC0000001FE00
00FFF0000007FC00
007FF800000FF800
003FFE00003FF000
001FFFE001FFE000
000FFFFFFFFF8000
0003FFFFFFFF0000
0000FFFFFFFC0000
00003FFFFFF00000
00000FFFFF800000
0000007FF8000000
ENDCHAR
STARTCHAR 0044
ENCODING 68
SWIDTH 720 0
DWIDTH 64 0
BBX 58 64 3 0
BITMAP
FFFFFFFF80000000
FFFFFFFFF8000000
FFFFFFFFFF000000
7FFFFFFFFFC00000
1FFFE07FFFF00000
0FFE0000FFF80000
07FC00001FFE0000
07F8000007FF0000
07F8000001FF8000
07F8000000FFC000
07F80000007FE000
07F80000003FF000
07F80000001FF800
07F80000000FF800
07F800000007FC00
07F800000007FC00
07F800000003FE00
07F800000003FE00
07F800000001FF00
07F800000001FF00
07F800000000FF80
07F800000000FF80
07F800000000FF80
07F800000000FF80
07F8000000007FC0
07F8000000007FC0
07F8000000007FC0
07F8000000007FC0
07F8000000007FC0
07F8000000007FC0
07F8000000007FC0
07F8000000007FC0
07F8000000007FC0
07F8000000007FC0
07F8000000007FC0
07F8000000007FC0
07F8000000007FC0
07F8000000007FC0
07F8000000007FC0
07F800000000FFC0
07F800000000FF80
07F800000000FF80
07F800000000FF80
07F800000001FF80
07F800000001FF00
07F800000001FF00
07F800000003FE00
07F800000003FE00
07F800000007FC00
07F80000000FFC00
07F80000000FF800
07F80000001FF000
07F80000003FF000
07F80000007FE000
07F8000000FFC000
07F8000003FF8000
07FC00000FFF0000
0FFC00003FFC0000
0FFE0001FFF80000
3FFFF1FFFFE00000
7FFFFFFFFF800000
FFFFFFFFFE000000
FFFFFFFFE0000000
7FFFFFFC00000000
ENDCHAR
STARTCHAR 0045
ENCODING 69
SWIDTH 607 0
DWIDTH 54 0
BBX 51 64 3 0
BITMAP
FFFFFFFFFFFC00
FFFFFFFFFFFE00
FFFFFFFFFFFE00
7FFFFFFFFFFE00
1FFFFFFFFFFE00
0FFE000007FF00
07FC000000FF00
07F80000003F00
07F80000001F00
07F80000000F00
07F80000000600
07F80000000000
07F80000000000
07F80000000000
07F80000000000
07F80000000000
07F80000000000
07F80000000000
07F80000000000
07F80000000000
07F80000000000
07F80000000000
07F80000000000
07F80000000000
07F80000038000
07F800000F8000
07F80000FF8000
07FFFFFFFF8000
07FFFFFFFF8000
07FFFFFFFF8000
07FFFFFFFF8000
07FFFFFFFF8000
07F800000F8000
07F80000038000
07F80000000000
07F80000000000
07F80000000000
07F80000000000
07F80000000000
07F80000000000
07F80000000000
07F80000000000
07F80000000000
07F80000000000
07F80000000000
07F80000000000
07F80000000000
07F80000000000
07F80000000000
07F80000000000
07F80000000000
07F80000000000
07F800000001C0
07F800000003E0
07F800000007E0
07F80000000FE0
07F80000001FC0
0FFC000000FFC0
0FFF00000FFFC0
3FFFFFFFFFFFC0
7FFFFFFFFFFFC0
FFFFFFFFFFFF80
FFFFFFFFFFFF80
7FFFFFFFFFFE00
ENDCHAR
STARTCHAR 0046
ENCODING 70
SWIDTH 562 0
DWIDTH 50 0
BBX 48 64 2 0
BITMAP
7FFFFFFFFFF8
7FFFFFFFFFFC
7FFFFFFFFFFE
3FFFFFFFFFFE
0FFFE00FFFFE
07FE00000FFE
03FE000001FE
03FC0000007F
03FC0000001F
03FC0000000E
03FC00000006
03FC00000000
03FC00000000
03FC00000000
03FC00000000
03FC00000000
03FC00000000
03FC00000000
03FC00000000
03FC00000000
03FC00000000
03FC00000000
03FC00000000
03FC00000000
03FC00000000
03FC00000000
03FC00000300
03FC00001F80
03FC0001FF80
03FFFFFFFF80
03FFFFFFFF80
03FFFFFFFF80
03FFFFFFFF80
03FC0003FF80
03FC00001F80
03FC00000780
03FC00000000
03FC00000000
03FC00000000
03FC00000000
03FC00000000
03FC00000000
03FC00000000
03FC00000000
03FC00000000
03FC00000000
03FC00000000
03FC00000000
03FC00000000
03FC00000000
03FC00000000
03FC00000000
03FC00000000
03FC00000000
03FC00000000
03FC00000000
03FC00000000
07FC00000000
07FE00000000
1FFF80000000
7FFFE0000000
FFFFF0000000
FFFFF0000000
7FFFE0000000
ENDCHAR
STARTCHAR 0047
ENCODING 71
SWIDTH 765 0
DWIDTH 68 0
BBX 60 68 3 -2
BITMAP
00000001FC000000
0000007FFFF80000
000003FFFFFF8000
00000FFFFFFFE000
00003FFFFFFFF800
0000FFFC01FFFC00
0003FFC0001FFE00
0007FF000007FF00
000FFC000001FF00
001FF8000000FF80
003FF00000007F80
007FC00000003F80
00FFC00000001F80
01FF800000001F80
01FF000000000F80
03FE000000000780
07FE000000000780
07FC000000000380
0FF8000000000380
0FF8000000000000
1FF0000000000000
1FF0000000000000
3FF0000000000000
3FE0000000000000
3FE0000000000000
7FE0000000000000
7FC0000000000000
7FC0000000000000
7FC0000000000000
7FC0000000000000
FFC0000000000000
FFC0000000000000
FF80000000000000
FF800000001FFE00
FF80000001FFFFE0
FF80000003FFFFF0
FF80000003FFFFF0
FF80000001FFFFF0
FF8000000000FFF0
FFC0000000001FF0
7FC0000000001FF0
7FC0000000000FF0
7FC0000000000FF0
7FC0000000000FF0
7FC0000000000FF0
3FE0000000000FF0
3FE0000000000FF0
3FF0000000000FF0
1FF0000000000FF0
1FF0000000000FF0
1FF8000000000FF0
0FFC000000000FF0
07FC000000000FF0
07FE000000000FF0
03FF000000000FF0
03FF800000001FF0
01FFC00000001FF0
00FFE00000003FF0
007FF00000003FF0
003FF8000000FFE0
001FFE000001FFC0
000FFF800007FF80
0003FFF0003FFE00
0001FFFFFFFFF800
00007FFFFFFFE000
00001FFFFFFF0000
000003FFFFF80000
0000000FFE000000
ENDCHAR
STARTCHAR 0048
ENCODING 72
SWIDTH 765 0
DWIDTH 68 0
BBX 63 64 3 0
BITMAP
FFFFC0000007FFFC
FFFFC000000FFFFE
FFFFC0000007FFFC
7FFF80000003FFF8
1FFE00000001FFF0
0FFC000000007FE0
07F8000000007FC0
07F8000000003FC0
07F8000000003FC0
07F8000000003FC0
07F8000000003FC0
07F8000000003FC0
07F8000000003FC0
07F8000000003FC0
07F8000000003FC0
07F8000000003FC0
07F8000000003FC0
07F8000000003FC0
07F8000000003FC0
07F8000000003FC0
07F8000000003FC0
07F8000000003FC0
07F8000000003FC0
07F8000000003FC0
07F8000000003FC0
07F8000000003FC0
07FFFFFFFFFFFFC0
07FFFFFFFFFFFFC0
07FFFFFFFFFFFFC0
07FFFFFFFFFFFFC0
07FFFFFFFFFFFFC0
07F8000000003FC0
07F8000000003FC0
07F8000000003FC0
07F8000000003FC0
07F8000000003FC0
07F8000000003FC0
07F8000000003FC0
07F8000000003FC0
07F8000000003FC0
07F8000000003FC0
07F8000000003FC0
07F8000000003FC0
07F8000000003FC0
07F8000000003FC0
07F8000000003FC0
07F8000000003FC0
07F8000000003FC0
07F8000000003FC0
07F8000000003FC0
07F8000000003FC0
07F8000000003FC0
07F8000000003FC0
07F8000000003FC0
07F8000000003FC0
07F8000000003FC0
07F8000000007FC0
0FF8000000007FC0
0FFC000000007FE0
3FFF00000001FFF0
7FFF80000007FFFC
FFFFC0000007FFFE
FFFFC0000007FFFE
7FFF80000007FFFC
ENDCHAR
STARTCHAR 0049
ENCODING 73
SWIDTH 270 0
DWIDTH 24 0
BBX 18 64 3 0
BITMAP
7FFFC0
FFFFC0
FFFFC0
7FFF80
1FFF00
0FFC00
07FC00
07F800
07F800
07F800
07F800
07F800
07F800
07F800
07F800
07F800
07F800
07F800
07F800
07F800
07F800
07F800
07F800
07F800
07F800
07F800
07F800
07F800
07F800
07F800
07F800
07F800
07F800
07F800
07F800
07F800
07F800
07F800
07F800
07F800
07F800
07F800
07F800
07F800
07F800
07F800
07F800
07F800
07F800
07F800
07F800
07F800
07F800
07F800
07F800
07F800
07F800
07FC00
0FFC00
1FFF00
7FFF80
FFFFC0
FFFFC0
7FFFC0
ENDCHAR
STARTCHAR 004A
ENCODING 74
SWIDTH 450 0
DWIDTH 40 0
BBX 38 66 0 -2
BITMAP
00001FFFF8
00001FFFFC
00001FFFFC
00000FFFF8
000001FFE0
000000FFC0
0000007F80
0000007F80
0000007F80
0000007F80
0000007F80
0000007F80
0000007F80
0000007F80
0000007F80
0000007F80
0000007F80
0000007F80
0000007F80
0000007F80
0000007F80
0000007F80
0000007F80
0000007F80
0000007F80
0000007F80
0000007F80
0000007F80
0000007F80
0000007F80
0000007F80
0000007F80
0000007F80
0000007F80
0000007F80
0000007F80
0000007F80
0000007F80
0000007F80
0000007F80
0000007F80
0080007F80
0FF0007F80
1FF8007F80
3FF8007F80
7FF8007F80
7FF8007F80
FFF0007F80
FF80007F80
FE00007F80
FC00007F80
F800007F80
F800007F80
F800007F80
F800007F00
F80000FF00
FC0000FF00
FC0001FE00
7E0003FE00
7F8007FC00
3FE00FFC00
1FFFFFF800
0FFFFFF000
07FFFFC000
01FFFF0000
001FF80000
ENDCHAR
STARTCHAR 004B
ENCODING 75
SWIDTH 618 0
DWIDTH 55 0
BBX 55 64 3 0
BITMAP
FFFFC0003FFFE0
FFFFC0007FFFF0
FFFFC0007FFFE0
7FFF80003FFFC0
1FFE00000FFF80
0FFC000007FE00
07F8000007FC00
07F8000007F800
07F8000007F000
07F800000FE000
07F800001FC000
07F800001FC000
07F800003F8000
07F800007F0000
07F80000FE0000
07F80001FC0000
07F80003F80000
07F80007F00000
07F8000FE00000
07F8000FC00000
07F8001FC00000
07F8003F800000
07F8007F000000
07F800FE000000
07F801FC000000
07F803F8000000
07F807FC000000
07F80FFE000000
07F81FFF000000
07F87FFF800000
07F8FFFF800000
07F9FEFFC00000
07FBFC7FE00000
07FFF83FF00000
07FFF01FF80000
07FFE00FF80000
07FF8007FC0000
07FF0007FE0000
07FE0003FF0000
07FC0001FF0000
07F80000FF8000
07F800007FC000
07F800007FC000
07F800003FE000
07F800001FE000
07F800001FF000
07F800000FF800
07F8000007F800
07F8000007FC00
07F8000003FC00
07F8000003FE00
07F8000001FE00
07F8000001FF00
07F8000000FF00
07F8000000FF80
07F8000000FF80
07F80000007FC0
0FF80000007FC0
0FFC0000007FE0
3FFF000001FFF8
7FFF800003FFFC
FFFFC00007FFFE
FFFFC00007FFFC
7FFF800003FFF8
ENDCHAR
STARTCHAR 004C
ENCODING 76
SWIDTH 573 0
DWIDTH 51 0
BBX 49 64 3 0
BITMAP
FFFFC000000000
FFFFE000000000
FFFFC000000000
7FFF8000000000
1FFE0000000000
0FFC0000000000
07F80000000000
07F80000000000
07F80000000000
07F80000000000
07F80000000000
07F80000000000
07F80000000000
07F80000000000
07F80000000000
07F80000000000
07F80000000000
07F80000000000
07F80000000000
07F80000000000
07F80000000000
07F80000000000
07F80000000000
07F80000000000
07F80000000000
07F80000000000
07F80000000000
07F80000000000
07F80000000000
07F80000000000
07F80000000000
07F80000000000
07F80000000000
07F80000000000
07F80000000000
07F80000000000
07F80000000000
07F80000000000
07F80000000000
07F80000000000
07F80000000000
07F80000000000
07F80000000000
07F80000000000
07F80000000000
07F80000000000
07F80000000000
07F80000000000
07F80000000000
07F80000000000
07F80000000000
07F80000000000
07F80000000000
07F80000000380
07F80000000780
07F80000001F80
07F80000003F80
0FFC000001FF80
0FFE00001FFF80
3FFFFFFFFFFF80
7FFFFFFFFFFF80
FFFFFFFFFFFF00
FFFFFFFFFFFF00
7FFFFFFFFFFE00
ENDCHAR
STARTCHAR 004D
ENCODING 77
SWIDTH 821 0
DWIDTH 73 0
BBX 70 64 1 0
BITMAP
3FFF8000000001FFF8
7FFF8000000003FFFC
7FFFC000000003FFFC
3FFFC000000007FFFC
07FFE000000007FFF0
01FFE00000000FFF80
01FFE00000000FFF00
01FFF00000000FFF00
00FFF00000001FFF00
00FFF80000001FFF00
01FFF80000001FFF00
01FBF80000003FFF00
01FBFC0000003EFF00
01F9FC0000007EFF00
01F9FE0000007EFF00
01F9FE0000007CFF00
01F8FE000000FCFF00
01F8FF000000FCFF00
01F87F000001F8FF00
01F87F800001F8FF00
01F87F800003F0FF00
01F83FC00003F0FF00
01F83FC00003E0FF00
01F81FC00007E0FF00
01F81FE00007E0FF00
01F80FE0000FC0FF00
01F80FF0000FC0FF00
01F80FF0001F80FF00
01F807F8001F80FF00
01F807F8003F00FF00
01F803F8003F00FF00
01F803FC007F00FF00
01F803FC007E00FF00
01F801FE00FE00FF00
01F801FE00FC00FF00
01F800FF01FC00FF00
01F800FF01F800FF00
01F8007F83F800FF00
01F8007F83F000FF00
01F8003FC7F000FF00
01F8003FC7E000FF00
01F8003FCFE000FF00
03F8001FEFC000FF00
03F8001FFFC000FF00
03F8000FFF8000FF00
03F0000FFF8000FF00
03F00007FF8000FF00
03F00007FF00007F00
03F00003FF00007F00
03F00003FE00007F00
03F00001FE00007F00
03F00001FC00007F00
03F00000FC00007F00
03F00000F800007F00
03F000007000007F80
03F000002000007F80
03F000000000007F80
03F80000000000FF80
07F80000000000FFC0
0FFE0000000001FFE0
7FFF8000000007FFF8
FFFFC00000001FFFFC
FFFFC00000001FFFFC
7FFF800000000FFFFC
ENDCHAR
STARTCHAR 004E
ENCODING 78
SWIDTH 720 0
DWIDTH 64 0
BBX 63 65 0 -1
BITMAP
7FFF00000003FFFC
FFFF80000003FFFE
FFFFC0000003FFFC
7FFFE0000000FFF8
0FFFF00000003FE0
03FFF80000001FC0
01FFF80000000FC0
01FFFC0000000F80
01FFFE0000000F80
01FBFF0000000F80
01F9FF8000000F80
01F9FFC000000F80
01F8FFC000000F80
01F87FE000000F80
01F83FF000000F80
01F81FF800000F80
01F80FFC00000F80
01F807FC00000F80
01F807FE00000F80
01F803FF00000F80
01F801FF80000F80
01F800FF80000F80
01F8007FC0000F80
01F8003FE0000F80
01F8003FF0000F80
01F8001FF0000F80
01F8000FF8000F80
01F80007FC000F80
01F80007FE000F80
01F80003FE000F80
01F80001FF000F80
01F80000FF800F80
01F80000FFC00F80
01F800007FC00F80
01F800003FE00F80
01F800001FF00F80
01F800001FF00F80
01F800000FF80F80
01F8000007FC0F80
01F8000003FE0F80
01F8000003FE0F80
01F8000001FF0F80
01F8000000FF8F80
01F8000000FF8F80
01F80000007FCF80
01F80000003FEF80
01F80000003FEF80
01F80000001FFF80
01F80000000FFF80
01F80000000FFF80
01F800000007FF80
01F800000003FF80
01F800000003FF80
01F800000001FF80
01F800000000FF80
01FC00000000FF80
01FC000000007F80
01FC000000003F80
03FE000000003F80
0FFF800000001F80
3FFFF00000001F80
7FFFF80000000F80
7FFFF80000000780
7FFFF00000000380
0000000000000180
ENDCHAR
STARTCHAR 004F
ENCODING 79
SWIDTH 765 0
DWIDTH 68 0
BBX 62 68 3 -2
BITMAP
0000000740000000
000001FFFF000000
00000FFFFFE00000
00007FFFFFF80000
0000FFFFFFFE0000
0003FFF87FFF0000
0007FF0003FFC000
001FFC00007FE000
003FF000003FF000
007FC000000FF800
00FF80000007FC00
01FF00000003FE00
01FE00000001FF00
03FE00000000FF00
07FC00000000FF80
07F8000000007FC0
0FF8000000007FC0
0FF0000000003FE0
1FF0000000003FE0
1FF0000000001FF0
3FE0000000001FF0
3FE0000000001FF0
3FE0000000000FF8
7FC0000000000FF8
7FC0000000000FF8
7FC0000000000FF8
7FC00000000007FC
7FC00000000007FC
FF800000000007FC
FF800000000007FC
FF800000000007FC
FF800000000007FC
FF800000000007FC
FF800000000007FC
FF800000000007FC
FF800000000007FC
FF800000000007FC
FF800000000007FC
FF800000000007FC
FF800000000007FC
7FC00000000007FC
7FC00000000007FC
7FC0000000000FF8
7FC0000000000FF8
7FC0000000000FF8
3FE0000000000FF8
3FE0000000001FF0
3FE0000000001FF0
1FE0000000001FF0
1FF0000000003FE0
0FF0000000003FE0
0FF8000000007FC0
07F8000000007FC0
07FC00000000FF80
03FE00000000FF80
03FE00000001FF00
01FF00000003FE00
00FF80000007FC00
007FC000000FF800
003FE000001FF000
001FF800007FE000
000FFE0001FFC000
0007FFC00FFF8000
0001FFFFFFFE0000
00007FFFFFF80000
00001FFFFFE00000
000007FFFF000000
0000003FF0000000
ENDCHAR
STARTCHAR 0050
ENCODING 80
SWIDTH 596 0
DWIDTH 53 0
BBX 49 64 3 0
BITMAP
FFFFFFFF800000
FFFFFFFFF80000
FFFFFFFFFF0000
7FFFFFFFFFC000
1FFFF9FFFFF000
0FFF0001FFF800
07FC00003FFC00
07FC00001FFE00
07F8000007FE00
07F8000003FF00
07F8000001FF00
07F8000001FF80
07F8000000FF80
07F8000000FF80
07F8000000FF80
07F80000007F80
07F80000007F80
07F80000007F80
07F80000007F80
07F8000000FF80
07F8000000FF80
07F8000000FF80
07F8000000FF80
07F8000001FF00
07F8000001FF00
07F8000003FE00
07F8000007FE00
07F800000FFC00
07F800001FF800
07F800007FF000
07F80001FFE000
07F80007FFC000
07F8003FFF8000
07F807FFFE0000
07FFFFFFF80000
07FFFFFFC00000
07FFFFFE000000
07FFFFF0000000
07FFF800000000
07F80000000000
07F80000000000
07F80000000000
07F80000000000
07F80000000000
07F80000000000
07F80000000000
07F80000000000
07F80000000000
07F80000000000
07F80000000000
07F80000000000
07F80000000000
07F80000000000
07F80000000000
07F80000000000
07F80000000000
07F80000000000
0FF80000000000
0FFC0000000000
3FFF0000000000
7FFFC000000000
FFFFE000000000
FFFFE000000000
7FFFC000000000
ENDCHAR
STARTCHAR 0051
ENCODING 81
SWIDTH 765 0
DWIDTH 68 0
BBX 62 79 3 -13
BITMAP
0000000740000000
000001FFFF000000
00000FFFFFE00000
00007FFFFFF80000
0001FFFFFFFE0000
0003FFF87FFF0000
000FFF0003FFC000
001FFC00007FE000
003FF000003FF000
007FC000000FF800
00FF80000007FC00
01FF00000003FE00
01FE00000001FF00
03FE00000000FF00
07FC00000000FF80
07F8000000007FC0
0FF8000000007FC0
0FF0000000003FE0
1FF0000000003FE0
1FF0000000001FE0
3FE0000000001FF0
3FE0000000001FF0
3FE0000000000FF8
7FC0000000000FF8
7FC0000000000FF8
7FC0000000000FF8
7FC00000000007F8
7FC00000000007FC
FF800000000007FC
FF800000000007FC
FF800000000007FC
FF800000000007FC
FF800000000007FC
FF800000000007FC
FF800000000007FC
FF800000000007FC
FF800000000007FC
FF800000000007FC
FF800000000007FC
FF800000000007FC
7FC00000000007FC
7FC00000000007FC
7FC0000000000FF8
7FC0000000000FF8
7FC0000000000FF8
3FE0000000000FF8
3FE0000000001FF0
3FE0000000001FF0
3FE0000000001FF0
1FF0000000003FE0
1FF0000380003FE0
0FF80003C0007FC0
0FF80003C0007FC0
07FC0003C000FF80
03FE0003C000FF00
03FE0003E001FF00
01FF0003E003FE00
00FF8001E007FC00
007FC001E00FF800
003FE001F01FF000
001FF801F07FE000
000FFE00F9FFC000
0007FFC0FFFF8000
0001FFFFFFFE0000
00007FFFFFF80000
00001FFFFFE00000
000003FFFF800000
0000001FFFC00000
000000000FE00000
000000000FF80000
0000000007FE0000
0000000003FFFFE0
0000000001FFFFF8
0000000000FFFFF8
00000000003FFFFC
00000000001FFFF8
000000000007FFF8
000000000001FFF0
0000000000001FC0
ENDCHAR
STARTCHAR 0052
ENCODING 82
SWIDTH 641 0
DWIDTH 57 0
BBX 55 64 3 0
BITMAP
FFFFFFFFF00000
FFFFFFFFFF0000
FFFFFFFFFFE000
7FFFFFFFFFF800
1FFFFFFFFFFC00
0FFE0001FFFE00
07FC00001FFF00
07F8000007FF80
07F8000003FF80
07F8000001FF80
07F8000000FFC0
07F8000000FFC0
07F80000007FC0
07F80000007FC0
07F80000007FC0
07F80000007FC0
07F80000007FC0
07F80000007FC0
07F80000007FC0
07F8000000FF80
07F8000000FF80
07F8000001FF00
07F8000003FF00
07F8000007FE00
07F800000FFE00
07F800001FFC00
07F800007FF800
07F80003FFE000
07F8001FFFC000
07F800FFFF0000
07F83FFFFC0000
07FFFFFFF00000
07FFFFFFF00000
07FFFFFFF80000
07FFFFCFFC0000
07FFF007FC0000
07F80007FE0000
07F80003FE0000
07F80001FF0000
07F80000FF8000
07F80000FF8000
07F800007FC000
07F800003FC000
07F800003FE000
07F800001FE000
07F800000FF000
07F800000FF000
07F8000007F800
07F8000007F800
07F8000003FC00
07F8000003FC00
07F8000001FE00
07F8000001FE00
07F8000001FF00
07F8000000FF00
07F8000000FF80
07F8000000FF80
0FF8000000FFC0
0FFC000000FFE0
3FFF000001FFF0
7FFFC00007FFF8
FFFFE0000FFFFC
FFFFE0000FFFFE
7FFFC0000FFFFC
ENDCHAR
STARTCHAR 0053
ENCODING 83
SWIDTH 573 0
DWIDTH 51 0
BBX 48 68 1 -2
BITMAP
000001A00000
0000FFFF8000
0007FFFFF800
001FFFFFFE00
003FFFFFFF00
007FC00FFFC0
00FE0003FFC0
01FC0000FFE0
03F800003FE0
07F000001FE0
07E000000FE0
0FE0000007E0
0FE0000003E0
0FC0000001E0
1FC0000000E0
1FC000000040
1FC000000000
1FC000000000
1FC000000000
1FE000000000
1FE000000000
1FF000000000
1FF000000000
1FF800000000
0FFE00000000
0FFF00000000
07FFE0000000
07FFFC000000
03FFFFE00000
01FFFFFF0000
00FFFFFFF000
007FFFFFFE00
003FFFFFFF00
000FFFFFFFC0
0001FFFFFFE0
00001FFFFFF0
000000FFFFF8
00000007FFFC
00000000FFFC
000000001FFE
0000000007FE
0000000003FE
0000000001FE
0000000000FF
0000000000FF
00000000007F
00000000007F
00000000007F
00000000007F
70000000007F
F8000000007F
FC000000007E
FC000000007E
FE00000000FE
7E00000000FC
7F00000001FC
3F80000001FC
3FC0000003F8
1FE0000007F0
0FF000000FF0
07FC00003FE0
03FF0000FFC0
01FFF00FFF80
00FFFFFFFE00
003FFFFFFC00
000FFFFFF000
0003FFFF8000
00001FF80000
ENDCHAR
STARTCHAR 0054
ENCODING 84
SWIDTH 596 0
DWIDTH 53 0
BBX 52 64 0 0
BITMAP
3FFFFFFFFFFFC0
3FFFFFFFFFFFE0
7FFFFFFFFFFFE0
7FFFFFFFFFFFF0
7FFFDFFFDFFFF0
7FF003FE007FF0
7FC003FE001FF0
7F0003FC0007F0
FE0003FC0003F0
FC0003FC0001F0
F80003FC0000F0
600003FC000030
000003FC000000
000003FC000000
000003FC000000
000003FC000000
000003FC000000
000003FC000000
000003FC000000
000003FC000000
000003FC000000
000003FC000000
000003FC000000
000003FC000000
000003FC000000
000003FC000000
000003FC000000
000003FC000000
000003FC000000
000003FC000000
000003FC000000
000003FC000000
000003FC000000
000003FC000000
000003FC000000
000003FC000000
000003FC000000
000003FC000000
000003FC000000
000003FC000000
000003FC000000
000003FC000000
000003FC000000
000003FC000000
000003FC000000
000003FC000000
000003FC000000
000003FC000000
000003FC000000
000003FC000000
000003FC000000
000003FC000000
000003FC000000
000003FC000000
000003FC000000
000003FC000000
000003FC000000
000003FE000000
000003FE000000
00000FFF800000
00003FFFE00000
00007FFFF00000
00007FFFF00000
00003FFFE00000
ENDCHAR
STARTCHAR 0055
ENCODING 85
SWIDTH 708 0
DWIDTH 63 0
BBX 58 66 2 -2
BITMAP
7FFFC000007FFFC0
FFFFE000007FFFC0
FFFFE000007FFFC0
7FFFC000003FFF80
3FFF8000001FFF00
0FFE00000007FC00
07FC00000003FC00
07FC00000001FC00
07FC00000001FC00
07F800000001FC00
07F800000000FC00
07F800000000FC00
07F800000000FC00
07F800000000FC00
07F800000000FC00
0FF000000000FC00
0FF000000000FC00
0FF000000000FC00
0FF000000000FC00
0FF000000000FC00
0FF000000000FC00
0FF000000000FC00
0FF000000000FC00
0FF000000000FC00
0FF000000000FC00
0FF000000000FC00
0FF000000000FC00
0FF000000000FE00
0FF000000000FE00
0FE000000000FE00
0FE000000000FE00
0FE000000000FE00
0FE000000000FE00
0FE000000000FE00
0FE000000000FE00
0FE000000000FE00
0FE000000000FE00
0FE000000000FE00
0FE000000000FE00
0FE000000000FE00
0FF000000000FE00
0FF000000000FE00
0FF000000000FE00
0FF000000000FE00
0FF000000000FC00
0FF000000000FC00
07F000000000FC00
07F000000001FC00
07F800000001FC00
07F800000001F800
07F800000003F800
03FC00000003F800
03FC00000007F000
01FE00000007F000
01FF0000000FE000
00FF8000001FE000
00FFC000003FC000
007FE000007F8000
003FF80001FF0000
003FFE0007FE0000
000FFFF9FFFC0000
0007FFFFFFF80000
0003FFFFFFF00000
0000FFFFFFC00000
00001FFFFE000000
000000FF80000000
ENDCHAR
STARTCHAR 0056
ENCODING 86
SWIDTH 652 0
DWIDTH 58 0
BBX 58 66 0 -2
BITMAP
FFFF0000003FFFC0
FFFF8000003FFFC0
FFFF0000003FFFC0
7FFE0000001FFF80
3FFC00000007FF00
3FF800000001FF00
1FF000000001FE00
1FF000000001FE00
1FF000000001FC00
0FF000000001FC00
0FF000000001FC00
0FF000000001FC00
0FF000000001F800
07F800000001F800
07F800000003F800
07F800000003F000
07F800000003F000
03FC00000003F000
03FC00000007F000
03FC00000007E000
01FC00000007E000
01FE0000000FE000
01FE0000000FC000
00FE0000000FC000
00FF0000001FC000
00FF0000001F8000
00FF0000001F8000
007F8000003F8000
007F8000003F0000
007F8000003F0000
003FC000007F0000
003FC000007E0000
001FE000007E0000
001FE00000FE0000
001FE00000FC0000
000FF00000FC0000
000FF00001F80000
000FF80001F80000
0007F80003F80000
0007F80003F00000
0003FC0007F00000
0003FC0007E00000
0003FE0007E00000
0001FE000FE00000
0001FF000FC00000
0000FF001FC00000
0000FF801F800000
00007F803F800000
00007FC03F000000
00003FC07F000000
00003FE07E000000
00003FE0FE000000
00001FF1FC000000
00001FF1FC000000
00000FFBF8000000
00000FFFF8000000
000007FFF0000000
000003FFF0000000
000003FFE0000000
000001FFE0000000
000001FFC0000000
000000FF80000000
0000007F80000000
0000007F00000000
0000003E00000000
0000001C00000000
ENDCHAR
STARTCHAR 0057
ENCODING 87
SWIDTH 922 0
DWIDTH 82 0
BBX 82 66 0 -2
BITMAP
7FFF80003FFFC0003FFF80
FFFFC0007FFFC0003FFFC0
FFFF80007FFFC0003FFFC0
7FFF00003FFF80001FFF80
3FFC00000FFF000007FF00
1FF8000007FC000001FE00
0FF0000003FC000001FC00
0FF0000003F8000000FC00
0FF0000003F8000000F800
0FF0000003F8000000F800
0FF0000003F8000000F800
07F0000003F8000001F800
07F0000007F8000001F800
07F0000007FC000001F000
07F8000007FC000001F000
07F8000007FC000001F000
03F8000007FC000001F000
03F800000FFC000003F000
03F800000FFE000003E000
03FC00000FFE000003E000
01FC00000FFE000003E000
01FC00001FFE000003E000
01FC00001FFF000007E000
01FE00001FFF000007C000
01FE00001F7F000007C000
00FE00003F7F800007C000
00FE00003F7F80000FC000
00FF00003E3F80000F8000
00FF00007E3FC0000F8000
007F00007E3FC0000F8000
007F00007C3FC0001F8000
007F8000FC1FE0001F0000
007F8000FC1FE0001F0000
003F8000F81FE0003F0000
003FC001F80FF0003F0000
003FC001F80FF0003E0000
003FC001F80FF0003E0000
001FC003F007F8007E0000
001FE003F007F8007E0000
001FE003E007F8007C0000
000FE007E003FC00FC0000
000FF007E003FC00FC0000
000FF00FE001FE00F80000
000FF00FC001FE01F80000
0007F80FC001FF01F80000
0007F81F8000FF01F00000
0007F81F8000FF03F00000
0003FC3F8000FF83F00000
0003FC3F00007F83F00000
0003FC3F00007FC7E00000
0003FE7F00003FC7E00000
0001FE7E00003FEFC00000
0001FEFE00003FEFC00000
0001FFFE00001FFFC00000
0000FFFC00001FFF800000
0000FFFC00000FFF800000
0000FFF800000FFF800000
00007FF8000007FF000000
00007FF0000007FF000000
00003FF0000003FE000000
00003FE0000003FE000000
00003FE0000001FE000000
00001FC0000001FC000000
00000FC0000000F8000000
00000F8000000078000000
0000070000000030000000
ENDCHAR
STARTCHAR 0058
ENCODING 88
SWIDTH 652 0
DWIDTH 58 0
BBX 58 64 1 0
BITMAP
7FFFC00007FFF800
7FFFE00007FFFC00
7FFFC00007FFF800
3FFF800001FFF000
0FFF0000007FC000
07FE0000007F8000
03FE0000007F8000
03FE0000007F0000
01FF0000007E0000
01FF000000FE0000
00FF800000FC0000
007F800001F80000
007FC00001F80000
003FE00003F00000
001FE00007E00000
001FF00007E00000
000FF8000FC00000
000FF8001F800000
0007FC001F000000
0003FE003F000000
0001FF007E000000
0001FF80FC000000
0000FF81F8000000
00007FC1F8000000
00007FE3F0000000
00003FF7E0000000
00001FFFC0000000
00000FFFC0000000
00000FFF80000000
000007FF00000000
000003FF00000000
000001FF80000000
000001FFC0000000
000003FFE0000000
000003FFF0000000
000007FFF8000000
00000FCFF8000000
00001FCFFC000000
00001F87FE000000
00003F03FF000000
00007E01FF800000
00007E00FF800000
0000FC007FC00000
0001F8003FE00000
0003F8001FF00000
0003F0001FF00000
0007E0000FF80000
000FE00007FC0000
000FC00003FC0000
001FC00003FE0000
003F800001FF0000
003F000000FF0000
007F000000FF8000
00FE0000007FC000
00FE0000007FC000
01FC0000003FE000
03FC0000003FF000
03FC0000003FF000
07FC0000001FF800
1FFC0000003FFE00
3FFE0000007FFF80
7FFF800000FFFFC0
FFFF800000FFFFC0
7FFF800000FFFF80
ENDCHAR
STARTCHAR 0059
ENCODING 89
SWIDTH 652 0
DWIDTH 58 0
BBX 60 64 -2 0
BITMAP
7FFFE0000007FFF0
FFFFE000000FFFF0
7FFFE000000FFFF0
7FFFC0000007FFE0
1FFF00000001FFC0
07FE00000000FF80
03FE000000007F00
03FE000000007F00
01FF00000000FE00
00FF00000000FC00
00FF80000000FC00
007F80000001F800
007FC0000001F000
003FE0000003F000
001FE0000007E000
001FF0000007C000
000FF800000FC000
000FF800000F8000
0007FC00001F0000
0003FE00003F0000
0003FE00003E0000
0001FF00007C0000
0000FF8000FC0000
0000FFC000F80000
00007FC001F00000
00003FE003F00000
00001FF007E00000
00001FF007C00000
00000FF80FC00000
000007FC1F800000
000003FE3F000000
000003FF3E000000
000001FF7E000000
000000FFFC000000
0000007FF8000000
0000007FF8000000
0000003FF0000000
0000003FE0000000
0000001FE0000000
0000001FE0000000
0000001FE0000000
0000001FE0000000
0000001FE0000000
0000001FE0000000
0000001FE0000000
0000001FE0000000
0000001FE0000000
0000001FE0000000
0000001FE0000000
0000001FE0000000
0000001FE0000000
0000001FE0000000
0000001FE0000000
0000001FE0000000
0000001FE0000000
0000001FE0000000
0000001FE0000000
0000001FF0000000
0000003FF0000000
000000FFFC000000
000001FFFE000000
000003FFFF000000
000003FFFF000000
000001FFFE000000
ENDCHAR
STARTCHAR 005A
ENCODING 90
SWIDTH 540 0
DWIDTH 48 0
BBX 46 64 1 0
BITMAP
07FFFFFFFFF8
07FFFFFFFFF8
0FFFFFFFFFF8
0FFFFFFFFFF8
0FFFE0003FF8
0FFC00000FF8
0FF000000FF8
0FE000001FF0
0F8000001FF0
0F0000003FE0
0E0000003FC0
040000007FC0
000000007F80
00000000FF80
00000001FF00
00000001FE00
00000003FE00
00000007FC00
0000000FF800
0000000FF800
0000001FF000
0000003FE000
0000003FC000
0000007FC000
000000FF8000
000001FF0000
000001FF0000
000003FE0000
000007FC0000
00000FF80000
00000FF80000
00001FF00000
00003FE00000
00007FC00000
00007FC00000
0000FF800000
0001FF000000
0003FE000000
0003FE000000
0007FC000000
000FF8000000
001FF0000000
001FF0000000
003FE0000000
007FC0000000
00FFC0000000
00FF80000000
01FF00000000
03FF00000000
03FE00000000
07FC00000000
0FFC0000000C
0FF80000001C
1FF00000003C
1FF00000007C
3FE0000000FC
3FE0000003FC
7FC000000FFC
7FC00000FFFC
FFFFFFFFFFFC
FFFFFFFFFFFC
FFFFFFFFFFF8
7FFFFFFFFFF8
3FFFFFFFFFF8
ENDCHAR
STARTCHAR 005B
ENCODING 91
SWIDTH 326 0
DWIDTH 29 0
BBX 15 77 9 -13
BITMAP
FFFE
FFFE
FFFE
FFFE
FFFC
FC00
FC00
FC00
FC00
FC00
FC00
FC00
FC00
FC00
FC00
FC00
FC00
FC00
FC00
FC00
FC00
FC00
FC00
FC00
FC00
FC00
FC00
FC00
FC00
FC00
FC00
FC00
FC00
FC00
FC00
FC00
FC00
FC00
FC00
FC00
FC00
FC00
FC00
FC00
FC00
FC00
FC00
FC00
FC00
FC00
FC00
FC00
FC00
FC00
FC00
FC00
FC00
FC00
FC00
FC00
FC00
FC00
FC00
FC00
FC00
FC00
FC00
FC00
FC00
FC00
FC00
FC00
FFFC
FFFE
FFFE
FFFE
FFFE
ENDCHAR
STARTCHAR 005C
ENCODING 92
SWIDTH 258 0
DWIDTH 23 0
BBX 26 74 -2 -8
BITMAP
60000000
E0000000
F0000000
F0000000
78000000
78000000
78000000
38000000
3C000000
3C000000
1C000000
1E000000
1E000000
0E000000
0F000000
0F000000
0F000000
07800000
07800000
07800000
03C00000
03C00000
03C00000
01C00000
01E00000
01E00000
00E00000
00F00000
00F00000
00700000
00780000
00780000
00780000
003C0000
003C0000
003C0000
001E0000
001E0000
001E0000
000E0000
000F0000
000F0000
00070000
00078000
00078000
00038000
0003C000
0003C000
0001C000
0001E000
0001E000
0001E000
0000F000
0000F000
0000F000
00007000
00007800
00007800
00003800
00003C00
00003C00
00001C00
00001E00
00001E00
00000E00
00000F00
00000F00
00000F00
00000780
00000780
00000780
00000380
000003C0
000001C0
ENDCHAR
STARTCHAR 005D
ENCODING 93
SWIDTH 326 0
DWIDTH 29 0
BBX 16 77 5 -13
BITMAP
7FFE
FFFF
FFFF
FFFF
7FFF
007F
007F
007F
007F
007F
007F
007F
007F
007F
007F
007F
007F
007F
007F
007F
007F
007F
007F
007F
007F
007F
007F
007F
007F
007F
007F
007F
007F
007F
007F
007F
007F
007F
007F
007F
007F
007F
007F
007F
007F
007F
007F
007F
007F
007F
007F
007F
007F
007F
007F
007F
007F
007F
007F
007F
007F
007F
007F
007F
007F
007F
007F
007F
007F
007F
007F
007F
7FFF
FFFF
FFFF
FFFF
7FFE
ENDCHAR
STARTCHAR 005E
ENCODING 94
SWIDTH 990 0
DWIDTH 88 0
BBX 52 24 18 39
BITMAP
000003FE000000
000007FF000000
00000FFF800000
00001FFFC00000
00003FFFE00000
00007FDFF00000
0000FF8FF80000
0001FF07FC0000
0003FC03FE0000
0007F800FE0000
000FF0007F0000
001FE0003F8000
001FC0001FC000
003F00000FE000
007E000007F000
00FC000001F800
01F8000000FC00
03F00000007E00
07C00000003F00
0F800000001F80
1F0000000007C0
3E0000000003C0
7C0000000001E0
F00000000000F0
ENDCHAR
STARTCHAR 005F
ENCODING 95
SWIDTH 495 0
DWIDTH 44 0
BBX 44 5 0 -21
BITMAP
FFFFFFFFFFF0
FFFFFFFFFFF0
FFFFFFFFFFF0
FFFFFFFFFFF0
FFFFFFFFFFF0
ENDCHAR
STARTCHAR 0060
ENCODING 96
SWIDTH 495 0
DWIDTH 44 0
BBX 19 16 10 47
BITMAP
100000
7C0000
FE0000
FF0000
FF8000
7FC000
3FE000
1FF000
07F800
01FC00
00FE00
003F00
001F00
000780
0001C0
0000E0
ENDCHAR
STARTCHAR 0061
ENCODING 97
SWIDTH 652 0
DWIDTH 58 0
BBX 60 66 -1 0
BITMAP
0000000400000000
0000000E00000000
0000001F00000000
0000001F80000000
0000003FC0000000
0000003FC0000000
0000007FE0000000
000000FFF0000000
000000FFF0000000
000001FFF8000000
000001FFF8000000
000003FFFC000000
000003F3FC000000
000007F3FE000000
000007E1FE000000
00000FE1FF000000
00000FC0FF000000
00000FC0FF800000
00001F807F800000
00001F807FC00000
00003F003FC00000
00003F003FC00000
00007E003FE00000
00007E001FE00000
00007E001FF00000
0000FC000FF00000
0000FC000FF80000
0001F80007F80000
0001F80007F80000
0001F80007FC0000
0003F00003FC0000
0003F00003FE0000
0007E00001FE0000
0007E00001FE0000
0007E00001FF0000
000FC00000FF0000
000FC00000FF0000
001F800000FF8000
001F8000007F8000
001FFFFFFFFFC000
003FFFFFFFFFC000
003FFFFFFFFFC000
003FFFFFFFFFE000
007FFFFFFFFFE000
007E0000001FE000
00FE0000001FF000
00FC0000000FF000
00FC0000000FF000
01FC0000000FF800
01F800000007F800
01F800000007F800
03F800000003FC00
03F000000003FC00
03F000000003FC00
07F000000003FC00
07F000000001FE00
07F000000001FE00
0FE000000001FE00
0FE000000001FF00
1FF000000001FF00
1FF000000001FF80
3FFC00000007FFC0
7FFE0000000FFFE0
FFFF0000001FFFF0
FFFF0000001FFFF0
7FFE0000000FFFE0
ENDCHAR
STARTCHAR 0062
ENCODING 98
SWIDTH 652 0
DWIDTH 58 0
BBX 54 64 3 0
BITMAP
FFFFFFFFF80000
FFFFFFFFFF8000
FFFFFFFFFFE000
7FFFFFFFFFF000
1FFFFFFFFFFC00
0FFE00007FFC00
07FC00000FFE00
07F8000003FF00
07F8000001FF00
07F8000001FF80
07F8000000FF80
07F8000000FF80
07F80000007F80
07F80000007F80
07F80000007F80
07F80000007F80
07F8000000FF80
07F8000000FF80
07F8000000FF00
07F8000001FF00
07F8000003FE00
07F8000007FE00
07F800000FFC00
07F800001FF800
07F800007FF000
07F80000FFC000
07F80007FF8000
07F8001FFE0000
07F801FFF80000
07F81FFFF80000
07FBFFFFFF8000
07FFFFFFFFF000
07FFFFE1FFF800
07FFFE003FFE00
07FFE00007FF00
07F8000003FF80
07F8000000FFC0
07F80000007FE0
07F80000003FE0
07F80000001FF0
07F80000001FF0
07F80000000FF8
07F80000000FF8
07F800000007F8
07F800000007F8
07F800000007FC
07F800000007FC
07F800000007FC
07F800000007F8
07F80000000FF8
07F80000000FF8
07F80000000FF8
07F80000001FF0
07F80000003FF0
07F80000003FF0
07F8000000FFE0
07FC000001FFC0
0FFC00000FFFC0
0FFF0000FFFF80
3FFFFFFFFFFF00
7FFFFFFFFFFC00
FFFFFFFFFFF800
FFFFFFFFFFC000
7FFFFFFFFC0000
ENDCHAR
STARTCHAR 0063
ENCODING 99
SWIDTH 697 0
DWIDTH 62 0
BBX 57 68 3 -2
BITMAP
00000007E0000000
000000FFFFE00000
00000FFFFFFC0000
00003FFFFFFF8000
0000FFFFFFFFE000
0003FFE00FFFF000
0007FF0000FFF800
000FFC00003FFC00
001FF000001FFC00
003FE000000FFC00
007FC0000003FC00
00FF80000001FC00
01FF00000001FC00
03FE00000000FC00
03FE000000007C00
07FC000000007C00
0FF8000000003E00
0FF8000000003E00
1FF0000000001C00
1FF0000000000C00
3FE0000000000000
3FE0000000000000
3FE0000000000000
7FC0000000000000
7FC0000000000000
7FC0000000000000
7FC0000000000000
7FC0000000000000
FFC0000000000000
FF80000000000000
FF80000000000000
FF80000000000000
FF80000000000000
FF80000000000000
FF80000000000000
FF80000000000000
FF80000000000000
FF80000000000000
FF80000000000000
FF80000000000000
FFC0000000000000
FFC0000000000000
7FC0000000000000
7FC0000000000000
7FC0000000000000
7FE0000000000000
3FE0000000000000
3FE0000000000000
3FF0000000000000
1FF0000000000000
1FF8000000000000
1FF8000000000780
0FFC000000000F80
0FFE000000001F80
07FE000000003F80
03FF000000007F00
03FF80000000FF00
01FFC0000001FE00
00FFF0000007FC00
007FF800000FF800
003FFE00003FF000
001FFFE001FFE000
000FFFFFFFFF8000
0003FFFFFFFF0000
0000FFFFFFFC0000
00003FFFFFF00000
00000FFFFF800000
0000007FF8000000
ENDCHAR
STARTCHAR 0064
ENCODING 100
SWIDTH 720 0
DWIDTH 64 0
BBX 58 64 3 0
BITMAP
FFFFFFFF80000000
FFFFFFFFF8000000
FFFFFFFFFF000000
7FFFFFFFFFC00000
1FFFE07FFFF00000
0FFE0000FFF80000
07FC00001FFE0000
07F8000007FF0000
07F8000001FF8000
07F8000000FFC000
07F80000007FE000
07F80000003FF000
07F80000001FF800
07F80000000FF800
07F800000007FC00
07F800000007FC00
07F800000003FE00
07F800000003FE00
07F800000001FF00
07F800000001FF00
07F800000000FF80
07F800000000FF80
07F800000000FF80
07F800000000FF80
07F8000000007FC0
07F8000000007FC0
07F8000000007FC0
07F8000000007FC0
07F8000000007FC0
07F8000000007FC0
07F8000000007FC0
07F8000000007FC0
07F8000000007FC0
07F8000000007FC0
07F8000000007FC0
07F8000000007FC0
07F8000000007FC0
07F8000000007FC0
07F8000000007FC0
07F800000000FFC0
07F800000000FF80
07F800000000FF80
07F800000000FF80
07F800000001FF80
07F800000001FF00
07F800000001FF00
07F800000003FE00
07F800000003FE00
07F800000007FC00
07F80000000FFC00
07F80000000FF800
07F80000001FF000
07F80000003FF000
07F80000007FE000
07F8000000FFC000
07F8000003FF8000
07FC00000FFF0000
0FFC00003FFC0000
0FFE0001FFF80000
3FFFF1FFFFE00000
7FFFFFFFFF800000
FFFFFFFFFE000000
FFFFFFFFE0000000
7FFFFFFC00000000
ENDCHAR
STARTCHAR 0065
ENCODING 101
SWIDTH 607 0
DWIDTH 54 0
BBX 51 64 3 0
BITMAP
FFFFFFFFFFFC00
FFFFFFFFFFFE00
FFFFFFFFFFFE00
7FFFFFFFFFFE00
1FFFFFFFFFFE00
0FFE000007FF00
07FC000000FF00
07F80000003F00
07F80000001F00
07F80000000F00
07F80000000600
07F80000000000
07F80000000000
07F80000000000
07F80000000000
07F80000000000
07F80000000000
07F80000000000
07F80000000000
07F80000000000
07F80000000000
07F80000000000
07F80000000000
07F80000000000
07F80000038000
07F800000F8000
07F80000FF8000
07FFFFFFFF8000
07FFFFFFFF8000
07FFFFFFFF8000
07FFFFFFFF8000
07FFFFFFFF8000
07F800000F8000
07F80000038000
07F80000000000
07F80000000000
07F80000000000
07F80000000000
07F80000000000
07F80000000000
07F80000000000
07F80000000000
07F80000000000
07F80000000000
07F80000000000
07F80000000000
07F80000000000
07F80000000000
07F80000000000
07F80000000000
07F80000000000
07F80000000000
07F800000001C0
07F800000003E0
07F800000007E0
07F80000000FE0
07F80000001FC0
0FFC000000FFC0
0FFF00000FFFC0
3FFFFFFFFFFFC0
7FFFFFFFFFFFC0
FFFFFFFFFFFF80
FFFFFFFFFFFF80
7FFFFFFFFFFE00
ENDCHAR
STARTCHAR 0066
ENCODING 102
SWIDTH 562 0
DWIDTH 50 0
BBX 48 64 2 0
BITMAP
7FFFFFFFFFF8
7FFFFFFFFFFC
7FFFFFFFFFFE
3FFFFFFFFFFE
0FFFE00FFFFE
07FE00000FFE
03FE000001FE
03FC0000007F
03FC0000001F
03FC0000000E
03FC00000006
03FC00000000
03FC00000000
03FC00000000
03FC00000000
03FC00000000
03FC00000000
03FC00000000
03FC00000000
03FC00000000
03FC00000000
03FC00000000
03FC00000000
03FC00000000
03FC00000000
03FC00000000
03FC00000300
03FC00001F80
03FC0001FF80
03FFFFFFFF80
03FFFFFFFF80
03FFFFFFFF80
03FFFFFFFF80
03FC0003FF80
03FC00001F80
03FC00000780
03FC00000000
03FC00000000
03FC00000000
03FC00000000
03FC00000000
03FC00000000
03FC00000000
03FC00000000
03FC00000000
03FC00000000
03FC00000000
03FC00000000
03FC00000000
03FC00000000
03FC00000000
03FC00000000
03FC00000000
03FC00000000
03FC00000000
03FC00000000
03FC00000000
07FC00000000
07FE00000000
1FFF80000000
7FFFE0000000
FFFFF0000000
FFFFF0000000
7FFFE0000000
ENDCHAR
STARTCHAR 0067
ENCODING 103
SWIDTH 765 0
DWIDTH 68 0
BBX 60 68 3 -2
BITMAP
00000001FC000000
0000007FFFF80000
000003FFFFFF8000
00000FFFFFFFE000
00003FFFFFFFF800
0000FFFC01FFFC00
0003FFC0001FFE00
0007FF000007FF00
000FFC000001FF00
001FF8000000FF80
003FF00000007F80
007FC00000003F80
00FFC00000001F80
01FF800000001F80
01FF000000000F80
03FE000000000780
07FE000000000780
07FC000000000380
0FF8000000000380
0FF8000000000000
1FF0000000000000
1FF0000000000000
3FF0000000000000
3FE0000000000000
3FE0000000000000
7FE0000000000000
7FC0000000000000
7FC0000000000000
7FC0000000000000
7FC0000000000000
FFC0000000000000
FFC0000000000000
FF80000000000000
FF800000001FFE00
FF80000001FFFFE0
FF80000003FFFFF0
FF80000003FFFFF0
FF80000001FFFFF0
FF8000000000FFF0
FFC0000000001FF0
7FC0000000001FF0
7FC0000000000FF0
7FC0000000000FF0
7FC0000000000FF0
7FC0000000000FF0
3FE0000000000FF0
3FE0000000000FF0
3FF0000000000FF0
1FF0000000000FF0
1FF0000000000FF0
1FF8000000000FF0
0FFC000000000FF0
07FC000000000FF0
07FE000000000FF0
03FF000000000FF0
03FF800000001FF0
01FFC00000001FF0
00FFE00000003FF0
007FF00000003FF0
003FF8000000FFE0
001FFE000001FFC0
000FFF800007FF80
0003FFF0003FFE00
0001FFFFFFFFF800
00007FFFFFFFE000
00001FFFFFFF0000
000003FFFFF80000
0000000FFE000000
ENDCHAR
STARTCHAR 0068
ENCODING 104
SWIDTH 765 0
DWIDTH 68 0
BBX 63 64 3 0
BITMAP
FFFFC0000007FFFC
FFFFC000000FFFFE
FFFFC0000007FFFC
7FFF80000003FFF8
1FFE00000001FFF0
0FFC000000007FE0
07F8000000007FC0
07F8000000003FC0
07F8000000003FC0
07F8000000003FC0
07F8000000003FC0
07F8000000003FC0
07F8000000003FC0
07F8000000003FC0
07F8000000003FC0
07F8000000003FC0
07F8000000003FC0
07F8000000003FC0
07F8000000003FC0
07F8000000003FC0
07F8000000003FC0
07F8000000003FC0
07F8000000003FC0
07F8000000003FC0
07F8000000003FC0
07F8000000003FC0
07FFFFFFFFFFFFC0
07FFFFFFFFFFFFC0
07FFFFFFFFFFFFC0
07FFFFFFFFFFFFC0
07FFFFFFFFFFFFC0
07F8000000003FC0
07F8000000003FC0
07F8000000003FC0
07F8000000003FC0
07F8000000003FC0
07F8000000003FC0
07F8000000003FC0
07F8000000003FC0
07F8000000003FC0
07F8000000003FC0
07F8000000003FC0
07F8000000003FC0
07F8000000003FC0
07F8000000003FC0
07F8000000003FC0
07F8000000003FC0
07F8000000003FC0
07F8000000003FC0
07F8000000003FC0
07F8000000003FC0
07F8000000003FC0
07F8000000003FC0
07F8000000003FC0
07F8000000003FC0
07F8000000003FC0
07F8000000007FC0
0FF8000000007FC0
0FFC000000007FE0
3FFF00000001FFF0
7FFF80000007FFFC
FFFFC0000007FFFE
FFFFC0000007FFFE
7FFF80000007FFFC
ENDCHAR
STARTCHAR 0069
ENCODING 105
SWIDTH 270 0
DWIDTH 24 0
BBX 18 64 3 0
BITMAP
7FFFC0
FFFFC0
FFFFC0
7FFF80
1FFF00
0FFC00
07FC00
07F800
07F800
07F800
07F800
07F800
07F800
07F800
07F800
07F800
07F800
07F800
07F800
07F800
07F800
07F800
07F800
07F800
07F800
07F800
07F800
07F800
07F800
07F800
07F800
07F800
07F800
07F800
07F800
07F800
07F800
07F800
07F800
07F800
07F800
07F800
07F800
07F800
07F800
07F800
07F800
07F800
07F800
07F800
07F800
07F800
07F800
07F800
07F800
07F800
07F800
07FC00
0FFC00
1FFF00
7FFF80
FFFFC0
FFFFC0
7FFFC0
ENDCHAR
STARTCHAR 006A
ENCODING 106
SWIDTH 450 0
DWIDTH 40 0
BBX 38 66 0 -2
BITMAP
00001FFFF8
00001FFFFC
00001FFFFC
00000FFFF8
000001FFE0
000000FFC0
0000007F80
0000007F80
0000007F80
0000007F80
0000007F80
0000007F80
0000007F80
0000007F80
0000007F80
0000007F80
0000007F80
0000007F80
0000007F80
0000007F80
0000007F80
0000007F80
0000007F80
0000007F80
0000007F80
0000007F80
0000007F80
0000007F80
0000007F80
0000007F80
0000007F80
0000007F80
0000007F80
0000007F80
0000007F80
0000007F80
0000007F80
0000007F80
0000007F80
0000007F80
0000007F80
0080007F80
0FF0007F80
1FF8007F80
3FF8007F80
7FF8007F80
7FF8007F80
FFF0007F80
FF80007F80
FE00007F80
FC00007F80
F800007F80
F800007F80
F800007F80
F800007F00
F80000FF00
FC0000FF00
FC0001FE00
7E0003FE00
7F8007FC00
3FE00FFC00
1FFFFFF800
0FFFFFF000
07FFFFC000
01FFFF0000
001FF80000
ENDCHAR
STARTCHAR 006B
ENCODING 107
SWIDTH 618 0
DWIDTH 55 0
BBX 55 64 3 0
BITMAP
FFFFC0003FFFE0
FFFFC0007FFFF0
FFFFC0007FFFE0
7FFF80003FFFC0
1FFE00000FFF80
0FFC000007FE00
07F8000007FC00
07F8000007F800
07F8000007F000
07F800000FE000
07F800001FC000
07F800001FC000
07F800003F8000
07F800007F0000
07F80000FE0000
07F80001FC0000
07F80003F80000
07F80007F00000
07F8000FE00000
07F8000FC00000
07F8001FC00000
07F8003F800000
07F8007F000000
07F800FE000000
07F801FC000000
07F803F8000000
07F807FC000000
07F80FFE000000
07F81FFF000000
07F87FFF800000
07F8FFFF800000
07F9FEFFC00000
07FBFC7FE00000
07FFF83FF00000
07FFF01FF80000
07FFE00FF80000
07FF8007FC0000
07FF0007FE0000
07FE0003FF0000
07FC0001FF0000
07F80000FF8000
07F800007FC000
07F800007FC000
07F800003FE000
07F800001FE000
07F800001FF000
07F800000FF800
07F8000007F800
07F8000007FC00
07F8000003FC00
07F8000003FE00
07F8000001FE00
07F8000001FF00
07F8000000FF00
07F8000000FF80
07F8000000FF80
07F80000007FC0
0FF80000007FC0
0FFC0000007FE0
3FFF000001FFF8
7FFF800003FFFC
FFFFC00007FFFE
FFFFC00007FFFC
7FFF800003FFF8
ENDCHAR
STARTCHAR 006C
ENCODING 108
SWIDTH 573 0
DWIDTH 51 0
BBX 49 64 3 0
BITMAP
FFFFC000000000
FFFFE000000000
FFFFC000000000
7FFF8000000000
1FFE0000000000
0FFC0000000000
07F80000000000
07F80000000000
07F80000000000
07F80000000000
07F80000000000
07F80000000000
07F80000000000
07F80000000000
07F80000000000
07F80000000000
07F80000000000
07F80000000000
07F80000000000
07F80000000000
07F80000000000
07F80000000000
07F80000000000
07F80000000000
07F80000000000
07F80000000000
07F80000000000
07F80000000000
07F80000000000
07F80000000000
07F80000000000
07F80000000000
07F80000000000
07F80000000000
07F80000000000
07F80000000000
07F80000000000
07F80000000000
07F80000000000
07F80000000000
07F80000000000
07F80000000000
07F80000000000
07F80000000000
07F80000000000
07F80000000000
07F80000000000
07F80000000000
07F80000000000
07F80000000000
07F80000000000
07F80000000000
07F80000000000
07F80000000380
07F80000000780
07F80000001F80
07F80000003F80
0FFC000001FF80
0FFE00001FFF80
3FFFFFFFFFFF80
7FFFFFFFFFFF80
FFFFFFFFFFFF00
FFFFFFFFFFFF00
7FFFFFFFFFFE00
ENDCHAR
STARTCHAR 006D
ENCODING 109
SWIDTH 821 0
DWIDTH 73 0
BBX 70 64 1 0
BITMAP
3FFF8000000001FFF8
7FFF8000000003FFFC
7FFFC000000003FFFC
3FFFC000000007FFFC
07FFE000000007FFF0
01FFE00000000FFF80
01FFE00000000FFF00
01FFF00000000FFF00
00FFF00000001FFF00
00FFF80000001FFF00
01FFF80000001FFF00
01FBF80000003FFF00
01FBFC0000003EFF00
01F9FC0000007EFF00
01F9FE0000007EFF00
01F9FE0000007CFF00
01F8FE000000FCFF00
01F8FF000000FCFF00
01F87F000001F8FF00
01F87F800001F8FF00
01F87F800003F0FF00
01F83FC00003F0FF00
01F83FC00003E0FF00
01F81FC00007E0FF00
01F81FE00007E0FF00
01F80FE0000FC0FF00
01F80FF0000FC0FF00
01F80FF0001F80FF00
01F807F8001F80FF00
01F807F8003F00FF00
01F803F8003F00FF00
01F803FC007F00FF00
01F803FC007E00FF00
01F801FE00FE00FF00
01F801FE00FC00FF00
01F800FF01FC00FF00
01F800FF01F800FF00
01F8007F83F800FF00
01F8007F83F000FF00
01F8003FC7F000FF00
01F8003FC7E000FF00
01F8003FCFE000FF00
03F8001FEFC000FF00
03F8001FFFC000FF00
03F8000FFF8000FF00
03F0000FFF8000FF00
03F00007FF8000FF00
03F00007FF00007F00
03F00003FF00007F00
03F00003FE00007F00
03F00001FE00007F00
03F00001FC00007F00
03F00000FC00007F00
03F00000F800007F00
03F000007000007F80
03F000002000007F80
03F000000000007F80
03F80000000000FF80
07F80000000000FFC0
0FFE0000000001FFE0
7FFF8000000007FFF8
FFFFC00000001FFFFC
FFFFC00000001FFFFC
7FFF800000000FFFFC
ENDCHAR
STARTCHAR 006E
ENCODING 110
SWIDTH 720 0
DWIDTH 64 0
BBX 63 65 0 -1
BITMAP
7FFF00000003FFFC
FFFF80000003FFFE
FFFFC0000003FFFC
7FFFE0000000FFF8
0FFFF00000003FE0
03FFF80000001FC0
01FFF80000000FC0
01FFFC0000000F80
01FFFE0000000F80
01FBFF0000000F80
01F9FF8000000F80
01F9FFC000000F80
01F8FFC000000F80
01F87FE000000F80
01F83FF000000F80
01F81FF800000F80
01F80FFC00000F80
01F807FC00000F80
01F807FE00000F80
01F803FF00000F80
01F801FF80000F80
01F800FF80000F80
01F8007FC0000F80
01F8003FE0000F80
01F8003FF0000F80
01F8001FF0000F80
01F8000FF8000F80
01F80007FC000F80
01F80007FE000F80
01F80003FE000F80
01F80001FF000F80
01F80000FF800F80
01F80000FFC00F80
01F800007FC00F80
01F800003FE00F80
01F800001FF00F80
01F800001FF00F80
01F800000FF80F80
01F8000007FC0F80
01F8000003FE0F80
01F8000003FE0F80
01F8000001FF0F80
01F8000000FF8F80
01F8000000FF8F80
01F80000007FCF80
01F80000003FEF80
01F80000003FEF80
01F80000001FFF80
01F80000000FFF80
01F80000000FFF80
01F800000007FF80
01F800000003FF80
01F800000003FF80
01F800000001FF80
01F800000000FF80
01FC00000000FF80
01FC000000007F80
01FC000000003F80
03FE000000003F80
0FFF800000001F80
3FFFF00000001F80
7FFFF80000000F80
7FFFF80000000780
7FFFF00000000380
0000000000000180
ENDCHAR
STARTCHAR 006F
ENCODING 111
SWIDTH 765 0
DWIDTH 68 0
BBX 62 68 3 -2
BITMAP
0000000740000000
000001FFFF000000
00000FFFFFE00000
00007FFFFFF80000
0000FFFFFFFE0000
0003FFF87FFF0000
0007FF0003FFC000
001FFC00007FE000
003FF000003FF000
007FC000000FF800
00FF80000007FC00
01FF00000003FE00
01FE00000001FF00
03FE00000000FF00
07FC00000000FF80
07F8000000007FC0
0FF8000000007FC0
0FF0000000003FE0
1FF0000000003FE0
1FF0000000001FF0
3FE0000000001FF0
3FE0000000001FF0
3FE0000000000FF8
7FC0000000000FF8
7FC0000000000FF8
7FC0000000000FF8
7FC00000000007FC
7FC00000000007FC
FF800000000007FC
FF800000000007FC
FF800000000007FC
FF800000000007FC
FF800000000007FC
FF800000000007FC
FF800000000007FC
FF800000000007FC
FF800000000007FC
FF800000000007FC
FF800000000007FC
FF800000000007FC
7FC00000000007FC
7FC00000000007FC
7FC0000000000FF8
7FC0000000000FF8
7FC0000000000FF8
3FE0000000000FF8
3FE0000000001FF0
3FE0000000001FF0
1FE0000000001FF0
1FF0000000003FE0
0FF0000000003FE0
0FF8000000007FC0
07F8000000007FC0
07FC00000000FF80
03FE00000000FF80
03FE00000001FF00
01FF00000003FE00
00FF80000007FC00
007FC000000FF800
003FE000001FF000
001FF800007FE000
000FFE0001FFC000
0007FFC00FFF8000
0001FFFFFFFE0000
00007FFFFFF80000
00001FFFFFE00000
000007FFFF000000
0000003FF0000000
ENDCHAR
STARTCHAR 0070
ENCODING 112
SWIDTH 596 0
DWIDTH 53 0
BBX 49 64 3 0
BITMAP
FFFFFFFF800000
FFFFFFFFF80000
FFFFFFFFFF0000
7FFFFFFFFFC000
1FFFF9FFFFF000
0FFF0001FFF800
07FC00003FFC00
07FC00001FFE00
07F8000007FE00
07F8000003FF00
07F8000001FF00
07F8000001FF80
07F8000000FF80
07F8000000FF80
07F8000000FF80
07F80000007F80
07F80000007F80
07F80000007F80
07F80000007F80
07F8000000FF80
07F8000000FF80
07F8000000FF80
07F8000000FF80
07F8000001FF00
07F8000001FF00
07F8000003FE00
07F8000007FE00
07F800000FFC00
07F800001FF800
07F800007FF000
07F80001FFE000
07F80007FFC000
07F8003FFF8000
07F807FFFE0000
07FFFFFFF80000
07FFFFFFC00000
07FFFFFE000000
07FFFFF0000000
07FFF800000000
07F80000000000
07F80000000000
07F80000000000
07F80000000000
07F80000000000
07F80000000000
07F80000000000
07F80000000000
07F80000000000
07F80000000000
07F80000000000
07F80000000000
07F80000000000
07F80000000000
07F80000000000
07F80000000000
07F80000000000
07F80000000000
0FF80000000000
0FFC0000000000
3FFF0000000000
7FFFC000000000
FFFFE000000000
FFFFE000000000
7FFFC000000000
ENDCHAR
STARTCHAR 0071
ENCODING 113
SWIDTH 765 0
DWIDTH 68 0
BBX 62 79 3 -13
BITMAP
0000000740000000
000001FFFF000000
00000FFFFFE00000
00007FFFFFF80000
0001FFFFFFFE0000
0003FFF87FFF0000
000FFF0003FFC000
001FFC00007FE000
003FF000003FF000
007FC000000FF800
00FF80000007FC00
01FF00000003FE00
01FE00000001FF00
03FE00000000FF00
07FC00000000FF80
07F8000000007FC0
0FF8000000007FC0
0FF0000000003FE0
1FF0000000003FE0
1FF0000000001FE0
3FE0000000001FF0
3FE0000000001FF0
3FE0000000000FF8
7FC0000000000FF8
7FC0000000000FF8
7FC0000000000FF8
7FC00000000007F8
7FC00000000007FC
FF800000000007FC
FF800000000007FC
FF800000000007FC
FF800000000007FC
FF800000000007FC
FF800000000007FC
FF800000000007FC
FF800000000007FC
FF800000000007FC
FF800000000007FC
FF800000000007FC
FF800000000007FC
7FC00000000007FC
7FC00000000007FC
7FC0000000000FF8
7FC0000000000FF8
7FC0000000000FF8
3FE0000000000FF8
3FE0000000001FF0
3FE0000000001FF0
3FE0000000001FF0
1FF0000000003FE0
1FF0000380003FE0
0FF80003C0007FC0
0FF80003C0007FC0
07FC0003C000FF80
03FE0003C000FF00
03FE0003E001FF00
01FF0003E003FE00
00FF8001E007FC00
007FC001E00FF800
003FE001F01FF000
001FF801F07FE000
000FFE00F9FFC000
0007FFC0FFFF8000
0001FFFFFFFE0000
00007FFFFFF80000
00001FFFFFE00000
000003FFFF800000
0000001FFFC00000
000000000FE00000
000000000FF80000
0000000007FE0000
0000000003FFFFE0
0000000001FFFFF8
0000000000FFFFF8
00000000003FFFFC
00000000001FFFF8
000000000007FFF8
000000000001FFF0
0000000000001FC0
ENDCHAR
STARTCHAR 0072
ENCODING 114
SWIDTH 641 0
DWIDTH 57 0
BBX 55 64 3 0
BITMAP
FFFFFFFFF00000
FFFFFFFFFF0000
FFFFFFFFFFE000
7FFFFFFFFFF800
1FFFFFFFFFFC00
0FFE0001FFFE00
07FC00001FFF00
07F8000007FF80
07F8000003FF80
07F8000001FF80
07F8000000FFC0
07F8000000FFC0
07F80000007FC0
07F80000007FC0
07F80000007FC0
07F80000007FC0
07F80000007FC0
07F80000007FC0
07F80000007FC0
07F8000000FF80
07F8000000FF80
07F8000001FF00
07F8000003FF00
07F8000007FE00
07F800000FFE00
07F800001FFC00
07F800007FF800
07F80003FFE000
07F8001FFFC000
07F800FFFF0000
07F83FFFFC0000
07FFFFFFF00000
07FFFFFFF00000
07FFFFFFF80000
07FFFFCFFC0000
07FFF007FC0000
07F80007FE0000
07F80003FE0000
07F80001FF0000
07F80000FF8000
07F80000FF8000
07F800007FC000
07F800003FC000
07F800003FE000
07F800001FE000
07F800000FF000
07F800000FF000
07F8000007F800
07F8000007F800
07F8000003FC00
07F8000003FC00
07F8000001FE00
07F8000001FE00
07F8000001FF00
07F8000000FF00
07F8000000FF80
07F8000000FF80
0FF8000000FFC0
0FFC000000FFE0
3FFF000001FFF0
7FFFC00007FFF8
FFFFE0000FFFFC
FFFFE0000FFFFE
7FFFC0000FFFFC
ENDCHAR
STARTCHAR 0073
ENCODING 115
SWIDTH 573 0
DWIDTH 51 0
BBX 48 68 1 -2
BITMAP
000001A00000
0000FFFF8000
0007FFFFF800
001FFFFFFE00
003FFFFFFF00
007FC00FFFC0
00FE0003FFC0
01FC0000FFE0
03F800003FE0
07F000001FE0
07E000000FE0
0FE0000007E0
0FE0000003E0
0FC0000001E0
1FC0000000E0
1FC000000040
1FC000000000
1FC000000000
1FC000000000
1FE000000000
1FE000000000
1FF000000000
1FF000000000
1FF800000000
0FFE00000000
0FFF00000000
07FFE0000000
07FFFC000000
03FFFFE00000
01FFFFFF0000
00FFFFFFF000
007FFFFFFE00
003FFFFFFF00
000FFFFFFFC0
0001FFFFFFE0
00001FFFFFF0
000000FFFFF8
00000007FFFC
00000000FFFC
000000001FFE
0000000007FE
0000000003FE
0000000001FE
0000000000FF
0000000000FF
00000000007F
00000000007F
00000000007F
00000000007F
70000000007F
F8000000007F
FC000000007E
FC000000007E
FE00000000FE
7E00000000FC
7F00000001FC
3F80000001FC
3FC0000003F8
1FE0000007F0
0FF000000FF0
07FC00003FE0
03FF0000FFC0
01FFF00FFF80
00FFFFFFFE00
003FFFFFFC00
000FFFFFF000
0003FFFF8000
00001FF80000
ENDCHAR
STARTCHAR 0074
ENCODING 116
SWIDTH 596 0
DWIDTH 53 0
BBX 52 64 0 0
BITMAP
3FFFFFFFFFFFC0
3FFFFFFFFFFFE0
7FFFFFFFFFFFE0
7FFFFFFFFFFFF0
7FFFDFFFDFFFF0
7FF003FE007FF0
7FC003FE001FF0
7F0003FC0007F0
FE0003FC0003F0
FC0003FC0001F0
F80003FC0000F0
600003FC000030
000003FC000000
000003FC000000
000003FC000000
000003FC000000
000003FC000000
000003FC000000
000003FC000000
000003FC000000
000003FC000000
000003FC000000
000003FC000000
000003FC000000
000003FC000000
000003FC000000
000003FC000000
000003FC000000
000003FC000000
000003FC000000
000003FC000000
000003FC000000
000003FC000000
000003FC000000
000003FC000000
000003FC000000
000003FC000000
000003FC000000
000003FC000000
000003FC000000
000003FC000000
000003FC000000
000003FC000000
000003FC000000
000003FC000000
000003FC000000
000003FC000000
000003FC000000
000003FC000000
000003FC000000
000003FC000000
000003FC000000
000003FC000000
000003FC000000
000003FC000000
000003FC000000
000003FC000000
000003FE000000
000003FE000000
00000FFF800000
00003FFFE00000
00007FFFF00000
00007FFFF00000
00003FFFE00000
ENDCHAR
STARTCHAR 0075
ENCODING 117
SWIDTH 708 0
DWIDTH 63 0
BBX 58 66 2 -2
BITMAP
7FFFC000007FFFC0
FFFFE000007FFFC0
FFFFE000007FFFC0
7FFFC000003FFF80
3FFF8000001FFF00
0FFE00000007FC00
07FC00000003FC00
07FC00000001FC00
07FC00000001FC00
07F800000001FC00
07F800000000FC00
07F800000000FC00
07F800000000FC00
07F800000000FC00
07F800000000FC00
0FF000000000FC00
0FF000000000FC00
0FF000000000FC00
0FF000000000FC00
0FF000000000FC00
0FF000000000FC00
0FF000000000FC00
0FF000000000FC00
0FF000000000FC00
0FF000000000FC00
0FF000000000FC00
0FF000000000FC00
0FF000000000FE00
0FF000000000FE00
0FE000000000FE00
0FE000000000FE00
0FE000000000FE00
0FE000000000FE00
0FE000000000FE00
0FE000000000FE00
0FE000000000FE00
0FE000000000FE00
0FE000000000FE00
0FE000000000FE00
0FE000000000FE00
0FF000000000FE00
0FF000000000FE00
0FF000000000FE00
0FF000000000FE00
0FF000000000FC00
0FF000000000FC00
07F000000000FC00
07F000000001FC00
07F800000001FC00
07F800000001F800
07F800000003F800
03FC00000003F800
03FC00000007F000
01FE00000007F000
01FF0000000FE000
00FF8000001FE000
00FFC000003FC000
007FE000007F8000
003FF80001FF0000
003FFE0007FE0000
000FFFF9FFFC0000
0007FFFFFFF80000
0003FFFFFFF00000
0000FFFFFFC00000
00001FFFFE000000
000000FF80000000
ENDCHAR
STARTCHAR 0076
ENCODING 118
SWIDTH 652 0
DWIDTH 58 0
BBX 58 66 0 -2
BITMAP
FFFF0000003FFFC0
FFFF8000003FFFC0
FFFF0000003FFFC0
7FFE0000001FFF80
3FFC00000007FF00
3FF800000001FF00
1FF000000001FE00
1FF000000001FE00
1FF000000001FC00
0FF000000001FC00
0FF000000001FC00
0FF000000001FC00
0FF000000001F800
07F800000001F800
07F800000003F800
07F800000003F000
07F800000003F000
03FC00000003F000
03FC00000007F000
03FC00000007E000
01FC00000007E000
01FE0000000FE000
01FE0000000FC000
00FE0000000FC000
00FF0000001FC000
00FF0000001F8000
00FF0000001F8000
007F8000003F8000
007F8000003F0000
007F8000003F0000
003FC000007F0000
003FC000007E0000
001FE000007E0000
001FE00000FE0000
001FE00000FC0000
000FF00000FC0000
000FF00001F80000
000FF80001F80000
0007F80003F80000
0007F80003F00000
0003FC0007F00000
0003FC0007E00000
0003FE0007E00000
0001FE000FE00000
0001FF000FC00000
0000FF001FC00000
0000FF801F800000
00007F803F800000
00007FC03F000000
00003FC07F000000
00003FE07E000000
00003FE0FE000000
00001FF1FC000000
00001FF1FC000000
00000FFBF8000000
00000FFFF8000000
000007FFF0000000
000003FFF0000000
000003FFE0000000
000001FFE0000000
000001FFC0000000
000000FF80000000
0000007F80000000
0000007F00000000
0000003E00000000
0000001C00000000
ENDCHAR
STARTCHAR 0077
ENCODING 119
SWIDTH 922 0
DWIDTH 82 0
BBX 82 66 0 -2
BITMAP
7FFF80003FFFC0003FFF80
FFFFC0007FFFC0003FFFC0
FFFF80007FFFC0003FFFC0
7FFF00003FFF80001FFF80
3FFC00000FFF000007FF00
1FF8000007FC000001FE00
0FF0000003FC000001FC00
0FF0000003F8000000FC00
0FF0000003F8000000F800
0FF0000003F8000000F800
0FF0000003F8000000F800
07F0000003F8000001F800
07F0000007F8000001F800
07F0000007FC000001F000
07F8000007FC000001F000
07F8000007FC000001F000
03F8000007FC000001F000
03F800000FFC000003F000
03F800000FFE000003E000
03FC00000FFE000003E000
01FC00000FFE000003E000
01FC00001FFE000003E000
01FC00001FFF000007E000
01FE00001FFF000007C000
01FE00001F7F000007C000
00FE00003F7F800007C000
00FE00003F7F80000FC000
00FF00003E3F80000F8000
00FF00007E3FC0000F8000
007F00007E3FC0000F8000
007F00007C3FC0001F8000
007F8000FC1FE0001F0000
007F8000FC1FE0001F0000
003F8000F81FE0003F0000
003FC001F80FF0003F0000
003FC001F80FF0003E0000
003FC001F80FF0003E0000
001FC003F007F8007E0000
001FE003F007F8007E0000
001FE003E007F8007C0000
000FE007E003FC00FC0000
000FF007E003FC00FC0000
000FF00FE001FE00F80000
000FF00FC001FE01F80000
0007F80FC001FF01F80000
0007F81F8000FF01F00000
0007F81F8000FF03F00000
0003FC3F8000FF83F00000
0003FC3F00007F83F00000
0003FC3F00007FC7E00000
0003FE7F00003FC7E00000
0001FE7E00003FEFC00000
0001FEFE00003FEFC00000
0001FFFE00001FFFC00000
0000FFFC00001FFF800000
0000FFFC00000FFF800000
0000FFF800000FFF800000
00007FF8000007FF000000
00007FF0000007FF000000
00003FF0000003FE000000
00003FE0000003FE000000
00003FE0000001FE000000
00001FC0000001FC000000
00000FC0000000F8000000
00000F8000000078000000
0000070000000030000000
ENDCHAR
STARTCHAR 0078
ENCODING 120
SWIDTH 652 0
DWIDTH 58 0
BBX 58 64 1 0
BITMAP
7FFFC00007FFF800
7FFFE00007FFFC00
7FFFC00007FFF800
3FFF800001FFF000
0FFF0000007FC000
07FE0000007F8000
03FE0000007F8000
03FE0000007F0000
01FF0000007E0000
01FF000000FE0000
00FF800000FC0000
007F800001F80000
007FC00001F80000
003FE00003F00000
001FE00007E00000
001FF00007E00000
000FF8000FC00000
000FF8001F800000
0007FC001F000000
0003FE003F000000
0001FF007E000000
0001FF80FC000000
0000FF81F8000000
00007FC1F8000000
00007FE3F0000000
00003FF7E0000000
00001FFFC0000000
00000FFFC0000000
00000FFF80000000
000007FF00000000
000003FF00000000
000001FF80000000
000001FFC0000000
000003FFE0000000
000003FFF0000000
000007FFF8000000
00000FCFF8000000
00001FCFFC000000
00001F87FE000000
00003F03FF000000
00007E01FF800000
00007E00FF800000
0000FC007FC00000
0001F8003FE00000
0003F8001FF00000
0003F0001FF00000
0007E0000FF80000
000FE00007FC0000
000FC00003FC0000
001FC00003FE0000
003F800001FF0000
003F000000FF0000
007F000000FF8000
00FE0000007FC000
00FE0000007FC000
01FC0000003FE000
03FC0000003FF000
03FC0000003FF000
07FC0000001FF800
1FFC0000003FFE00
3FFE0000007FFF80
7FFF800000FFFFC0
FFFF800000FFFFC0
7FFF800000FFFF80
ENDCHAR
STARTCHAR 0079
ENCODING 121
SWIDTH 652 0
DWIDTH 58 0
BBX 60 64 -2 0
BITMAP
7FFFE0000007FFF0
FFFFE000000FFFF0
7FFFE000000FFFF0
7FFFC0000007FFE0
1FFF00000001FFC0
07FE00000000FF80
03FE000000007F00
03FE000000007F00
01FF00000000FE00
00FF00000000FC00
00FF80000000FC00
007F80000001F800
007FC0000001F000
003FE0000003F000
001FE0000007E000
001FF0000007C000
000FF800000FC000
000FF800000F8000
0007FC00001F0000
0003FE00003F0000
0003FE00003E0000
0001FF00007C0000
0000FF8000FC0000
0000FFC000F80000
00007FC001F00000
00003FE003F00000
00001FF007E00000
00001FF007C00000
00000FF80FC00000
000007FC1F800000
000003FE3F000000
000003FF3E000000
000001FF7E000000
000000FFFC000000
0000007FF8000000
0000007FF8000000
0000003FF0000000
0000003FE0000000
0000001FE0000000
0000001FE0000000
0000001FE0000000
0000001FE0000000
0000001FE0000000
0000001FE0000000
0000001FE0000000
0000001FE0000000
0000001FE0000000
0000001FE0000000
0000001FE0000000
0000001FE0000000
0000001FE0000000
0000001FE0000000
0000001FE0000000
0000001FE0000000
0000001FE0000000
0000001FE0000000
0000001FE0000000
0000001FF0000000
0000003FF0000000
000000FFFC000000
000001FFFE000000
000003FFFF000000
000003FFFF000000
000001FFFE000000
ENDCHAR
STARTCHAR 007A
ENCODING 122
SWIDTH 540 0
DWIDTH 48 0
BBX 46 64 1 0
BITMAP
07FFFFFFFFF8
07FFFFFFFFF8
0FFFFFFFFFF8
0FFFFFFFFFF8
0FFFE0003FF8
0FFC00000FF8
0FF000000FF8
0FE000001FF0
0F8000001FF0
0F0000003FE0
0E0000003FC0
040000007FC0
000000007F80
00000000FF80
00000001FF00
00000001FE00
00000003FE00
00000007FC00
0000000FF800
0000000FF800
0000001FF000
0000003FE000
0000003FC000
0000007FC000
000000FF8000
000001FF0000
000001FF0000
000003FE0000
000007FC0000
00000FF80000
00000FF80000
00001FF00000
00003FE00000
00007FC00000
00007FC00000
0000FF800000
0001FF000000
0003FE000000
0003FE000000
0007FC000000
000FF8000000
001FF0000000
001FF0000000
003FE0000000
007FC0000000
00FFC0000000
00FF80000000
01FF00000000
03FF00000000
03FE00000000
07FC00000000
0FFC0000000C
0FF80000001C
1FF00000003C
1FF00000007C
3FE0000000FC
3FE0000003FC
7FC000000FFC
7FC00000FFFC
FFFFFFFFFFFC
FFFFFFFFFFFC
FFFFFFFFFFF8
7FFFFFFFFFF8
3FFFFFFFFFF8
ENDCHAR
STARTCHAR 007B
ENCODING 123
SWIDTH 495 0
DWIDTH 44 0
BBX 29 77 8 -11
BITMAP
000001F8
00001FF8
00007FE0
0001FC00
0003F800
0003F000
0007E000
0007E000
0007E000
000FC000
000FC000
000FC000
000FC000
000FC000
000FC000
000FC000
000FC000
000FC000
000FC000
000FC000
000FC000
000FC000
000FC000
000FC000
000FC000
000FC000
000FC000
000FC000
000F8000
001F8000
001F8000
001F0000
003F0000
003E0000
007E0000
01F80000
0FF00000
FF800000
FC000000
FFC00000
07F00000
01FC0000
007E0000
003E0000
003F0000
001F8000
001F8000
001F8000
000F8000
000FC000
000FC000
000FC000
000FC000
000FC000
000FC000
000FC000
000FC000
000FC000
000FC000
000FC000
000FC000
000FC000
000FC000
000FC000
000FC000
000FC000
000FC000
000FC000
0007E000
0007E000
0007E000
0003F000
0003F800
0001FE00
00007FF8
00001FF8
00000038
ENDCHAR
STARTCHAR 007C
ENCODING 124
SWIDTH 495 0
DWIDTH 44 0
BBX 6 89 19 -21
BITMAP
FC
FC
FC
FC
FC
FC
FC
FC
FC
FC
FC
FC
FC
FC
FC
FC
FC
FC
FC
FC
FC
FC
FC
FC
FC
FC
FC
FC
FC
FC
FC
FC
FC
FC
FC
FC
FC
FC
FC
FC
FC
FC
FC
FC
FC
FC
FC
FC
FC
FC
FC
FC
FC
FC
FC
FC
FC
FC
FC
FC
FC
FC
FC
FC
FC
FC
FC
FC
FC
FC
FC
FC
FC
FC
FC
FC
FC
FC
FC
FC
FC
FC
FC
FC
FC
FC
FC
FC
FC
ENDCHAR
STARTCHAR 007D
ENCODING 125
SWIDTH 495 0
DWIDTH 44 0
BBX 29 77 8 -11
BITMAP
F8000000
FFC00000
7FF00000
03F80000
00FC0000
007E0000
007E0000
003F0000
003F0000
003F0000
003F0000
003F0000
003F0000
003F8000
003F8000
003F8000
003F8000
003F8000
003F8000
003F8000
003F8000
003F8000
003F8000
003F8000
001F8000
001F8000
001F8000
001F8000
001F8000
001F8000
000F8000
000FC000
000FC000
0007E000
0003F000
0001FC00
00007F80
00001FF8
000001F8
00001FF8
00007E00
0001F800
0003F000
0007E000
000FC000
000FC000
000F8000
001F8000
001F8000
001F8000
001F8000
001F8000
001F8000
003F8000
003F8000
003F8000
003F8000
003F8000
003F8000
003F8000
003F8000
003F8000
003F8000
003F8000
003F0000
003F0000
003F0000
003F0000
003F0000
003E0000
007E0000
007E0000
00FC0000
03F80000
FFE00000
FF800000
C0000000
ENDCHAR
STARTCHAR 007E
ENCODING 126
SWIDTH 832 0
DWIDTH 74 0
BBX 58 11 8 21
BITMAP
000FFC00000000C0
007FFF80000001C0
03FFFFF0000007C0
0FFFFFFE00001FC0
3FFFFFFFC0007FC0
7FF80FFFFC07FF80
FF8000FFFFFFFF00
FE00000FFFFFFC00
F8000003FFFFF000
E00000007FFFC000
C000000007FC0000
ENDCHAR
STARTCHAR 0080
ENCODING 128
SWIDTH 652 0
DWIDTH 58 0
BBX 60 86 -1 0
BITMAP
00001E0000000000
00003F0000000000
00003F8000000000
00003FC000000000
00003FE000000000
00001FF000000000
000007F800000000
000003FC00000000
000000FE00000000
0000007F00000000
0000001F80000000
00000007C0000000
00000003E0000000
00000000F0000000
0000000078000000
000000001C000000
0000000000000000
0000000000000000
0000000000000000
0000000000000000
0000000400000000
0000000E00000000
0000001F00000000
0000001F80000000
0000003FC0000000
0000003FC0000000
0000007FE0000000
000000FFF0000000
000000FFF0000000
000001FFF8000000
000001FFF8000000
000003FFFC000000
000003F3FC000000
000007F3FE000000
000007E1FE000000
00000FE1FF000000
00000FC0FF000000
00000FC0FF800000
00001F807F800000
00001F807FC00000
00003F003FC00000
00003F003FC00000
00007E003FE00000
00007E001FE00000
00007E001FF00000
0000FC000FF00000
0000FC000FF80000
0001F80007F80000
0001F80007F80000
0001F80007FC0000
0003F00003FC0000
0003F00003FE0000
0007E00001FE0000
0007E00001FE0000
0007E00001FF0000
000FC00000FF0000
000FC00000FF0000
001F800000FF8000
001F8000007F8000
001FFFFFFFFFC000
003FFFFFFFFFC000
003FFFFFFFFFC000
003FFFFFFFFFE000
007FFFFFFFFFE000
007E0000001FE000
00FE0000001FF000
00FC0000000FF000
00FC0000000FF000
01FC0000000FF800
01F800000007F800
01F800000007F800
03F800000003FC00
03F000000003FC00
03F000000003FC00
07F000000003FC00
07F000000001FE00
07F000000001FE00
0FE000000001FE00
0FE000000001FF00
1FF000000001FF00
1FF000000001FF80
3FFC00000007FFC0
7FFE0000000FFFE0
FFFF0000001FFFF0
FFFF0000001FFFF0
7FFE0000000FFFE0
ENDCHAR
STARTCHAR 0081
ENCODING 129
SWIDTH 652 0
DWIDTH 58 0
BBX 60 90 -1 0
BITMAP
0000001FC0000000
00000070F0000000
0000006030000000
000000E038000000
000000E018000000
000000E018000000
000000001C000000
000000001C000000
0000000018000000
0000000038000000
0000000078000000
00000000F0000000
00000003E0000000
00000007C0000000
0000000F00000000
0000000C00000000
0000000C00000000
0000000C00000000
0000000C00000000
0000000000000000
0000000000000000
0000000000000000
0000000000000000
0000000000000000
0000000400000000
0000000E00000000
0000001F00000000
0000001F80000000
0000003FC0000000
0000003FC0000000
0000007FE0000000
000000FFF0000000
000000FFF0000000
000001FFF8000000
000001FFF8000000
000003FFFC000000
000003F3FC000000
000007F3FE000000
000007E1FE000000
00000FE1FF000000
00000FC0FF000000
00000FC0FF800000
00001F807F800000
00001F807FC00000
00003F003FC00000
00003F003FC00000
00007E003FE00000
00007E001FE00000
00007E001FF00000
0000FC000FF00000
0000FC000FF80000
0001F80007F80000
0001F80007F80000
0001F80007FC0000
0003F00003FC0000
0003F00003FE0000
0007E00001FE0000
0007E00001FE0000
0007E00001FF0000
000FC00000FF0000
000FC00000FF0000
001F800000FF8000
001F8000007F8000
001FFFFFFFFFC000
003FFFFFFFFFC000
003FFFFFFFFFC000
003FFFFFFFFFE000
007FFFFFFFFFE000
007E0000001FE000
00FE0000001FF000
00FC0000000FF000
00FC0000000FF000
01FC0000000FF800
01F800000007F800
01F800000007F800
03F800000003FC00
03F000000003FC00
03F000000003FC00
07F000000003FC00
07F000000001FE00
07F000000001FE00
0FE000000001FE00
0FE000000001FF00
1FF000000001FF00
1FF000000001FF80
3FFC00000007FFC0
7FFE0000000FFFE0
FFFF0000001FFFF0
FFFF0000001FFFF0
7FFE0000000FFFE0
ENDCHAR
STARTCHAR 008D
ENCODING 141
SWIDTH 652 0
DWIDTH 58 0
BBX 60 98 -1 0
BITMAP
0000000000100000
00000000007C0000
0000000000FC0000
0000000001FE0000
0000000003FC0000
0000000007FC0000
000000000FF80000
000000001FE00000
000000003FC00000
000000007F000000
00000000FC000000
00000001F8000000
00000003E0000000
00000007C0000000
0000000F00000000
0000001C00000000
0000000000000000
0000300003000000
0000300003000000
0000380007000000
00003C000E000000
00001E001E000000
00001FFFFE000000
00000FFFFC000000
000007FFF8000000
000003FFF0000000
000000FFC0000000
0000000E00000000
0000000000000000
0000000000000000
0000000000000000
0000000000000000
0000000400000000
0000000E00000000
0000001F00000000
0000001F80000000
0000003FC0000000
0000003FC0000000
0000007FE0000000
000000FFF0000000
000000FFF0000000
000001FFF8000000
000001FFF8000000
000003FFFC000000
000003F3FC000000
000007F3FE000000
000007E1FE000000
00000FE1FF000000
00000FC0FF000000
00000FC0FF800000
00001F807F800000
00001F807FC00000
00003F003FC00000
00003F003FC00000
00007E003FE00000
00007E001FE00000
00007E001FF00000
0000FC000FF00000
0000FC000FF80000
0001F80007F80000
0001F80007F80000
0001F80007FC0000
0003F00003FC0000
0003F00003FE0000
0007E00001FE0000
0007E00001FE0000
0007E00001FF0000
000FC00000FF0000
000FC00000FF0000
001F800000FF8000
001F8000007F8000
001FFFFFFFFFC000
003FFFFFFFFFC000
003FFFFFFFFFC000
003FFFFFFFFFE000
007FFFFFFFFFE000
007E0000001FE000
00FE0000001FF000
00FC0000000FF000
00FC0000000FF000
01FC0000000FF800
01F800000007F800
01F800000007F800
03F800000003FC00
03F000000003FC00
03F000000003FC00
07F000000003FC00
07F000000001FE00
07F000000001FE00
0FE000000001FE00
0FE000000001FF00
1FF000000001FF00
1FF000000001FF80
3FFC00000007FFC0
7FFE0000000FFFE0
FFFF0000001FFFF0
FFFF0000001FFFF0
7FFE0000000FFFE0
ENDCHAR
STARTCHAR 008E
ENCODING 142
SWIDTH 652 0
DWIDTH 58 0
BBX 60 98 -1 0
BITMAP
0007800000000000
000FC00000000000
000FE00000000000
000FF00000000000
000FF80000000000
0007FC0000000000
0001FE0000000000
0000FF0000000000
00003F8000000000
00000FC000000000
000007E000000000
000001F000000000
000000F800000000
0000003C00000000
0000000E00000000
0000000000000000
0000000000000000
0000300003000000
0000300003000000
0000380007000000
00003C000E000000
00001E001E000000
00001FFFFE000000
00000FFFFC000000
000007FFF8000000
000003FFF0000000
000000FFC0000000
0000000E00000000
0000000000000000
0000000000000000
0000000000000000
0000000000000000
0000000400000000
0000000E00000000
0000001F00000000
0000001F80000000
0000003FC0000000
0000003FC0000000
0000007FE0000000
000000FFF0000000
000000FFF0000000
000001FFF8000000
000001FFF8000000
000003FFFC000000
000003F3FC000000
000007F3FE000000
000007E1FE000000
00000FE1FF000000
00000FC0FF000000
00000FC0FF800000
00001F807F800000
00001F807FC00000
00003F003FC00000
00003F003FC00000
00007E003FE00000
00007E001FE00000
00007E001FF00000
0000FC000FF00000
0000FC000FF80000
0001F80007F80000
0001F80007F80000
0001F80007FC0000
0003F00003FC0000
0003F00003FE0000
0007E00001FE0000
0007E00001FE0000
0007E00001FF0000
000FC00000FF0000
000FC00000FF0000
001F800000FF8000
001F8000007F8000
001FFFFFFFFFC000
003FFFFFFFFFC000
003FFFFFFFFFC000
003FFFFFFFFFE000
007FFFFFFFFFE000
007E0000001FE000
00FE0000001FF000
00FC0000000FF000
00FC0000000FF000
01FC0000000FF800
01F800000007F800
01F800000007F800
03F800000003FC00
03F000000003FC00
03F000000003FC00
07F000000003FC00
07F000000001FE00
07F000000001FE00
0FE000000001FE00
0FE000000001FF00
1FF000000001FF00
1FF000000001FF80
3FFC00000007FFC0
7FFE0000000FFFE0
FFFF0000001FFFF0
FFFF0000001FFFF0
7FFE0000000FFFE0
ENDCHAR
STARTCHAR 008F
ENCODING 143
SWIDTH 652 0
DWIDTH 58 0
BBX 60 101 -1 0
BITMAP
0000001FC0000000
00000038E0000000
0000006070000000
000000E038000000
000000E018000000
000000E018000000
0000000018000000
0000000018000000
0000000038000000
0000000038000000
0000000078000000
00000000F0000000
00000001E0000000
00000007C0000000
0000000F00000000
0000000C00000000
0000000C00000000
0000000C00000000
0000000C00000000
0000000000000000
0000300003000000
0000300003000000
0000380007000000
00003C000E000000
00001E001E000000
00001FFFFE000000
00000FFFFC000000
000007FFF8000000
000003FFF0000000
000000FFC0000000
0000000E00000000
0000000000000000
0000000000000000
0000000000000000
0000000000000000
0000000400000000
0000000E00000000
0000001F00000000
0000001F80000000
0000003FC0000000
0000003FC0000000
0000007FE0000000
000000FFF0000000
000000FFF0000000
000001FFF8000000
000001FFF8000000
000003FFFC000000
000003F3FC000000
000007F3FE000000
000007E1FE000000
00000FE1FF000000
00000FC0FF000000
00000FC0FF800000
00001F807F800000
00001F807FC00000
00003F003FC00000
00003F003FC00000
00007E003FE00000
00007E001FE00000
00007E001FF00000
0000FC000FF00000
0000FC000FF80000
0001F80007F80000
0001F80007F80000
0001F80007FC0000
0003F00003FC0000
0003F00003FE0000
0007E00001FE0000
0007E00001FE0000
0007E00001FF0000
000FC00000FF0000
000FC00000FF0000
001F800000FF8000
001F8000007F8000
001FFFFFFFFFC000
003FFFFFFFFFC000
003FFFFFFFFFC000
003FFFFFFFFFE000
007FFFFFFFFFE000
007E0000001FE000
00FE0000001FF000
00FC0000000FF000
00FC0000000FF000
01FC0000000FF800
01F800000007F800
01F800000007F800
03F800000003FC00
03F000000003FC00
03F000000003FC00
07F000000003FC00
07F000000001FE00
07F000000001FE00
0FE000000001FE00
0FE000000001FF00
1FF000000001FF00
1FF000000001FF80
3FFC00000007FFC0
7FFE0000000FFFE0
FFFF0000001FFFF0
FFFF0000001FFFF0
7FFE0000000FFFE0
ENDCHAR
STARTCHAR 0090
ENCODING 144
SWIDTH 607 0
DWIDTH 54 0
BBX 54 97 3 0
BITMAP
00000000000030
000000000000FC
000000000001FC
000000000003FC
000000000007FC
00000000000FF8
00000000001FF0
00000000003FE0
00000000007F80
0000000000FE00
0000000001FC00
000001F803F000
000001F803E000
000003FC078000
000007FE0E0000
000007FE1C0000
00000FFF000000
00001FFF800000
00001F9F800000
00003F0FC00000
00007E07E00000
00007803E00000
0000F000F00000
0001E000780000
0001C000380000
000380001C0000
000700000E0000
00000000000000
00000000000000
00000000000000
00000000000000
00000000000000
00000000000000
FFFFFFFFFFFC00
FFFFFFFFFFFE00
FFFFFFFFFFFE00
7FFFFFFFFFFE00
1FFFFFFFFFFE00
0FFE000007FF00
07FC000000FF00
07F80000003F00
07F80000001F00
07F80000000F00
07F80000000600
07F80000000000
07F80000000000
07F80000000000
07F80000000000
07F80000000000
07F80000000000
07F80000000000
07F80000000000
07F80000000000
07F80000000000
07F80000000000
07F80000000000
07F80000000000
07F80000038000
07F800000F8000
07F80000FF8000
07FFFFFFFF8000
07FFFFFFFF8000
07FFFFFFFF8000
07FFFFFFFF8000
07FFFFFFFF8000
07F800000F8000
07F80000038000
07F80000000000
07F80000000000
07F80000000000
07F80000000000
07F80000000000
07F80000000000
07F80000000000
07F80000000000
07F80000000000
07F80000000000
07F80000000000
07F80000000000
07F80000000000
07F80000000000
07F80000000000
07F80000000000
07F80000000000
07F80000000000
07F800000001C0
07F800000003E0
07F800000007E0
07F80000000FE0
07F80000001FC0
0FFC000000FFC0
0FFF00000FFFC0
3FFFFFFFFFFFC0
7FFFFFFFFFFFC0
FFFFFFFFFFFF80
FFFFFFFFFFFF80
7FFFFFFFFFFE00
ENDCHAR
STARTCHAR 009D
ENCODING 157
SWIDTH 765 0
DWIDTH 68 0
BBX 62 93 3 -2
BITMAP
00000000007C0000
0000000000FE0000
0000000001FE0000
0000000003FE0000
0000000007FC0000
000000000FF80000
000000001FF00000
000000003FC00000
000000007F800000
00000000FE000000
00000001F8000000
00000003F000FE00
00000007C001E380
000000078003C1C0
0000000E0003C0C0
00000010000180E0
00000000000000E0
00000000000000E0
00000000000000E0
00000000000000E0
00000000000001C0
00000000000001C0
0000000000000780
0000000000003F00
000000000000FE00
000000074001F800
000001FFFF018000
00000FFFFFE18000
00007FFFFFF90000
0000FFFFFFFF0000
0003FFF87FFF0000
0007FF0003FFC000
001FFC00007FE000
003FF000003FF000
007FC000000FF800
00FF80000007FC00
01FF00000003FE00
01FE00000001FF00
03FE00000000FF00
07FC00000000FF80
07F8000000007FC0
0FF8000000007FC0
0FF0000000003FE0
1FF0000000003FE0
1FF0000000001FF0
3FE0000000001FF0
3FE0000000001FF0
3FE0000000000FF8
7FC0000000000FF8
7FC0000000000FF8
7FC0000000000FF8
7FC00000000007FC
7FC00000000007FC
FF800000000007FC
FF800000000007FC
FF800000000007FC
FF800000000007FC
FF800000000007FC
FF800000000007FC
FF800000000007FC
FF800000000007FC
FF800000000007FC
FF800000000007FC
FF800000000007FC
FF800000000007FC
7FC00000000007FC
7FC00000000007FC
7FC0000000000FF8
7FC0000000000FF8
7FC0000000000FF8
3FE0000000000FF8
3FE0000000001FF0
3FE0000000001FF0
1FE0000000001FF0
1FF0000000003FE0
0FF0000000003FE0
0FF8000000007FC0
07F8000000007FC0
07FC00000000FF80
03FE00000000FF80
03FE00000001FF00
01FF00000003FE00
00FF80000007FC00
007FC000000FF800
003FE000001FF000
001FF800007FE000
000FFE0001FFC000
0007FFC00FFF8000
0001FFFFFFFE0000
00007FFFFFF80000
00001FFFFFE00000
000007FFFF000000
0000003FF0000000
ENDCHAR
STARTCHAR 009E
ENCODING 158
SWIDTH 765 0
DWIDTH 68 0
BBX 62 94 3 -2
BITMAP
00001C0000000000
00003F0000000000
00003F8000000000
00003FC000000000
00003FE000000000
00001FF000000000
00000FF800000000
000007FC00000000
000001FE00000000
0000007F00000000
0000003F80000000
0000000FC0000000
00000007E000FE00
00000001E001E380
000000007003C1C0
000000003803C0C0
00000000000180E0
00000000000000E0
00000000000000E0
00000000000000E0
00000000000000E0
00000000000001C0
00000000000001C0
0000000000000780
0000000000003F00
000000000000FE00
000000074001F800
000001FFFF018000
00000FFFFFE18000
00007FFFFFF90000
0000FFFFFFFF0000
0003FFF87FFF0000
0007FF0003FFC000
001FFC00007FE000
003FF000003FF000
007FC000000FF800
00FF80000007FC00
01FF00000003FE00
01FE00000001FF00
03FE00000000FF00
07FC00000000FF80
07F8000000007FC0
0FF8000000007FC0
0FF0000000003FE0
1FF0000000003FE0
1FF0000000001FF0
3FE0000000001FF0
3FE0000000001FF0
3FE0000000000FF8
7FC0000000000FF8
7FC0000000000FF8
7FC0000000000FF8
7FC00000000007FC
7FC00000000007FC
FF800000000007FC
FF800000000007FC
FF800000000007FC
FF800000000007FC
FF800000000007FC
FF800000000007FC
FF800000000007FC
FF800000000007FC
FF800000000007FC
FF800000000007FC
FF800000000007FC
FF800000000007FC
7FC00000000007FC
7FC00000000007FC
7FC0000000000FF8
7FC0000000000FF8
7FC0000000000FF8
3FE0000000000FF8
3FE0000000001FF0
3FE0000000001FF0
1FE0000000001FF0
1FF0000000003FE0
0FF0000000003FE0
0FF8000000007FC0
07F8000000007FC0
07FC00000000FF80
03FE00000000FF80
03FE00000001FF00
01FF00000003FE00
00FF80000007FC00
007FC000000FF800
003FE000001FF000
001FF800007FE000
000FFE0001FFC000
0007FFC00FFF8000
0001FFFFFFFE0000
00007FFFFFF80000
00001FFFFFE00000
000007FFFF000000
0000003FF0000000
ENDCHAR
STARTCHAR 00A0
ENCODING 160
SWIDTH 540 0
DWIDTH 48 0
BBX 0 0 0 0
BITMAP
ENDCHAR
STARTCHAR 00A1
ENCODING 161
SWIDTH 652 0
DWIDTH 58 0
BBX 60 98 -1 0
BITMAP
0000000000100000
00000000007C0000
0000000000FC0000
0000000001FE0000
0000000003FC0000
0000000007FC0000
000000000FF80000
000000001FE00000
000000003FC00000
000000007F000000
00000000FC000000
00000001F8000000
00000003E0000000
00000007C0000000
0000000F00000000
0000001C00000000
0000000000000000
0000300003000000
0000300003000000
0000380007000000
00003C000E000000
00001E001E000000
00001FFFFE000000
00000FFFFC000000
000007FFF8000000
000003FFF0000000
000000FFC0000000
0000000E00000000
0000000000000000
0000000000000000
0000000000000000
0000000000000000
0000000400000000
0000000E00000000
0000001F00000000
0000001F80000000
0000003FC0000000
0000003FC0000000
0000007FE0000000
000000FFF0000000
000000FFF0000000
000001FFF8000000
000001FFF8000000
000003FFFC000000
000003F3FC000000
000007F3FE000000
000007E1FE000000
00000FE1FF000000
00000FC0FF000000
00000FC0FF800000
00001F807F800000
00001F807FC00000
00003F003FC00000
00003F003FC00000
00007E003FE00000
00007E001FE00000
00007E001FF00000
0000FC000FF00000
0000FC000FF80000
0001F80007F80000
0001F80007F80000
0001F80007FC0000
0003F00003FC0000
0003F00003FE0000
0007E00001FE0000
0007E00001FE0000
0007E00001FF0000
000FC00000FF0000
000FC00000FF0000
001F800000FF8000
001F8000007F8000
001FFFFFFFFFC000
003FFFFFFFFFC000
003FFFFFFFFFC000
003FFFFFFFFFE000
007FFFFFFFFFE000
007E0000001FE000
00FE0000001FF000
00FC0000000FF000
00FC0000000FF000
01FC0000000FF800
01F800000007F800
01F800000007F800
03F800000003FC00
03F000000003FC00
03F000000003FC00
07F000000003FC00
07F000000001FE00
07F000000001FE00
0FE000000001FE00
0FE000000001FF00
1FF000000001FF00
1FF000000001FF80
3FFC00000007FFC0
7FFE0000000FFFE0
FFFF0000001FFFF0
FFFF0000001FFFF0
7FFE0000000FFFE0
ENDCHAR
STARTCHAR 00A2
ENCODING 162
SWIDTH 652 0
DWIDTH 58 0
BBX 60 98 -1 0
BITMAP
0007800000000000
000FC00000000000
000FE00000000000
000FF00000000000
000FF80000000000
0007FC0000000000
0001FE0000000000
0000FF0000000000
00003F8000000000
00000FC000000000
000007E000000000
000001F000000000
000000F800000000
0000003C00000000
0000000E00000000
0000000000000000
0000000000000000
0000300003000000
0000300003000000
0000380007000000
00003C000E000000
00001E001E000000
00001FFFFE000000
00000FFFFC000000
000007FFF8000000
000003FFF0000000
000000FFC0000000
0000000E00000000
0000000000000000
0000000000000000
0000000000000000
0000000000000000
0000000400000000
0000000E00000000
0000001F00000000
0000001F80000000
0000003FC0000000
0000003FC0000000
0000007FE0000000
000000FFF0000000
000000FFF0000000
000001FFF8000000
000001FFF8000000
000003FFFC000000
000003F3FC000000
000007F3FE000000
000007E1FE000000
00000FE1FF000000
00000FC0FF000000
00000FC0FF800000
00001F807F800000
00001F807FC00000
00003F003FC00000
00003F003FC00000
00007E003FE00000
00007E001FE00000
00007E001FF00000
0000FC000FF00000
0000FC000FF80000
0001F80007F80000
0001F80007F80000
0001F80007FC0000
0003F00003FC0000
0003F00003FE0000
0007E00001FE0000
0007E00001FE0000
0007E00001FF0000
000FC00000FF0000
000FC00000FF0000
001F800000FF8000
001F8000007F8000
001FFFFFFFFFC000
003FFFFFFFFFC000
003FFFFFFFFFC000
003FFFFFFFFFE000
007FFFFFFFFFE000
007E0000001FE000
00FE0000001FF000
00FC0000000FF000
00FC0000000FF000
01FC0000000FF800
01F800000007F800
01F800000007F800
03F800000003FC00
03F000000003FC00
03F000000003FC00
07F000000003FC00
07F000000001FE00
07F000000001FE00
0FE000000001FE00
0FE000000001FF00
1FF000000001FF00
1FF000000001FF80
3FFC00000007FFC0
7FFE0000000FFFE0
FFFF0000001FFFF0
FFFF0000001FFFF0
7FFE0000000FFFE0
ENDCHAR
STARTCHAR 00A3
ENCODING 163
SWIDTH 652 0
DWIDTH 58 0
BBX 60 101 -1 0
BITMAP
0000001FC0000000
00000038E0000000
0000006070000000
000000E038000000
000000E018000000
000000E018000000
0000000018000000
0000000018000000
0000000038000000
0000000038000000
0000000078000000
00000000F0000000
00000001E0000000
00000007C0000000
0000000F00000000
0000000C00000000
0000000C00000000
0000000C00000000
0000000C00000000
0000000000000000
0000300003000000
0000300003000000
0000380007000000
00003C000E000000
00001E001E000000
00001FFFFE000000
00000FFFFC000000
000007FFF8000000
000003FFF0000000
000000FFC0000000
0000000E00000000
0000000000000000
0000000000000000
0000000000000000
0000000000000000
0000000400000000
0000000E00000000
0000001F00000000
0000001F80000000
0000003FC0000000
0000003FC0000000
0000007FE0000000
000000FFF0000000
000000FFF0000000
000001FFF8000000
000001FFF8000000
000003FFFC000000
000003F3FC000000
000007F3FE000000
000007E1FE000000
00000FE1FF000000
00000FC0FF000000
00000FC0FF800000
00001F807F800000
00001F807FC00000
00003F003FC00000
00003F003FC00000
00007E003FE00000
00007E001FE00000
00007E001FF00000
0000FC000FF00000
0000FC000FF80000
0001F80007F80000
0001F80007F80000
0001F80007FC0000
0003F00003FC0000
0003F00003FE0000
0007E00001FE0000
0007E00001FE0000
0007E00001FF0000
000FC00000FF0000
000FC00000FF0000
001F800000FF8000
001F8000007F8000
001FFFFFFFFFC000
003FFFFFFFFFC000
003FFFFFFFFFC000
003FFFFFFFFFE000
007FFFFFFFFFE000
007E0000001FE000
00FE0000001FF000
00FC0000000FF000
00FC0000000FF000
01FC0000000FF800
01F800000007F800
01F800000007F800
03F800000003FC00
03F000000003FC00
03F000000003FC00
07F000000003FC00
07F000000001FE00
07F000000001FE00
0FE000000001FE00
0FE000000001FF00
1FF000000001FF00
1FF000000001FF80
3FFC00000007FFC0
7FFE0000000FFFE0
FFFF0000001FFFF0
FFFF0000001FFFF0
7FFE0000000FFFE0
ENDCHAR
STARTCHAR 00A4
ENCODING 164
SWIDTH 652 0
DWIDTH 58 0
BBX 60 97 -1 0
BITMAP
0000000000E00000
0000000000C00000
000001FE01C00000
000007FFE3C00000
00000FFFFF800000
00000FFFFF800000
00001FFFFF000000
00001C0FFE000000
00003801F0000000
0000300000000000
0000300000000000
0000000000000000
0000000000000000
0000000000000000
0000000000000000
0000000000000000
0000300003000000
0000300003000000
0000380007000000
00003C000E000000
00001E001E000000
00001FFFFE000000
00000FFFFC000000
000007FFF8000000
000003FFF0000000
000000FFC0000000
0000000E00000000
0000000000000000
0000000000000000
0000000000000000
0000000000000000
0000000400000000
0000000E00000000
0000001F00000000
0000001F80000000
0000003FC0000000
0000003FC0000000
0000007FE0000000
000000FFF0000000
000000FFF0000000
000001FFF8000000
000001FFF8000000
000003FFFC000000
000003F3FC000000
000007F3FE000000
000007E1FE000000
00000FE1FF000000
00000FC0FF000000
00000FC0FF800000
00001F807F800000
00001F807FC00000
00003F003FC00000
00003F003FC00000
00007E003FE00000
00007E001FE00000
00007E001FF00000
0000FC000FF00000
0000FC000FF80000
0001F80007F80000
0001F80007F80000
0001F80007FC0000
0003F00003FC0000
0003F00003FE0000
0007E00001FE0000
0007E00001FE0000
0007E00001FF0000
000FC00000FF0000
000FC00000FF0000
001F800000FF8000
001F8000007F8000
001FFFFFFFFFC000
003FFFFFFFFFC000
003FFFFFFFFFC000
003FFFFFFFFFE000
007FFFFFFFFFE000
007E0000001FE000
00FE0000001FF000
00FC0000000FF000
00FC0000000FF000
01FC0000000FF800
01F800000007F800
01F800000007F800
03F800000003FC00
03F000000003FC00
03F000000003FC00
07F000000003FC00
07F000000001FE00
07F000000001FE00
0FE000000001FE00
0FE000000001FF00
1FF000000001FF00
1FF000000001FF80
3FFC00000007FFC0
7FFE0000000FFFE0
FFFF0000001FFFF0
FFFF0000001FFFF0
7FFE0000000FFFE0
ENDCHAR
STARTCHAR 00A5
ENCODING 165
SWIDTH 652 0
DWIDTH 58 0
BBX 60 95 -1 -14
BITMAP
0000300003000000
0000300003000000
0000380007000000
00003C000E000000
00001E001E000000
00001FFFFE000000
00000FFFFC000000
000007FFF8000000
000003FFF0000000
000000FFC0000000
0000000E00000000
0000000000000000
0000000000000000
0000000000000000
0000000000000000
0000000400000000
0000000E00000000
0000001F00000000
0000001F80000000
0000003FC0000000
0000003FC0000000
0000007FE0000000
000000FFF0000000
000000FFF0000000
000001FFF8000000
000001FFF8000000
000003FFFC000000
000003F3FC000000
000007F3FE000000
000007E1FE000000
00000FE1FF000000
00000FC0FF000000
00000FC0FF800000
00001F807F800000
00001F807FC00000
00003F003FC00000
00003F003FC00000
00007E003FE00000
00007E001FE00000
00007E001FF00000
0000FC000FF00000
0000FC000FF80000
0001F80007F80000
0001F80007F80000
0001F80007FC0000
0003F00003FC0000
0003F00003FE0000
0007E00001FE0000
0007E00001FE0000
0007E00001FF0000
000FC00000FF0000
000FC00000FF0000
001F800000FF8000
001F8000007F8000
001FFFFFFFFFC000
003FFFFFFFFFC000
003FFFFFFFFFC000
003FFFFFFFFFE000
007FFFFFFFFFE000
007E0000001FE000
00FE0000001FF000
00FC0000000FF000
00FC0000000FF000
01FC0000000FF800
01F800000007F800
01F800000007F800
03F800000003FC00
03F000000003FC00
03F000000003FC00
07F000000003FC00
07F000000001FE00
07F000000001FE00
0FE000000001FE00
0FE000000001FF00
1FF000000001FF00
1FF000000001FF80
3FFC00000007FFC0
7FFE0000000FFFE0
FFFF0000001FFFF0
FFFF0000001FFFF0
7FFE0000000FFFE0
0000000000000000
0000000000000000
0000000000000000
0000000000000000
0000003800000000
000000FE00000000
000001FF00000000
000001FF00000000
000001FF00000000
000001FF00000000
000001FF00000000
000001FF00000000
000000FE00000000
0000003800000000
ENDCHAR
STARTCHAR 00A6
ENCODING 166
SWIDTH 765 0
DWIDTH 68 0
BBX 62 99 3 -2
BITMAP
0000000000700000
0000000000600000
000000FE00E00000
000003FFE1E00000
000007FFFFC00000
000007FFFFC00000
00000FFFFF800000
00000E0FFF000000
00001C00FC000000
00001C0000000000
0000180000000000
0000000000000000
0000000000000000
0000000000000000
0000000000000000
0000000000000000
0000000000000000
000000000000FE00
000000000001E380
000000000003C1C0
000000000003C0C0
00000000000180E0
00000000000000E0
00000000000000E0
00000000000000E0
00000000000000E0
00000000000001C0
00000000000001C0
0000000000000780
0000000000003F00
000000000000FE00
000000074001F800
000001FFFF018000
00000FFFFFE18000
00007FFFFFF90000
0000FFFFFFFF0000
0003FFF87FFF0000
0007FF0003FFC000
001FFC00007FE000
003FF000003FF000
007FC000000FF800
00FF80000007FC00
01FF00000003FE00
01FE00000001FF00
03FE00000000FF00
07FC00000000FF80
07F8000000007FC0
0FF8000000007FC0
0FF0000000003FE0
1FF0000000003FE0
1FF0000000001FF0
3FE0000000001FF0
3FE0000000001FF0
3FE0000000000FF8
7FC0000000000FF8
7FC0000000000FF8
7FC0000000000FF8
7FC00000000007FC
7FC00000000007FC
FF800000000007FC
FF800000000007FC
FF800000000007FC
FF800000000007FC
FF800000000007FC
FF800000000007FC
FF800000000007FC
FF800000000007FC
FF800000000007FC
FF800000000007FC
FF800000000007FC
FF800000000007FC
7FC00000000007FC
7FC00000000007FC
7FC0000000000FF8
7FC0000000000FF8
7FC0000000000FF8
3FE0000000000FF8
3FE0000000001FF0
3FE0000000001FF0
1FE0000000001FF0
1FF0000000003FE0
0FF0000000003FE0
0FF8000000007FC0
07F8000000007FC0
07FC00000000FF80
03FE00000000FF80
03FE00000001FF00
01FF00000003FE00
00FF80000007FC00
007FC000000FF800
003FE000001FF000
001FF800007FE000
000FFE0001FFC000
0007FFC00FFF8000
0001FFFFFFFE0000
00007FFFFFF80000
00001FFFFFE00000
000007FFFF000000
0000003FF0000000
ENDCHAR
STARTCHAR 00A7
ENCODING 167
SWIDTH 765 0
DWIDTH 68 0
BBX 62 93 3 -2
BITMAP
00000000007C0000
0000000000FE0000
0000000001FE0000
0000000003FE0000
0000000007FC0000
000000000FF80000
000000001FF00000
000000003FC00000
000000007F800000
00000000FE000000
00000001F8000000
00000003F000FE00
00000007C001E380
000000078003C1C0
0000000E0003C0C0
00000010000180E0
00000000000000E0
00000000000000E0
00000000000000E0
00000000000000E0
00000000000001C0
00000000000001C0
0000000000000780
0000000000003F00
000000000000FE00
000000074001F800
000001FFFF018000
00000FFFFFE18000
00007FFFFFF90000
0000FFFFFFFF0000
0003FFF87FFF0000
0007FF0003FFC000
001FFC00007FE000
003FF000003FF000
007FC000000FF800
00FF80000007FC00
01FF00000003FE00
01FE00000001FF00
03FE00000000FF00
07FC00000000FF80
07F8000000007FC0
0FF8000000007FC0
0FF0000000003FE0
1FF0000000003FE0
1FF0000000001FF0
3FE0000000001FF0
3FE0000000001FF0
3FE0000000000FF8
7FC0000000000FF8
7FC0000000000FF8
7FC0000000000FF8
7FC00000000007FC
7FC00000000007FC
FF800000000007FC
FF800000000007FC
FF800000000007FC
FF800000000007FC
FF800000000007FC
FF800000000007FC
FF800000000007FC
FF800000000007FC
FF800000000007FC
FF800000000007FC
FF800000000007FC
FF800000000007FC
7FC00000000007FC
7FC00000000007FC
7FC0000000000FF8
7FC0000000000FF8
7FC0000000000FF8
3FE0000000000FF8
3FE0000000001FF0
3FE0000000001FF0
1FE0000000001FF0
1FF0000000003FE0
0FF0000000003FE0
0FF8000000007FC0
07F8000000007FC0
07FC00000000FF80
03FE00000000FF80
03FE00000001FF00
01FF00000003FE00
00FF80000007FC00
007FC000000FF800
003FE000001FF000
001FF800007FE000
000FFE0001FFC000
0007FFC00FFF8000
0001FFFFFFFE0000
00007FFFFFF80000
00001FFFFFE00000
000007FFFF000000
0000003FF0000000
ENDCHAR
STARTCHAR 00A8
ENCODING 168
SWIDTH 708 0
DWIDTH 63 0
BBX 58 88 2 -2
BITMAP
00000E0000000000
00001F8000000000
00003FC000000000
00003FE000000000
00001FF000000000
00001FF800000000
000007F800000000
000003FC00000000
000000FE00000000
0000003F00000000
0000001F80000000
00000007C0000000
00000003E0000000
00000000F0000000
0000000038000000
000000001C000000
0000000000000000
0000000000000000
0000000000000000
0000000000000000
0000000000000000
0000000000000000
7FFFC000007FFFC0
FFFFE000007FFFC0
FFFFE000007FFFC0
7FFFC000003FFF80
3FFF8000001FFF00
0FFE00000007FC00
07FC00000003FC00
07FC00000001FC00
07FC00000001FC00
07F800000001FC00
07F800000000FC00
07F800000000FC00
07F800000000FC00
07F800000000FC00
07F800000000FC00
0FF000000000FC00
0FF000000000FC00
0FF000000000FC00
0FF000000000FC00
0FF000000000FC00
0FF000000000FC00
0FF000000000FC00
0FF000000000FC00
0FF000000000FC00
0FF000000000FC00
0FF000000000FC00
0FF000000000FC00
0FF000000000FE00
0FF000000000FE00
0FE000000000FE00
0FE000000000FE00
0FE000000000FE00
0FE000000000FE00
0FE000000000FE00
0FE000000000FE00
0FE000000000FE00
0FE000000000FE00
0FE000000000FE00
0FE000000000FE00
0FE000000000FE00
0FF000000000FE00
0FF000000000FE00
0FF000000000FE00
0FF000000000FE00
0FF000000000FC00
0FF000000000FC00
07F000000000FC00
07F000000001FC00
07F800000001FC00
07F800000001F800
07F800000003F800
03FC00000003F800
03FC00000007F000
01FE00000007F000
01FF0000000FE000
00FF8000001FE000
00FFC000003FC000
007FE000007F8000
003FF80001FF0000
003FFE0007FE0000
000FFFF9FFFC0000
0007FFFFFFF80000
0003FFFFFFF00000
0000FFFFFFC00000
00001FFFFE000000
000000FF80000000
ENDCHAR
STARTCHAR 00A9
ENCODING 169
SWIDTH 765 0
DWIDTH 68 0
BBX 62 94 3 -2
BITMAP
00001C0000000000
00003F0000000000
00003F8000000000
00003FC000000000
00003FE000000000
00001FF000000000
00000FF800000000
000007FC00000000
000001FE00000000
0000007F00000000
0000003F80000000
0000000FC0000000
00000007E000FE00
00000001E001E380
000000007003C1C0
000000003803C0C0
00000000000180E0
00000000000000E0
00000000000000E0
00000000000000E0
00000000000000E0
00000000000001C0
00000000000001C0
0000000000000780
0000000000003F00
000000000000FE00
000000074001F800
000001FFFF018000
00000FFFFFE18000
00007FFFFFF90000
0000FFFFFFFF0000
0003FFF87FFF0000
0007FF0003FFC000
001FFC00007FE000
003FF000003FF000
007FC000000FF800
00FF80000007FC00
01FF00000003FE00
01FE00000001FF00
03FE00000000FF00
07FC00000000FF80
07F8000000007FC0
0FF8000000007FC0
0FF0000000003FE0
1FF0000000003FE0
1FF0000000001FF0
3FE0000000001FF0
3FE0000000001FF0
3FE0000000000FF8
7FC0000000000FF8
7FC0000000000FF8
7FC0000000000FF8
7FC00000000007FC
7FC00000000007FC
FF800000000007FC
FF800000000007FC
FF800000000007FC
FF800000000007FC
FF800000000007FC
FF800000000007FC
FF800000000007FC
FF800000000007FC
FF800000000007FC
FF800000000007FC
FF800000000007FC
FF800000000007FC
7FC00000000007FC
7FC00000000007FC
7FC0000000000FF8
7FC0000000000FF8
7FC0000000000FF8
3FE0000000000FF8
3FE0000000001FF0
3FE0000000001FF0
1FE0000000001FF0
1FF0000000003FE0
0FF0000000003FE0
0FF8000000007FC0
07F8000000007FC0
07FC00000000FF80
03FE00000000FF80
03FE00000001FF00
01FF00000003FE00
00FF80000007FC00
007FC000000FF800
003FE000001FF000
001FF800007FE000
000FFE0001FFC000
0007FFC00FFF8000
0001FFFFFFFE0000
00007FFFFFF80000
00001FFFFFE00000
000007FFFF000000
0000003FF0000000
ENDCHAR
STARTCHAR 00AA
ENCODING 170
SWIDTH 765 0
DWIDTH 68 0
BBX 62 98 3 -2
BITMAP
00000001C0000000
0000000FF8000000
0000001C1C000000
000000380E000000
0000003806000000
0000003807000000
0000000007000000
0000000007000000
0000000007000000
000000000E000000
000000000E000000
000000001E000000
000000003C000000
00000000F8000000
00000003E0000000
0000000380000000
000000030000FE00
000000030001E380
000000030003C1C0
000000030003C0C0
00000000000180E0
00000000000000E0
00000000000000E0
00000000000000E0
00000000000000E0
00000000000001C0
00000000000001C0
0000000000000780
0000000000003F00
000000000000FE00
000000074001F800
000001FFFF018000
00000FFFFFE18000
00007FFFFFF90000
0000FFFFFFFF0000
0003FFF87FFF0000
0007FF0003FFC000
001FFC00007FE000
003FF000003FF000
007FC000000FF800
00FF80000007FC00
01FF00000003FE00
01FE00000001FF00
03FE00000000FF00
07FC00000000FF80
07F8000000007FC0
0FF8000000007FC0
0FF0000000003FE0
1FF0000000003FE0
1FF0000000001FF0
3FE0000000001FF0
3FE0000000001FF0
3FE0000000000FF8
7FC0000000000FF8
7FC0000000000FF8
7FC0000000000FF8
7FC00000000007FC
7FC00000000007FC
FF800000000007FC
FF800000000007FC
FF800000000007FC
FF800000000007FC
FF800000000007FC
FF800000000007FC
FF800000000007FC
FF800000000007FC
FF800000000007FC
FF800000000007FC
FF800000000007FC
FF800000000007FC
7FC00000000007FC
7FC00000000007FC
7FC0000000000FF8
7FC0000000000FF8
7FC0000000000FF8
3FE0000000000FF8
3FE0000000001FF0
3FE0000000001FF0
1FE0000000001FF0
1FF0000000003FE0
0FF0000000003FE0
0FF8000000007FC0
07F8000000007FC0
07FC00000000FF80
03FE00000000FF80
03FE00000001FF00
01FF00000003FE00
00FF80000007FC00
007FC000000FF800
003FE000001FF000
001FF800007FE000
000FFE0001FFC000
0007FFC00FFF8000
0001FFFFFFFE0000
00007FFFFFF80000
00001FFFFFE00000
000007FFFF000000
0000003FF0000000
ENDCHAR
STARTCHAR 00AB
ENCODING 171
SWIDTH 765 0
DWIDTH 68 0
BBX 62 99 3 -2
BITMAP
0000000000700000
0000000000600000
000000FE00E00000
000003FFE1E00000
000007FFFFC00000
000007FFFFC00000
00000FFFFF800000
00000E0FFF000000
00001C00FC000000
00001C0000000000
0000180000000000
0000000000000000
0000000000000000
0000000000000000
0000000000000000
0000000000000000
0000000000000000
000000000000FE00
000000000001E380
000000000003C1C0
000000000003C0C0
00000000000180E0
00000000000000E0
00000000000000E0
00000000000000E0
00000000000000E0
00000000000001C0
00000000000001C0
0000000000000780
0000000000003F00
000000000000FE00
000000074001F800
000001FFFF018000
00000FFFFFE18000
00007FFFFFF90000
0000FFFFFFFF0000
0003FFF87FFF0000
0007FF0003FFC000
001FFC00007FE000
003FF000003FF000
007FC000000FF800
00FF80000007FC00
01FF00000003FE00
01FE00000001FF00
03FE00000000FF00
07FC00000000FF80
07F8000000007FC0
0FF8000000007FC0
0FF0000000003FE0
1FF0000000003FE0
1FF0000000001FF0
3FE0000000001FF0
3FE0000000001FF0
3FE0000000000FF8
7FC0000000000FF8
7FC0000000000FF8
7FC0000000000FF8
7FC00000000007FC
7FC00000000007FC
FF800000000007FC
FF800000000007FC
FF800000000007FC
FF800000000007FC
FF800000000007FC
FF800000000007FC
FF800000000007FC
FF800000000007FC
FF800000000007FC
FF800000000007FC
FF800000000007FC
FF800000000007FC
7FC00000000007FC
7FC00000000007FC
7FC0000000000FF8
7FC0000000000FF8
7FC0000000000FF8
3FE0000000000FF8
3FE0000000001FF0
3FE0000000001FF0
1FE0000000001FF0
1FF0000000003FE0
0FF0000000003FE0
0FF8000000007FC0
07F8000000007FC0
07FC00000000FF80
03FE00000000FF80
03FE00000001FF00
01FF00000003FE00
00FF80000007FC00
007FC000000FF800
003FE000001FF000
001FF800007FE000
000FFE0001FFC000
0007FFC00FFF8000
0001FFFFFFFE0000
00007FFFFFF80000
00001FFFFFE00000
000007FFFF000000
0000003FF0000000
ENDCHAR
STARTCHAR 00AC
ENCODING 172
SWIDTH 708 0
DWIDTH 63 0
BBX 58 85 2 -2
BITMAP
00000000000C0000
00000000001C0000
0000001F001C0000
0000007FF0380000
000000FFFFF80000
000001FFFFF00000
000001FFFFF00000
000003E7FFE00000
000003807F800000
0000030000000000
0000070000000000
0000000000000000
0000000000000000
0000000000000000
0000000000000000
0000000000000000
0000000000000000
0000000000000000
0000000000000000
7FFFC000007FFFC0
FFFFE000007FFFC0
FFFFE000007FFFC0
7FFFC000003FFF80
3FFF8000001FFF00
0FFE00000007FC00
07FC00000003FC00
07FC00000001FC00
07FC00000001FC00
07F800000001FC00
07F800000000FC00
07F800000000FC00
07F800000000FC00
07F800000000FC00
07F800000000FC00
0FF000000000FC00
0FF000000000FC00
0FF000000000FC00
0FF000000000FC00
0FF000000000FC00
0FF000000000FC00
0FF000000000FC00
0FF000000000FC00
0FF000000000FC00
0FF000000000FC00
0FF000000000FC00
0FF000000000FC00
0FF000000000FE00
0FF000000000FE00
0FE000000000FE00
0FE000000000FE00
0FE000000000FE00
0FE000000000FE00
0FE000000000FE00
0FE000000000FE00
0FE000000000FE00
0FE000000000FE00
0FE000000000FE00
0FE000000000FE00
0FE000000000FE00
0FF000000000FE00
0FF000000000FE00
0FF000000000FE00
0FF000000000FE00
0FF000000000FC00
0FF000000000FC00
07F000000000FC00
07F000000001FC00
07F800000001FC00
07F800000001F800
07F800000003F800
03FC00000003F800
03FC00000007F000
01FE00000007F000
01FF0000000FE000
00FF8000001FE000
00FFC000003FC000
007FE000007F8000
003FF80001FF0000
003FFE0007FE0000
000FFFF9FFFC0000
0007FFFFFFF80000
0003FFFFFFF00000
0000FFFFFFC00000
00001FFFFE000000
000000FF80000000
ENDCHAR
STARTCHAR 00AD
ENCODING 173
SWIDTH 708 0
DWIDTH 63 0
BBX 64 94 2 -2
BITMAP
0000000000380000
0000000000FC0000
0000000001FE0000
0000000003FE0000
0000000007FC0000
000000000FF80000
000000000FF00000
000000001FE00000
000000003F800000
000000007E000000
00000000FC000000
00000001F0000000
00000003E00003F0
0000000780000F1C
0000000E00000E06
0000001C00000E07
0000000000000C03
0000000000000003
0000000000000003
0000000000000003
0000000000000007
0000000000000007
000000000000000E
000000000000003E
00000000000001FC
00000000000007F0
00000000000007C0
0000000000000400
7FFFC000007FFFC0
FFFFE000007FFFC0
FFFFE000007FFFC0
7FFFC000003FFF80
3FFF8000001FFF00
0FFE00000007FC00
07FC00000003FC00
07FC00000001FC00
07FC00000001FC00
07F800000001FC00
07F800000000FC00
07F800000000FC00
07F800000000FC00
07F800000000FC00
07F800000000FC00
0FF000000000FC00
0FF000000000FC00
0FF000000000FC00
0FF000000000FC00
0FF000000000FC00
0FF000000000FC00
0FF000000000FC00
0FF000000000FC00
0FF000000000FC00
0FF000000000FC00
0FF000000000FC00
0FF000000000FC00
0FF000000000FE00
0FF000000000FE00
0FE000000000FE00
0FE000000000FE00
0FE000000000FE00
0FE000000000FE00
0FE000000000FE00
0FE000000000FE00
0FE000000000FE00
0FE000000000FE00
0FE000000000FE00
0FE000000000FE00
0FE000000000FE00
0FF000000000FE00
0FF000000000FE00
0FF000000000FE00
0FF000000000FE00
0FF000000000FC00
0FF000000000FC00
07F000000000FC00
07F000000001FC00
07F800000001FC00
07F800000001F800
07F800000003F800
03FC00000003F800
03FC00000007F000
01FE00000007F000
01FF0000000FE000
00FF8000001FE000
00FFC000003FC000
007FE000007F8000
003FF80001FF0000
003FFE0007FE0000
000FFFF9FFFC0000
0007FFFFFFF80000
0003FFFFFFF00000
0000FFFFFFC00000
00001FFFFE000000
000000FF80000000
ENDCHAR
STARTCHAR 00AE
ENCODING 174
SWIDTH 765 0
DWIDTH 68 0
BBX 62 95 3 -15
BITMAP
000000000000FE00
000000000001E380
000000000003C1C0
000000000003C0C0
00000000000180E0
00000000000000E0
00000000000000E0
00000000000000E0
00000000000000E0
00000000000001C0
00000000000001C0
0000000000000780
0000000000003F00
000000000000FE00
000000074001F800
000001FFFF018000
00000FFFFFE18000
00007FFFFFF90000
0000FFFFFFFF0000
0003FFF87FFF0000
0007FF0003FFC000
001FFC00007FE000
003FF000003FF000
007FC000000FF800
00FF80000007FC00
01FF00000003FE00
01FE00000001FF00
03FE00000000FF00
07FC00000000FF80
07F8000000007FC0
0FF8000000007FC0
0FF0000000003FE0
1FF0000000003FE0
1FF0000000001FF0
3FE0000000001FF0
3FE0000000001FF0
3FE0000000000FF8
7FC0000000000FF8
7FC0000000000FF8
7FC0000000000FF8
7FC00000000007FC
7FC00000000007FC
FF800000000007FC
FF800000000007FC
FF800000000007FC
FF800000000007FC
FF800000000007FC
FF800000000007FC
FF800000000007FC
FF800000000007FC
FF800000000007FC
FF800000000007FC
FF800000000007FC
FF800000000007FC
7FC00000000007FC
7FC00000000007FC
7FC0000000000FF8
7FC0000000000FF8
7FC0000000000FF8
3FE0000000000FF8
3FE0000000001FF0
3FE0000000001FF0
1FE0000000001FF0
1FF0000000003FE0
0FF0000000003FE0
0FF8000000007FC0
07F8000000007FC0
07FC00000000FF80
03FE00000000FF80
03FE00000001FF00
01FF00000003FE00
00FF80000007FC00
007FC000000FF800
003FE000001FF000
001FF800007FE000
000FFE0001FFC000
0007FFC00FFF8000
0001FFFFFFFE0000
00007FFFFFF80000
00001FFFFFE00000
000007FFFF000000
0000003FF0000000
0000000000000000
0000000000000000
0000000000000000
0000000000000000
00000007C0000000
0000000FE0000000
0000001FF0000000
0000001FF0000000
0000001FF0000000
0000001FF0000000
0000001FF0000000
0000000FE0000000
00000007C0000000
ENDCHAR
STARTCHAR 00AF
ENCODING 175
SWIDTH 708 0
DWIDTH 63 0
BBX 64 93 2 -2
BITMAP
00001C0000000000
00003E0000000000
00007F0000000000
00007F8000000000
00003FC000000000
00003FE000000000
00001FF000000000
000007F800000000
000001FC00000000
000000FE00000000
0000003F00000000
0000001F800003F0
00000007C0000F1C
00000001E0000E06
00000000F0000E07
0000000038000C03
0000000000000003
0000000000000003
0000000000000003
0000000000000007
0000000000000007
000000000000000E
000000000000003E
00000000000001FC
00000000000007F0
00000000000007C0
0000000000000400
7FFFC000007FFFC0
FFFFE000007FFFC0
FFFFE000007FFFC0
7FFFC000003FFF80
3FFF8000001FFF00
0FFE00000007FC00
07FC00000003FC00
07FC00000001FC00
07FC00000001FC00
07F800000001FC00
07F800000000FC00
07F800000000FC00
07F800000000FC00
07F800000000FC00
07F800000000FC00
0FF000000000FC00
0FF000000000FC00
0FF000000000FC00
0FF000000000FC00
0FF000000000FC00
0FF000000000FC00
0FF000000000FC00
0FF000000000FC00
0FF000000000FC00
0FF000000000FC00
0FF000000000FC00
0FF000000000FC00
0FF000000000FE00
0FF000000000FE00
0FE000000000FE00
0FE000000000FE00
0FE000000000FE00
0FE000000000FE00
0FE000000000FE00
0FE000000000FE00
0FE000000000FE00
0FE000000000FE00
0FE000000000FE00
0FE000000000FE00
0FE000000000FE00
0FF000000000FE00
0FF000000000FE00
0FF000000000FE00
0FF000000000FE00
0FF000000000FC00
0FF000000000FC00
07F000000000FC00
07F000000001FC00
07F800000001FC00
07F800000001F800
07F800000003F800
03FC00000003F800
03FC00000007F000
01FE00000007F000
01FF0000000FE000
00FF8000001FE000
00FFC000003FC000
007FE000007F8000
003FF80001FF0000
003FFE0007FE0000
000FFFF9FFFC0000
0007FFFFFFF80000
0003FFFFFFF00000
0000FFFFFFC00000
00001FFFFE000000
000000FF80000000
ENDCHAR
STARTCHAR 00B0
ENCODING 176
SWIDTH 765 0
DWIDTH 68 0
BBX 62 101 3 -2
BITMAP
00000000001FE000
0000000000387000
0000000000703800
0000000000701C00
0000000000701C00
0000000000601C00
0000000000001C00
0000000000001C00
0000000000001C00
0000000000001C00
0000000000003800
000000000000F800
000000000001F000
00000007C007C000
0000000FE0070000
0000001FE0060000
0000001FF0040000
0000003FF8040000
0000007FF8040000
0000007FFC000000
000000FCFE000000
000001F87E000000
000001F01F000000
000003E00F800000
000007C007800000
0000070003C00000
00000E0001C00000
00001C0000E00000
0000180000700000
0000000000000000
0000000000000000
0000000000000000
0000000000000000
0000000740000000
000001FFFF000000
00000FFFFFE00000
00007FFFFFF80000
0000FFFFFFFE0000
0003FFF87FFF0000
0007FF0003FFC000
001FFC00007FE000
003FF000003FF000
007FC000000FF800
00FF80000007FC00
01FF00000003FE00
01FE00000001FF00
03FE00000000FF00
07FC00000000FF80
07F8000000007FC0
0FF8000000007FC0
0FF0000000003FE0
1FF0000000003FE0
1FF0000000001FF0
3FE0000000001FF0
3FE0000000001FF0
3FE0000000000FF8
7FC0000000000FF8
7FC0000000000FF8
7FC0000000000FF8
7FC00000000007FC
7FC00000000007FC
FF800000000007FC
FF800000000007FC
FF800000000007FC
FF800000000007FC
FF800000000007FC
FF800000000007FC
FF800000000007FC
FF800000000007FC
FF800000000007FC
FF800000000007FC
FF800000000007FC
FF800000000007FC
7FC00000000007FC
7FC00000000007FC
7FC0000000000FF8
7FC0000000000FF8
7FC0000000000FF8
3FE0000000000FF8
3FE0000000001FF0
3FE0000000001FF0
1FE0000000001FF0
1FF0000000003FE0
0FF0000000003FE0
0FF8000000007FC0
07F8000000007FC0
07FC00000000FF80
03FE00000000FF80
03FE00000001FF00
01FF00000003FE00
00FF80000007FC00
007FC000000FF800
003FE000001FF000
001FF800007FE000
000FFE0001FFC000
0007FFC00FFF8000
0001FFFFFFFE0000
00007FFFFFF80000
00001FFFFFE00000
000007FFFF000000
0000003FF0000000
ENDCHAR
STARTCHAR 00B1
ENCODING 177
SWIDTH 708 0
DWIDTH 63 0
BBX 64 94 2 -2
BITMAP
00000003F8000000
0000000E1C000000
0000001C0E000000
0000001C07000000
0000001C07000000
0000001C03000000
0000000003000000
0000000003000000
0000000007000000
0000000007000000
000000000F000000
000000001E000000
000000007C0003F0
00000000F8000F1C
00000001E0000E06
0000000180000E07
0000000180000C03
0000000180000003
0000000180000003
0000000100000003
0000000000000007
0000000000000007
000000000000000E
000000000000003E
00000000000001FC
00000000000007F0
00000000000007C0
0000000000000400
7FFFC000007FFFC0
FFFFE000007FFFC0
FFFFE000007FFFC0
7FFFC000003FFF80
3FFF8000001FFF00
0FFE00000007FC00
07FC00000003FC00
07FC00000001FC00
07FC00000001FC00
07F800000001FC00
07F800000000FC00
07F800000000FC00
07F800000000FC00
07F800000000FC00
07F800000000FC00
0FF000000000FC00
0FF000000000FC00
0FF000000000FC00
0FF000000000FC00
0FF000000000FC00
0FF000000000FC00
0FF000000000FC00
0FF000000000FC00
0FF000000000FC00
0FF000000000FC00
0FF000000000FC00
0FF000000000FC00
0FF000000000FE00
0FF000000000FE00
0FE000000000FE00
0FE000000000FE00
0FE000000000FE00
0FE000000000FE00
0FE000000000FE00
0FE000000000FE00
0FE000000000FE00
0FE000000000FE00
0FE000000000FE00
0FE000000000FE00
0FE000000000FE00
0FF000000000FE00
0FF000000000FE00
0FF000000000FE00
0FF000000000FE00
0FF000000000FC00
0FF000000000FC00
07F000000000FC00
07F000000001FC00
07F800000001FC00
07F800000001F800
07F800000003F800
03FC00000003F800
03FC00000007F000
01FE00000007F000
01FF0000000FE000
00FF8000001FE000
00FFC000003FC000
007FE000007F8000
003FF80001FF0000
003FFE0007FE0000
000FFFF9FFFC0000
0007FFFFFFF80000
0003FFFFFFF00000
0000FFFFFFC00000
00001FFFFE000000
000000FF80000000
ENDCHAR
STARTCHAR 00B2
ENCODING 178
SWIDTH 652 0
DWIDTH 58 0
BBX 60 85 -2 0
BITMAP
00007C0000000000
00007E0000000000
00007F0000000000
00007F8000000000
00007FC000000000
00003FE000000000
00000FF000000000
000007F800000000
000001FC00000000
000000FE00000000
0000003F00000000
0000000F80000000
00000007C0000000
00000001E0000000
00000000F0000000
0000000000000000
0000000000000000
0000000000000000
0000000000000000
0000000000000000
0000000000000000
7FFFE0000007FFF0
FFFFE000000FFFF0
7FFFE000000FFFF0
7FFFC0000007FFE0
1FFF00000001FFC0
07FE00000000FF80
03FE000000007F00
03FE000000007F00
01FF00000000FE00
00FF00000000FC00
00FF80000000FC00
007F80000001F800
007FC0000001F000
003FE0000003F000
001FE0000007E000
001FF0000007C000
000FF800000FC000
000FF800000F8000
0007FC00001F0000
0003FE00003F0000
0003FE00003E0000
0001FF00007C0000
0000FF8000FC0000
0000FFC000F80000
00007FC001F00000
00003FE003F00000
00001FF007E00000
00001FF007C00000
00000FF80FC00000
000007FC1F800000
000003FE3F000000
000003FF3E000000
000001FF7E000000
000000FFFC000000
0000007FF8000000
0000007FF8000000
0000003FF0000000
0000003FE0000000
0000001FE0000000
0000001FE0000000
0000001FE0000000
0000001FE0000000
0000001FE0000000
0000001FE0000000
0000001FE0000000
0000001FE0000000
0000001FE0000000
0000001FE0000000
0000001FE0000000
0000001FE0000000
0000001FE0000000
0000001FE0000000
0000001FE0000000
0000001FE0000000
0000001FE0000000
0000001FE0000000
0000001FE0000000
0000001FF0000000
0000003FF0000000
000000FFFC000000
000001FFFE000000
000003FFFF000000
000003FFFF000000
000001FFFE000000
ENDCHAR
STARTCHAR 00B3
ENCODING 179
SWIDTH 652 0
DWIDTH 58 0
BBX 60 83 -2 0
BITMAP
00000000000E0000
00000000000E0000
0000001FF01C0000
0000007FFF7C0000
000000FFFFF80000
000000FFFFF80000
000001FFFFF00000
000001C0FFE00000
000003800F000000
0000038000000000
0000030000000000
0000000000000000
0000000000000000
0000000000000000
0000000000000000
0000000000000000
0000000000000000
0000000000000000
0000000000000000
7FFFE0000007FFF0
FFFFE000000FFFF0
7FFFE000000FFFF0
7FFFC0000007FFE0
1FFF00000001FFC0
07FE00000000FF80
03FE000000007F00
03FE000000007F00
01FF00000000FE00
00FF00000000FC00
00FF80000000FC00
007F80000001F800
007FC0000001F000
003FE0000003F000
001FE0000007E000
001FF0000007C000
000FF800000FC000
000FF800000F8000
0007FC00001F0000
0003FE00003F0000
0003FE00003E0000
0001FF00007C0000
0000FF8000FC0000
0000FFC000F80000
00007FC001F00000
00003FE003F00000
00001FF007E00000
00001FF007C00000
00000FF80FC00000
000007FC1F800000
000003FE3F000000
000003FF3E000000
000001FF7E000000
000000FFFC000000
0000007FF8000000
0000007FF8000000
0000003FF0000000
0000003FE0000000
0000001FE0000000
0000001FE0000000
0000001FE0000000
0000001FE0000000
0000001FE0000000
0000001FE0000000
0000001FE0000000
0000001FE0000000
0000001FE0000000
0000001FE0000000
0000001FE0000000
0000001FE0000000
0000001FE0000000
0000001FE0000000
0000001FE0000000
0000001FE0000000
0000001FE0000000
0000001FE0000000
0000001FE0000000
0000001FF0000000
0000003FF0000000
000000FFFC000000
000001FFFE000000
000003FFFF000000
000003FFFF000000
000001FFFE000000
ENDCHAR
STARTCHAR 00B4
ENCODING 180
SWIDTH 270 0
DWIDTH 24 0
BBX 22 86 3 0
BITMAP
0000F0
0001F8
0003FC
0007FC
000FF8
001FF0
003FE0
007F80
00FF00
01FC00
03F800
03E000
078000
0F0000
1C0000
380000
000000
000000
000000
000000
000000
000000
7FFFC0
FFFFC0
FFFFC0
7FFF80
1FFF00
0FFC00
07FC00
07F800
07F800
07F800
07F800
07F800
07F800
07F800
07F800
07F800
07F800
07F800
07F800
07F800
07F800
07F800
07F800
07F800
07F800
07F800
07F800
07F800
07F800
07F800
07F800
07F800
07F800
07F800
07F800
07F800
07F800
07F800
07F800
07F800
07F800
07F800
07F800
07F800
07F800
07F800
07F800
07F800
07F800
07F800
07F800
07F800
07F800
07F800
07F800
07F800
07F800
07FC00
0FFC00
1FFF00
7FFF80
FFFFC0
FFFFC0
7FFFC0
ENDCHAR
STARTCHAR 00B5
ENCODING 181
SWIDTH 270 0
DWIDTH 24 0
BBX 21 86 0 0
BITMAP
780000
FC0000
FE0000
FF0000
FF8000
7FC000
1FE000
0FF000
03F800
01FC00
007E00
001F00
000F80
0003C0
0001E0
000070
000000
000000
000000
000000
000000
000000
0FFFF8
1FFFF8
1FFFF8
0FFFF0
03FFE0
01FF80
00FF80
00FF00
00FF00
00FF00
00FF00
00FF00
00FF00
00FF00
00FF00
00FF00
00FF00
00FF00
00FF00
00FF00
00FF00
00FF00
00FF00
00FF00
00FF00
00FF00
00FF00
00FF00
00FF00
00FF00
00FF00
00FF00
00FF00
00FF00
00FF00
00FF00
00FF00
00FF00
00FF00
00FF00
00FF00
00FF00
00FF00
00FF00
00FF00
00FF00
00FF00
00FF00
00FF00
00FF00
00FF00
00FF00
00FF00
00FF00
00FF00
00FF00
00FF00
00FF80
01FF80
03FFE0
0FFFF0
1FFFF8
1FFFF8
0FFFF8
ENDCHAR
STARTCHAR 00B6
ENCODING 182
SWIDTH 765 0
DWIDTH 68 0
BBX 62 101 3 -15
BITMAP
00000007C0000000
0000000FE0000000
0000001FE0000000
0000001FF0000000
0000003FF8000000
0000007FF8000000
0000007FFC000000
000000FCFE000000
000001F87E000000
000001F01F000000
000003E00F800000
000007C007800000
0000070003C00000
00000E0001C00000
00001C0000E00000
0000180000700000
0000000000000000
0000000000000000
0000000000000000
0000000000000000
0000000740000000
000001FFFF000000
00000FFFFFE00000
00007FFFFFF80000
0000FFFFFFFE0000
0003FFF87FFF0000
0007FF0003FFC000
001FFC00007FE000
003FF000003FF000
007FC000000FF800
00FF80000007FC00
01FF00000003FE00
01FE00000001FF00
03FE00000000FF00
07FC00000000FF80
07F8000000007FC0
0FF8000000007FC0
0FF0000000003FE0
1FF0000000003FE0
1FF0000000001FF0
3FE0000000001FF0
3FE0000000001FF0
3FE0000000000FF8
7FC0000000000FF8
7FC0000000000FF8
7FC0000000000FF8
7FC00000000007FC
7FC00000000007FC
FF800000000007FC
FF800000000007FC
FF800000000007FC
FF800000000007FC
FF800000000007FC
FF800000000007FC
FF800000000007FC
FF800000000007FC
FF800000000007FC
FF800000000007FC
FF800000000007FC
FF800000000007FC
7FC00000000007FC
7FC00000000007FC
7FC0000000000FF8
7FC0000000000FF8
7FC0000000000FF8
3FE0000000000FF8
3FE0000000001FF0
3FE0000000001FF0
1FE0000000001FF0
1FF0000000003FE0
0FF0000000003FE0
0FF8000000007FC0
07F8000000007FC0
07FC00000000FF80
03FE00000000FF80
03FE00000001FF00
01FF00000003FE00
00FF80000007FC00
007FC000000FF800
003FE000001FF000
001FF800007FE000
000FFE0001FFC000
0007FFC00FFF8000
0001FFFFFFFE0000
00007FFFFFF80000
00001FFFFFE00000
000007FFFF000000
0000003FF0000000
0000000000000000
0000000000000000
0000000000000000
0000000000000000
00000007C0000000
0000000FE0000000
0000001FF0000000
0000001FF0000000
0000001FF0000000
0000001FF0000000
0000001FF0000000
0000000FE0000000
00000007C0000000
ENDCHAR
STARTCHAR 00B8
ENCODING 184
SWIDTH 270 0
DWIDTH 24 0
BBX 25 82 -1 0
BITMAP
00000180
00000380
03F00300
0FFF0700
1FFFFF00
3FFFFE00
7FFFFC00
78FFF800
600FF000
E0000000
C0000000
00000000
00000000
00000000
00000000
00000000
00000000
00000000
07FFFC00
0FFFFC00
0FFFFC00
07FFF800
01FFF000
00FFC000
007FC000
007F8000
007F8000
007F8000
007F8000
007F8000
007F8000
007F8000
007F8000
007F8000
007F8000
007F8000
007F8000
007F8000
007F8000
007F8000
007F8000
007F8000
007F8000
007F8000
007F8000
007F8000
007F8000
007F8000
007F8000
007F8000
007F8000
007F8000
007F8000
007F8000
007F8000
007F8000
007F8000
007F8000
007F8000
007F8000
007F8000
007F8000
007F8000
007F8000
007F8000
007F8000
007F8000
007F8000
007F8000
007F8000
007F8000
007F8000
007F8000
007F8000
007F8000
007FC000
00FFC000
01FFF000
07FFF800
0FFFFC00
0FFFFC00
07FFFC00
ENDCHAR
STARTCHAR 00B9
ENCODING 185
SWIDTH 765 0
DWIDTH 68 0
BBX 62 88 3 -2
BITMAP
0000000003C00000
0000000007E00000
000000000FE00000
000000001FE00000
000000003FE00000
000000007FC00000
00000000FF800000
00000001FE000000
00000003FC000000
00000007F0000000
0000000FE0000000
0000001F80000000
0000003E00000000
0000007C00000000
0000007000000000
000000E000000000
0000000000000000
0000000000000000
0000000000000000
0000000000000000
0000000740000000
000001FFFF000000
00000FFFFFE00000
00007FFFFFF80000
0000FFFFFFFE0000
0003FFF87FFF0000
0007FF0003FFC000
001FFC00007FE000
003FF000003FF000
007FC000000FF800
00FF80000007FC00
01FF00000003FE00
01FE00000001FF00
03FE00000000FF00
07FC00000000FF80
07F8000000007FC0
0FF8000000007FC0
0FF0000000003FE0
1FF0000000003FE0
1FF0000000001FF0
3FE0000000001FF0
3FE0000000001FF0
3FE0000000000FF8
7FC0000000000FF8
7FC0000000000FF8
7FC0000000000FF8
7FC00000000007FC
7FC00000000007FC
FF800000000007FC
FF800000000007FC
FF800000000007FC
FF800000000007FC
FF800000000007FC
FF800000000007FC
FF800000000007FC
FF800000000007FC
FF800000000007FC
FF800000000007FC
FF800000000007FC
FF800000000007FC
7FC00000000007FC
7FC00000000007FC
7FC0000000000FF8
7FC0000000000FF8
7FC0000000000FF8
3FE0000000000FF8
3FE0000000001FF0
3FE0000000001FF0
1FE0000000001FF0
1FF0000000003FE0
0FF0000000003FE0
0FF8000000007FC0
07F8000000007FC0
07FC00000000FF80
03FE00000000FF80
03FE00000001FF00
01FF00000003FE00
00FF80000007FC00
007FC000000FF800
003FE000001FF000
001FF800007FE000
000FFE0001FFC000
0007FFC00FFF8000
0001FFFFFFFE0000
00007FFFFFF80000
00001FFFFFE00000
000007FFFF000000
0000003FF0000000
ENDCHAR
STARTCHAR 00BA
ENCODING 186
SWIDTH 708 0
DWIDTH 63 0
BBX 64 94 2 -2
BITMAP
00000003F8000000
0000000E1C000000
0000001C0E000000
0000001C07000000
0000001C07000000
0000001C03000000
0000000003000000
0000000003000000
0000000007000000
0000000007000000
000000000F000000
000000001E000000
000000007C0003F0
00000000F8000F1C
00000001E0000E06
0000000180000E07
0000000180000C03
0000000180000003
0000000180000003
0000000100000003
0000000000000007
0000000000000007
000000000000000E
000000000000003E
00000000000001FC
00000000000007F0
00000000000007C0
0000000000000400
7FFFC000007FFFC0
FFFFE000007FFFC0
FFFFE000007FFFC0
7FFFC000003FFF80
3FFF8000001FFF00
0FFE00000007FC00
07FC00000003FC00
07FC00000001FC00
07FC00000001FC00
07F800000001FC00
07F800000000FC00
07F800000000FC00
07F800000000FC00
07F800000000FC00
07F800000000FC00
0FF000000000FC00
0FF000000000FC00
0FF000000000FC00
0FF000000000FC00
0FF000000000FC00
0FF000000000FC00
0FF000000000FC00
0FF000000000FC00
0FF000000000FC00
0FF000000000FC00
0FF000000000FC00
0FF000000000FC00
0FF000000000FE00
0FF000000000FE00
0FE000000000FE00
0FE000000000FE00
0FE000000000FE00
0FE000000000FE00
0FE000000000FE00
0FE000000000FE00
0FE000000000FE00
0FE000000000FE00
0FE000000000FE00
0FE000000000FE00
0FE000000000FE00
0FF000000000FE00
0FF000000000FE00
0FF000000000FE00
0FF000000000FE00
0FF000000000FC00
0FF000000000FC00
07F000000000FC00
07F000000001FC00
07F800000001FC00
07F800000001F800
07F800000003F800
03FC00000003F800
03FC00000007F000
01FE00000007F000
01FF0000000FE000
00FF8000001FE000
00FFC000003FC000
007FE000007F8000
003FF80001FF0000
003FFE0007FE0000
000FFFF9FFFC0000
0007FFFFFFF80000
0003FFFFFFF00000
0000FFFFFFC00000
00001FFFFE000000
000000FF80000000
ENDCHAR
STARTCHAR 00BB
ENCODING 187
SWIDTH 708 0
DWIDTH 63 0
BBX 64 100 2 -2
BITMAP
0000000000380000
0000000000380000
0000007F80700000
000001FFF8F00000
000001FFFFF00000
000003FFFFE00000
000007FFFFC00000
00000707FF800000
000006007E000000
00000E0000000000
00000C0000000000
0000000000000000
0000000000000000
0000000000000000
0000000000000000
0000000000000000
0000000000000000
0000000000000000
00000000000003F0
0000000000000F1C
0000000000000E06
0000000000000E07
0000000000000C03
0000000000000003
0000000000000003
0000000000000003
0000000000000007
0000000000000007
000000000000000E
000000000000003E
00000000000001FC
00000000000007F0
00000000000007C0
0000000000000400
7FFFC000007FFFC0
FFFFE000007FFFC0
FFFFE000007FFFC0
7FFFC000003FFF80
3FFF8000001FFF00
0FFE00000007FC00
07FC00000003FC00
07FC00000001FC00
07FC00000001FC00
07F800000001FC00
07F800000000FC00
07F800000000FC00
07F800000000FC00
07F800000000FC00
07F800000000FC00
0FF000000000FC00
0FF000000000FC00
0FF000000000FC00
0FF000000000FC00
0FF000000000FC00
0FF000000000FC00
0FF000000000FC00
0FF000000000FC00
0FF000000000FC00
0FF000000000FC00
0FF000000000FC00
0FF000000000FC00
0FF000000000FE00
0FF000000000FE00
0FE000000000FE00
0FE000000000FE00
0FE000000000FE00
0FE000000000FE00
0FE000000000FE00
0FE000000000FE00
0FE000000000FE00
0FE000000000FE00
0FE000000000FE00
0FE000000000FE00
0FE000000000FE00
0FF000000000FE00
0FF000000000FE00
0FF000000000FE00
0FF000000000FE00
0FF000000000FC00
0FF000000000FC00
07F000000000FC00
07F000000001FC00
07F800000001FC00
07F800000001F800
07F800000003F800
03FC00000003F800
03FC00000007F000
01FE00000007F000
01FF0000000FE000
00FF8000001FE000
00FFC000003FC000
007FE000007F8000
003FF80001FF0000
003FFE0007FE0000
000FFFF9FFFC0000
0007FFFFFFF80000
0003FFFFFFF00000
0000FFFFFFC00000
00001FFFFE000000
000000FF80000000
ENDCHAR
STARTCHAR 00BC
ENCODING 188
SWIDTH 765 0
DWIDTH 68 0
BBX 62 88 3 -2
BITMAP
00000F0000000000
00001F8000000000
00001FC000000000
00001FE000000000
00001FF000000000
00000FF800000000
000007FC00000000
000001FE00000000
0000007F00000000
0000003F80000000
0000000FC0000000
00000007E0000000
00000001F0000000
0000000078000000
000000003C000000
000000000E000000
0000000000000000
0000000000000000
0000000000000000
0000000000000000
0000000740000000
000001FFFF000000
00000FFFFFE00000
00007FFFFFF80000
0000FFFFFFFE0000
0003FFF87FFF0000
0007FF0003FFC000
001FFC00007FE000
003FF000003FF000
007FC000000FF800
00FF80000007FC00
01FF00000003FE00
01FE00000001FF00
03FE00000000FF00
07FC00000000FF80
07F8000000007FC0
0FF8000000007FC0
0FF0000000003FE0
1FF0000000003FE0
1FF0000000001FF0
3FE0000000001FF0
3FE0000000001FF0
3FE0000000000FF8
7FC0000000000FF8
7FC0000000000FF8
7FC0000000000FF8
7FC00000000007FC
7FC00000000007FC
FF800000000007FC
FF800000000007FC
FF800000000007FC
FF800000000007FC
FF800000000007FC
FF800000000007FC
FF800000000007FC
FF800000000007FC
FF800000000007FC
FF800000000007FC
FF800000000007FC
FF800000000007FC
7FC00000000007FC
7FC00000000007FC
7FC0000000000FF8
7FC0000000000FF8
7FC0000000000FF8
3FE0000000000FF8
3FE0000000001FF0
3FE0000000001FF0
1FE0000000001FF0
1FF0000000003FE0
0FF0000000003FE0
0FF8000000007FC0
07F8000000007FC0
07FC00000000FF80
03FE00000000FF80
03FE00000001FF00
01FF00000003FE00
00FF80000007FC00
007FC000000FF800
003FE000001FF000
001FF800007FE000
000FFE0001FFC000
0007FFC00FFF8000
0001FFFFFFFE0000
00007FFFFFF80000
00001FFFFFE00000
000007FFFF000000
0000003FF0000000
ENDCHAR
STARTCHAR 00BD
ENCODING 189
SWIDTH 765 0
DWIDTH 68 0
BBX 62 92 3 -2
BITMAP
00000003E0000000
0000000FF8000000
0000001C1C000000
000000380E000000
0000003806000000
0000003807000000
0000000007000000
0000000007000000
0000000007000000
000000000E000000
000000000E000000
000000001E000000
000000007C000000
00000001F8000000
00000003E0000000
0000000380000000
0000000300000000
0000000300000000
0000000300000000
0000000300000000
0000000000000000
0000000000000000
0000000000000000
0000000000000000
0000000740000000
000001FFFF000000
00000FFFFFE00000
00007FFFFFF80000
0000FFFFFFFE0000
0003FFF87FFF0000
0007FF0003FFC000
001FFC00007FE000
003FF000003FF000
007FC000000FF800
00FF80000007FC00
01FF00000003FE00
01FE00000001FF00
03FE00000000FF00
07FC00000000FF80
07F8000000007FC0
0FF8000000007FC0
0FF0000000003FE0
1FF0000000003FE0
1FF0000000001FF0
3FE0000000001FF0
3FE0000000001FF0
3FE0000000000FF8
7FC0000000000FF8
7FC0000000000FF8
7FC0000000000FF8
7FC00000000007FC
7FC00000000007FC
FF800000000007FC
FF800000000007FC
FF800000000007FC
FF800000000007FC
FF800000000007FC
FF800000000007FC
FF800000000007FC
FF800000000007FC
FF800000000007FC
FF800000000007FC
FF800000000007FC
FF800000000007FC
7FC00000000007FC
7FC00000000007FC
7FC0000000000FF8
7FC0000000000FF8
7FC0000000000FF8
3FE0000000000FF8
3FE0000000001FF0
3FE0000000001FF0
1FE0000000001FF0
1FF0000000003FE0
0FF0000000003FE0
0FF8000000007FC0
07F8000000007FC0
07FC00000000FF80
03FE00000000FF80
03FE00000001FF00
01FF00000003FE00
00FF80000007FC00
007FC000000FF800
003FE000001FF000
001FF800007FE000
000FFE0001FFC000
0007FFC00FFF8000
0001FFFFFFFE0000
00007FFFFFF80000
00001FFFFFE00000
000007FFFF000000
0000003FF0000000
ENDCHAR
STARTCHAR 00BE
ENCODING 190
SWIDTH 765 0
DWIDTH 68 0
BBX 62 85 3 -2
BITMAP
0000000000600000
0000007800E00000
000001FF80E00000
000003FFFFE00000
000007FFFFC00000
00000FFFFF800000
00000FFFFF000000
00001C03FE000000
00001C0000000000
0000180000000000
0000000000000000
0000000000000000
0000000000000000
0000000000000000
0000000000000000
0000000000000000
0000000000000000
0000000740000000
000001FFFF000000
00000FFFFFE00000
00007FFFFFF80000
0000FFFFFFFE0000
0003FFF87FFF0000
0007FF0003FFC000
001FFC00007FE000
003FF000003FF000
007FC000000FF800
00FF80000007FC00
01FF00000003FE00
01FE00000001FF00
03FE00000000FF00
07FC00000000FF80
07F8000000007FC0
0FF8000000007FC0
0FF0000000003FE0
1FF0000000003FE0
1FF0000000001FF0
3FE0000000001FF0
3FE0000000001FF0
3FE0000000000FF8
7FC0000000000FF8
7FC0000000000FF8
7FC0000000000FF8
7FC00000000007FC
7FC00000000007FC
FF800000000007FC
FF800000000007FC
FF800000000007FC
FF800000000007FC
FF800000000007FC
FF800000000007FC
FF800000000007FC
FF800000000007FC
FF800000000007FC
FF800000000007FC
FF800000000007FC
FF800000000007FC
7FC00000000007FC
7FC00000000007FC
7FC0000000000FF8
7FC0000000000FF8
7FC0000000000FF8
3FE0000000000FF8
3FE0000000001FF0
3FE0000000001FF0
1FE0000000001FF0
1FF0000000003FE0
0FF0000000003FE0
0FF8000000007FC0
07F8000000007FC0
07FC00000000FF80
03FE00000000FF80
03FE00000001FF00
01FF00000003FE00
00FF80000007FC00
007FC000000FF800
003FE000001FF000
001FF800007FE000
000FFE0001FFC000
0007FFC00FFF8000
0001FFFFFFFE0000
00007FFFFFF80000
00001FFFFFE00000
000007FFFF000000
0000003FF0000000
ENDCHAR
STARTCHAR 00BF
ENCODING 191
SWIDTH 708 0
DWIDTH 63 0
BBX 64 95 2 -15
BITMAP
00000000000003F0
0000000000000F1C
0000000000000E06
0000000000000E07
0000000000000C03
0000000000000003
0000000000000003
0000000000000003
0000000000000007
0000000000000007
000000000000000E
000000000000003E
00000000000001FC
00000000000007F0
00000000000007C0
0000000000000400
7FFFC000007FFFC0
FFFFE000007FFFC0
FFFFE000007FFFC0
7FFFC000003FFF80
3FFF8000001FFF00
0FFE00000007FC00
07FC00000003FC00
07FC00000001FC00
07FC00000001FC00
07F800000001FC00
07F800000000FC00
07F800000000FC00
07F800000000FC00
07F800000000FC00
07F800000000FC00
0FF000000000FC00
0FF000000000FC00
0FF000000000FC00
0FF000000000FC00
0FF000000000FC00
0FF000000000FC00
0FF000000000FC00
0FF000000000FC00
0FF000000000FC00
0FF000000000FC00
0FF000000000FC00
0FF000000000FC00
0FF000000000FE00
0FF000000000FE00
0FE000000000FE00
0FE000000000FE00
0FE000000000FE00
0FE000000000FE00
0FE000000000FE00
0FE000000000FE00
0FE000000000FE00
0FE000000000FE00
0FE000000000FE00
0FE000000000FE00
0FE000000000FE00
0FF000000000FE00
0FF000000000FE00
0FF000000000FE00
0FF000000000FE00
0FF000000000FC00
0FF000000000FC00
07F000000000FC00
07F000000001FC00
07F800000001FC00
07F800000001F800
07F800000003F800
03FC00000003F800
03FC00000007F000
01FE00000007F000
01FF0000000FE000
00FF8000001FE000
00FFC000003FC000
007FE000007F8000
003FF80001FF0000
003FFE0007FE0000
000FFFF9FFFC0000
0007FFFFFFF80000
0003FFFFFFF00000
0000FFFFFFC00000
00001FFFFE000000
000000FF80000000
0000000000000000
0000000000000000
0000000000000000
0000001E00000000
0000003F00000000
0000007F80000000
000000FF80000000
000000FFC0000000
000000FFC0000000
000000FFC0000000
0000007F80000000
0000003F00000000
0000001C00000000
ENDCHAR
STARTCHAR 00C0
ENCODING 192
SWIDTH 652 0
DWIDTH 58 0
BBX 60 96 -1 0
BITMAP
1E00000000000000
3F80000000000000
3FC0000000000000
3FE0000000000000
1FF0000000000000
0FF8000000000000
07FC000000000000
01FC000000000000
00FE000000000000
003F000000000000
001F800F80000000
0007C01FC0000000
0001E03FC0000000
0000F03FE0000000
0000387FF0000000
000004FFF0000000
000000FFF8000000
000001F8FC000000
000003F07C000000
000003E03E000000
000007C01F000000
00000F800F000000
00000F0007800000
00001E0003C00000
0000380001C00000
0000300000E00000
0000000000000000
0000000000000000
0000000000000000
0000000000000000
0000000400000000
0000000E00000000
0000001F00000000
0000001F80000000
0000003FC0000000
0000003FC0000000
0000007FE0000000
000000FFF0000000
000000FFF0000000
000001FFF8000000
000001FFF8000000
000003FFFC000000
000003F3FC000000
000007F3FE000000
000007E1FE000000
00000FE1FF000000
00000FC0FF000000
00000FC0FF800000
00001F807F800000
00001F807FC00000
00003F003FC00000
00003F003FC00000
00007E003FE00000
00007E001FE00000
00007E001FF00000
0000FC000FF00000
0000FC000FF80000
0001F80007F80000
0001F80007F80000
0001F80007FC0000
0003F00003FC0000
0003F00003FE0000
0007E00001FE0000
0007E00001FE0000
0007E00001FF0000
000FC00000FF0000
000FC00000FF0000
001F800000FF8000
001F8000007F8000
001FFFFFFFFFC000
003FFFFFFFFFC000
003FFFFFFFFFC000
003FFFFFFFFFE000
007FFFFFFFFFE000
007E0000001FE000
00FE0000001FF000
00FC0000000FF000
00FC0000000FF000
01FC0000000FF800
01F800000007F800
01F800000007F800
03F800000003FC00
03F000000003FC00
03F000000003FC00
07F000000003FC00
07F000000001FE00
07F000000001FE00
0FE000000001FE00
0FE000000001FF00
1FF000000001FF00
1FF000000001FF80
3FFC00000007FFC0
7FFE0000000FFFE0
FFFF0000001FFFF0
FFFF0000001FFFF0
7FFE0000000FFFE0
ENDCHAR
STARTCHAR 00C1
ENCODING 193
SWIDTH 652 0
DWIDTH 58 0
BBX 60 86 -1 0
BITMAP
0000000003800000
000000000FC00000
000000001FE00000
000000003FE00000
000000007FC00000
00000000FF800000
00000001FF000000
00000003FE000000
00000007F8000000
00000007E0000000
0000000FC0000000
0000001F00000000
0000003C00000000
0000007800000000
000000E000000000
000001C000000000
0000000000000000
0000000000000000
0000000000000000
0000000000000000
0000000400000000
0000000E00000000
0000001F00000000
0000001F80000000
0000003FC0000000
0000003FC0000000
0000007FE0000000
000000FFF0000000
000000FFF0000000
000001FFF8000000
000001FFF8000000
000003FFFC000000
000003F3FC000000
000007F3FE000000
000007E1FE000000
00000FE1FF000000
00000FC0FF000000
00000FC0FF800000
00001F807F800000
00001F807FC00000
00003F003FC00000
00003F003FC00000
00007E003FE00000
00007E001FE00000
00007E001FF00000
0000FC000FF00000
0000FC000FF80000
0001F80007F80000
0001F80007F80000
0001F80007FC0000
0003F00003FC0000
0003F00003FE0000
0007E00001FE0000
0007E00001FE0000
0007E00001FF0000
000FC00000FF0000
000FC00000FF0000
001F800000FF8000
001F8000007F8000
001FFFFFFFFFC000
003FFFFFFFFFC000
003FFFFFFFFFC000
003FFFFFFFFFE000
007FFFFFFFFFE000
007E0000001FE000
00FE0000001FF000
00FC0000000FF000
00FC0000000FF000
01FC0000000FF800
01F800000007F800
01F800000007F800
03F800000003FC00
03F000000003FC00
03F000000003FC00
07F000000003FC00
07F000000001FE00
07F000000001FE00
0FE000000001FE00
0FE000000001FF00
1FF000000001FF00
1FF000000001FF80
3FFC00000007FFC0
7FFE0000000FFFE0
FFFF0000001FFFF0
FFFF0000001FFFF0
7FFE0000000FFFE0
ENDCHAR
STARTCHAR 00C2
ENCODING 194
SWIDTH 652 0
DWIDTH 58 0
BBX 60 86 -1 0
BITMAP
0000000F80000000
0000001FC0000000
0000003FC0000000
0000003FE0000000
0000007FF0000000
000000FFF0000000
000000FFF8000000
000001F8FC000000
000003F07C000000
000003E03E000000
000007C01F000000
00000F800F000000
00000F0007800000
00001E0003C00000
0000380001C00000
0000300000E00000
0000000000000000
0000000000000000
0000000000000000
0000000000000000
0000000400000000
0000000E00000000
0000001F00000000
0000001F80000000
0000003FC0000000
0000003FC0000000
0000007FE0000000
000000FFF0000000
000000FFF0000000
000001FFF8000000
000001FFF8000000
000003FFFC000000
000003F3FC000000
000007F3FE000000
000007E1FE000000
00000FE1FF000000
00000FC0FF000000
00000FC0FF800000
00001F807F800000
00001F807FC00000
00003F003FC00000
00003F003FC00000
00007E003FE00000
00007E001FE00000
00007E001FF00000
0000FC000FF00000
0000FC000FF80000
0001F80007F80000
0001F80007F80000
0001F80007FC0000
0003F00003FC0000
0003F00003FE0000
0007E00001FE0000
0007E00001FE0000
0007E00001FF0000
000FC00000FF0000
000FC00000FF0000
001F800000FF8000
001F8000007F8000
001FFFFFFFFFC000
003FFFFFFFFFC000
003FFFFFFFFFC000
003FFFFFFFFFE000
007FFFFFFFFFE000
007E0000001FE000
00FE0000001FF000
00FC0000000FF000
00FC0000000FF000
01FC0000000FF800
01F800000007F800
01F800000007F800
03F800000003FC00
03F000000003FC00
03F000000003FC00
07F000000003FC00
07F000000001FE00
07F000000001FE00
0FE000000001FE00
0FE000000001FF00
1FF000000001FF00
1FF000000001FF80
3FFC00000007FFC0
7FFE0000000FFFE0
FFFF0000001FFFF0
FFFF0000001FFFF0
7FFE0000000FFFE0
ENDCHAR
STARTCHAR 00C3
ENCODING 195
SWIDTH 652 0
DWIDTH 58 0
BBX 60 96 -1 0
BITMAP
00000000000001C0
00000000000007E0
0000000000000FF0
0000000000001FF0
0000000000003FE0
0000000000007FC0
0000000000007F80
000000000000FF00
000000000001FC00
000000000003F000
0000000F8007E000
0000001FC00F8000
0000003FC01F0000
0000003FE03C0000
0000007FF0700000
000000FFF0E00000
000000FFF8000000
000001F8FC000000
000003F07C000000
000003E03E000000
000007C01F000000
00000F800F000000
00000F0007800000
00001E0003C00000
0000380001C00000
0000300000E00000
0000000000000000
0000000000000000
0000000000000000
0000000000000000
0000000400000000
0000000E00000000
0000001F00000000
0000001F80000000
0000003FC0000000
0000003FC0000000
0000007FE0000000
000000FFF0000000
000000FFF0000000
000001FFF8000000
000001FFF8000000
000003FFFC000000
000003F3FC000000
000007F3FE000000
000007E1FE000000
00000FE1FF000000
00000FC0FF000000
00000FC0FF800000
00001F807F800000
00001F807FC00000
00003F003FC00000
00003F003FC00000
00007E003FE00000
00007E001FE00000
00007E001FF00000
0000FC000FF00000
0000FC000FF80000
0001F80007F80000
0001F80007F80000
0001F80007FC0000
0003F00003FC0000
0003F00003FE0000
0007E00001FE0000
0007E00001FE0000
0007E00001FF0000
000FC00000FF0000
000FC00000FF0000
001F800000FF8000
001F8000007F8000
001FFFFFFFFFC000
003FFFFFFFFFC000
003FFFFFFFFFC000
003FFFFFFFFFE000
007FFFFFFFFFE000
007E0000001FE000
00FE0000001FF000
00FC0000000FF000
00FC0000000FF000
01FC0000000FF800
01F800000007F800
01F800000007F800
03F800000003FC00
03F000000003FC00
03F000000003FC00
07F000000003FC00
07F000000001FE00
07F000000001FE00
0FE000000001FE00
0FE000000001FF00
1FF000000001FF00
1FF000000001FF80
3FFC00000007FFC0
7FFE0000000FFFE0
FFFF0000001FFFF0
FFFF0000001FFFF0
7FFE0000000FFFE0
ENDCHAR
STARTCHAR 00C4
ENCODING 196
SWIDTH 652 0
DWIDTH 58 0
BBX 60 100 -1 0
BITMAP
0000000000FF0000
0000000001C38000
000000000380C000
000000000380E000
000000000380E000
0000000001006000
0000000000006000
000000000000E000
000000000000E000
000000000000E000
000000000001C000
000000000007C000
00000000000F8000
00000000003E0000
0000000F80380000
0000001FC0300000
0000003FC0300000
0000003FE0200000
0000007FF0200000
000000FFF0000000
000000FFF8000000
000001F8FC000000
000003F07C000000
000003E03E000000
000007C01F000000
00000F800F000000
00000F0007800000
00001E0003C00000
0000380001C00000
0000300000E00000
0000000000000000
0000000000000000
0000000000000000
0000000000000000
0000000400000000
0000000E00000000
0000001F00000000
0000001F80000000
0000003FC0000000
0000003FC0000000
0000007FE0000000
000000FFF0000000
000000FFF0000000
000001FFF8000000
000001FFF8000000
000003FFFC000000
000003F3FC000000
000007F3FE000000
000007E1FE000000
00000FE1FF000000
00000FC0FF000000
00000FC0FF800000
00001F807F800000
00001F807FC00000
00003F003FC00000
00003F003FC00000
00007E003FE00000
00007E001FE00000
00007E001FF00000
0000FC000FF00000
0000FC000FF80000
0001F80007F80000
0001F80007F80000
0001F80007FC0000
0003F00003FC0000
0003F00003FE0000
0007E00001FE0000
0007E00001FE0000
0007E00001FF0000
000FC00000FF0000
000FC00000FF0000
001F800000FF8000
001F8000007F8000
001FFFFFFFFFC000
003FFFFFFFFFC000
003FFFFFFFFFC000
003FFFFFFFFFE000
007FFFFFFFFFE000
007E0000001FE000
00FE0000001FF000
00FC0000000FF000
00FC0000000FF000
01FC0000000FF800
01F800000007F800
01F800000007F800
03F800000003FC00
03F000000003FC00
03F000000003FC00
07F000000003FC00
07F000000001FE00
07F000000001FE00
0FE000000001FE00
0FE000000001FF00
1FF000000001FF00
1FF000000001FF80
3FFC00000007FFC0
7FFE0000000FFFE0
FFFF0000001FFFF0
FFFF0000001FFFF0
7FFE0000000FFFE0
ENDCHAR
STARTCHAR 00C5
ENCODING 197
SWIDTH 652 0
DWIDTH 58 0
BBX 60 97 -1 0
BITMAP
0000000000E00000
0000000000C00000
000001FE01C00000
000007FFE3C00000
00000FFFFF800000
00000FFFFF800000
00001FFFFF000000
00001C0FFE000000
00003801F0000000
0000300000000000
0000300000000000
0000000F80000000
0000001FC0000000
0000003FC0000000
0000003FE0000000
0000007FF0000000
000000FFF0000000
000000FFF8000000
000001F8FC000000
000003F07C000000
000003E03E000000
000007C01F000000
00000F800F000000
00000F0007800000
00001E0003C00000
0000380001C00000
0000300000E00000
0000000000000000
0000000000000000
0000000000000000
0000000000000000
0000000400000000
0000000E00000000
0000001F00000000
0000001F80000000
0000003FC0000000
0000003FC0000000
0000007FE0000000
000000FFF0000000
000000FFF0000000
000001FFF8000000
000001FFF8000000
000003FFFC000000
000003F3FC000000
000007F3FE000000
000007E1FE000000
00000FE1FF000000
00000FC0FF000000
00000FC0FF800000
00001F807F800000
00001F807FC00000
00003F003FC00000
00003F003FC00000
00007E003FE00000
00007E001FE00000
00007E001FF00000
0000FC000FF00000
0000FC000FF80000
0001F80007F80000
0001F80007F80000
0001F80007FC0000
0003F00003FC0000
0003F00003FE0000
0007E00001FE0000
0007E00001FE0000
0007E00001FF0000
000FC00000FF0000
000FC00000FF0000
001F800000FF8000
001F8000007F8000
001FFFFFFFFFC000
003FFFFFFFFFC000
003FFFFFFFFFC000
003FFFFFFFFFE000
007FFFFFFFFFE000
007E0000001FE000
00FE0000001FF000
00FC0000000FF000
00FC0000000FF000
01FC0000000FF800
01F800000007F800
01F800000007F800
03F800000003FC00
03F000000003FC00
03F000000003FC00
07F000000003FC00
07F000000001FE00
07F000000001FE00
0FE000000001FE00
0FE000000001FF00
1FF000000001FF00
1FF000000001FF80
3FFC00000007FFC0
7FFE0000000FFFE0
FFFF0000001FFFF0
FFFF0000001FFFF0
7FFE0000000FFFE0
ENDCHAR
STARTCHAR 00C6
ENCODING 198
SWIDTH 652 0
DWIDTH 58 0
BBX 60 100 -1 -14
BITMAP
0000000F80000000
0000001FC0000000
0000003FC0000000
0000003FE0000000
0000007FF0000000
000000FFF0000000
000000FFF8000000
000001F8FC000000
000003F07C000000
000003E03E000000
000007C01F000000
00000F800F000000
00000F0007800000
00001E0003C00000
0000380001C00000
0000300000E00000
0000000000000000
0000000000000000
0000000000000000
0000000000000000
0000000400000000
0000000E00000000
0000001F00000000
0000001F80000000
0000003FC0000000
0000003FC0000000
0000007FE0000000
000000FFF0000000
000000FFF0000000
000001FFF8000000
000001FFF8000000
000003FFFC000000
000003F3FC000000
000007F3FE000000
000007E1FE000000
00000FE1FF000000
00000FC0FF000000
00000FC0FF800000
00001F807F800000
00001F807FC00000
00003F003FC00000
00003F003FC00000
00007E003FE00000
00007E001FE00000
00007E001FF00000
0000FC000FF00000
0000FC000FF80000
0001F80007F80000
0001F80007F80000
0001F80007FC0000
0003F00003FC0000
0003F00003FE0000
0007E00001FE0000
0007E00001FE0000
0007E00001FF0000
000FC00000FF0000
000FC00000FF0000
001F800000FF8000
001F8000007F8000
001FFFFFFFFFC000
003FFFFFFFFFC000
003FFFFFFFFFC000
003FFFFFFFFFE000
007FFFFFFFFFE000
007E0000001FE000
00FE0000001FF000
00FC0000000FF000
00FC0000000FF000
01FC0000000FF800
01F800000007F800
01F800000007F800
03F800000003FC00
03F000000003FC00
03F000000003FC00
07F000000003FC00
07F000000001FE00
07F000000001FE00
0FE000000001FE00
0FE000000001FF00
1FF000000001FF00
1FF000000001FF80
3FFC00000007FFC0
7FFE0000000FFFE0
FFFF0000001FFFF0
FFFF0000001FFFF0
7FFE0000000FFFE0
0000000000000000
0000000000000000
0000000000000000
0000000000000000
0000003800000000
000000FE00000000
000001FF00000000
000001FF00000000
000001FF00000000
000001FF00000000
000001FF00000000
000001FF00000000
000000FE00000000
0000003800000000
ENDCHAR
STARTCHAR 00C7
ENCODING 199
SWIDTH 720 0
DWIDTH 64 0
BBX 62 64 0 0
BITMAP
0FFFFFFFF0000000
1FFFFFFFFF000000
1FFFFFFFFFE00000
0FFFFFFFFFF80000
03FFFC0FFFFE0000
00FFC0001FFF8000
00FF800003FFC000
00FF800000FFE000
00FF8000003FF000
00FF0000001FF800
00FF00000007FC00
00FF00000003FE00
00FF00000001FF00
00FF00000001FF80
00FF00000000FF80
00FF000000007FC0
00FF000000007FC0
00FF000000003FE0
00FF000000003FE0
00FF000000001FF0
00FF000000001FF0
00FF000000001FF0
00FF000000001FF8
00FF000000000FF8
00FF000000000FF8
00FF000000000FF8
00FF000000000FF8
7FFFFFFF80000FF8
FFFFFFFF80000FFC
FFFFFFFF80000FFC
7FFFFFFF80000FFC
00FF0000000007FC
00FF000000000FFC
00FF000000000FFC
00FF000000000FFC
00FF000000000FFC
00FF000000000FF8
00FF000000000FF8
00FF000000000FF8
00FF000000000FF8
00FF000000000FF8
00FF000000001FF8
00FF000000001FF0
00FF000000001FF0
00FF000000003FF0
00FF000000003FE0
00FF000000003FE0
00FF000000007FC0
00FF00000000FFC0
00FF00000000FF80
00FF00000001FF80
00FF00000003FF00
00FF00000007FE00
00FF8000000FFC00
00FF8000001FF800
00FF8000007FF000
00FF800000FFE000
00FFC00007FFC000
01FFE0003FFF0000
03FFFE1FFFFE0000
0FFFFFFFFFF00000
1FFFFFFFFFC00000
1FFFFFFFFE000000
0FFFFFFF80000000
ENDCHAR
STARTCHAR 00C8
ENCODING 200
SWIDTH 607 0
DWIDTH 54 0
BBX 51 90 3 0
BITMAP
000001FC000000
0000070F000000
00000603000000
00000E03800000
00000E01800000
00000E01800000
00000001C00000
00000001C00000
00000001800000
00000003800000
00000007800000
0000000F000000
0000003E000000
0000007C000000
000000F0000000
000000C0000000
000000C0000000
000000C0000000
000000C0000000
00000000000000
00000000000000
00000000000000
00000000000000
00000000000000
00000000000000
00000000000000
FFFFFFFFFFFC00
FFFFFFFFFFFE00
FFFFFFFFFFFE00
7FFFFFFFFFFE00
1FFFFFFFFFFE00
0FFE000007FF00
07FC000000FF00
07F80000003F00
07F80000001F00
07F80000000F00
07F80000000600
07F80000000000
07F80000000000
07F80000000000
07F80000000000
07F80000000000
07F80000000000
07F80000000000
07F80000000000
07F80000000000
07F80000000000
07F80000000000
07F80000000000
07F80000000000
07F80000038000
07F800000F8000
07F80000FF8000
07FFFFFFFF8000
07FFFFFFFF8000
07FFFFFFFF8000
07FFFFFFFF8000
07FFFFFFFF8000
07F800000F8000
07F80000038000
07F80000000000
07F80000000000
07F80000000000
07F80000000000
07F80000000000
07F80000000000
07F80000000000
07F80000000000
07F80000000000
07F80000000000
07F80000000000
07F80000000000
07F80000000000
07F80000000000
07F80000000000
07F80000000000
07F80000000000
07F80000000000
07F800000001C0
07F800000003E0
07F800000007E0
07F80000000FE0
07F80000001FC0
0FFC000000FFC0
0FFF00000FFFC0
3FFFFFFFFFFFC0
7FFFFFFFFFFFC0
FFFFFFFFFFFF80
FFFFFFFFFFFF80
7FFFFFFFFFFE00
ENDCHAR
STARTCHAR 00C9
ENCODING 201
SWIDTH 607 0
DWIDTH 54 0
BBX 51 86 3 0
BITMAP
00000000780000
00000000FC0000
00000001FC0000
00000003FC0000
00000007FC0000
0000000FF80000
0000001FF00000
0000003FC00000
0000007F000000
000000FE000000
000001F8000000
000003F0000000
000007C0000000
00000F00000000
00001E00000000
00003800000000
00000000000000
00000000000000
00000000000000
00000000000000
00000000000000
00000000000000
FFFFFFFFFFFC00
FFFFFFFFFFFE00
FFFFFFFFFFFE00
7FFFFFFFFFFE00
1FFFFFFFFFFE00
0FFE000007FF00
07FC000000FF00
07F80000003F00
07F80000001F00
07F80000000F00
07F80000000600
07F80000000000
07F80000000000
07F80000000000
07F80000000000
07F80000000000
07F80000000000
07F80000000000
07F80000000000
07F80000000000
07F80000000000
07F80000000000
07F80000000000
07F80000000000
07F80000038000
07F800000F8000
07F80000FF8000
07FFFFFFFF8000
07FFFFFFFF8000
07FFFFFFFF8000
07FFFFFFFF8000
07FFFFFFFF8000
07F800000F8000
07F80000038000
07F80000000000
07F80000000000
07F80000000000
07F80000000000
07F80000000000
07F80000000000
07F80000000000
07F80000000000
07F80000000000
07F80000000000
07F80000000000
07F80000000000
07F80000000000
07F80000000000
07F80000000000
07F80000000000
07F80000000000
07F80000000000
07F800000001C0
07F800000003E0
07F800000007E0
07F80000000FE0
07F80000001FC0
0FFC000000FFC0
0FFF00000FFFC0
3FFFFFFFFFFFC0
7FFFFFFFFFFFC0
FFFFFFFFFFFF80
FFFFFFFFFFFF80
7FFFFFFFFFFE00
ENDCHAR
STARTCHAR 00CA
ENCODING 202
SWIDTH 607 0
DWIDTH 54 0
BBX 51 86 3 0
BITMAP
000001F8000000
000001F8000000
000003FC000000
000007FE000000
000007FE000000
00000FFF000000
00001FFF800000
00001F9F800000
00003F0FC00000
00007E07E00000
00007803E00000
0000F000F00000
0001E000780000
0001C000380000
000380001C0000
000700000E0000
00000000000000
00000000000000
00000000000000
00000000000000
00000000000000
00000000000000
FFFFFFFFFFFC00
FFFFFFFFFFFE00
FFFFFFFFFFFE00
7FFFFFFFFFFE00
1FFFFFFFFFFE00
0FFE000007FF00
07FC000000FF00
07F80000003F00
07F80000001F00
07F80000000F00
07F80000000600
07F80000000000
07F80000000000
07F80000000000
07F80000000000
07F80000000000
07F80000000000
07F80000000000
07F80000000000
07F80000000000
07F80000000000
07F80000000000
07F80000000000
07F80000000000
07F80000038000
07F800000F8000
07F80000FF8000
07FFFFFFFF8000
07FFFFFFFF8000
07FFFFFFFF8000
07FFFFFFFF8000
07FFFFFFFF8000
07F800000F8000
07F80000038000
07F80000000000
07F80000000000
07F80000000000
07F80000000000
07F80000000000
07F80000000000
07F80000000000
07F80000000000
07F80000000000
07F80000000000
07F80000000000
07F80000000000
07F80000000000
07F80000000000
07F80000000000
07F80000000000
07F80000000000
07F80000000000
07F800000001C0
07F800000003E0
07F800000007E0
07F80000000FE0
07F80000001FC0
0FFC000000FFC0
0FFF00000FFFC0
3FFFFFFFFFFFC0
7FFFFFFFFFFFC0
FFFFFFFFFFFF80
FFFFFFFFFFFF80
7FFFFFFFFFFE00
ENDCHAR
STARTCHAR 00CB
ENCODING 203
SWIDTH 607 0
DWIDTH 54 0
BBX 51 78 3 -14
BITMAP
FFFFFFFFFFFC00
FFFFFFFFFFFE00
FFFFFFFFFFFE00
7FFFFFFFFFFE00
1FFFFFFFFFFE00
0FFE000007FF00
07FC000000FF00
07F80000003F00
07F80000001F00
07F80000000F00
07F80000000600
07F80000000000
07F80000000000
07F80000000000
07F80000000000
07F80000000000
07F80000000000
07F80000000000
07F80000000000
07F80000000000
07F80000000000
07F80000000000
07F80000000000
07F80000000000
07F80000038000
07F800000F8000
07F80000FF8000
07FFFFFFFF8000
07FFFFFFFF8000
07FFFFFFFF8000
07FFFFFFFF8000
07FFFFFFFF8000
07F800000F8000
07F80000038000
07F80000000000
07F80000000000
07F80000000000
07F80000000000
07F80000000000
07F80000000000
07F80000000000
07F80000000000
07F80000000000
07F80000000000
07F80000000000
07F80000000000
07F80000000000
07F80000000000
07F80000000000
07F80000000000
07F80000000000
07F80000000000
07F800000001C0
07F800000003E0
07F800000007E0
07F80000000FE0
07F80000001FC0
0FFC000000FFC0
0FFF00000FFFC0
3FFFFFFFFFFFC0
7FFFFFFFFFFFC0
FFFFFFFFFFFF80
FFFFFFFFFFFF80
7FFFFFFFFFFE00
00000000000000
00000000000000
00000000000000
00000000000000
00000380000000
00000FE0000000
00001FF0000000
00001FF0000000
00001FF0000000
00001FF0000000
00001FF0000000
00001FF0000000
00000FE0000000
00000380000000
ENDCHAR
STARTCHAR 00CC
ENCODING 204
SWIDTH 270 0
DWIDTH 24 0
BBX 18 91 3 0
BITMAP
00F800
03BE00
060700
0E0380
0E0380
0E0380
000180
000180
000380
000380
000780
000F00
001E00
007C00
00F000
00C000
00C000
00C000
008000
008000
000000
000000
000000
000000
000000
000000
000000
7FFFC0
FFFFC0
FFFFC0
7FFF80
1FFF00
0FFC00
07FC00
07F800
07F800
07F800
07F800
07F800
07F800
07F800
07F800
07F800
07F800
07F800
07F800
07F800
07F800
07F800
07F800
07F800
07F800
07F800
07F800
07F800
07F800
07F800
07F800
07F800
07F800
07F800
07F800
07F800
07F800
07F800
07F800
07F800
07F800
07F800
07F800
07F800
07F800
07F800
07F800
07F800
07F800
07F800
07F800
07F800
07F800
07F800
07F800
07F800
07F800
07FC00
0FFC00
1FFF00
7FFF80
FFFFC0
FFFFC0
7FFFC0
ENDCHAR
STARTCHAR 00CD
ENCODING 205
SWIDTH 607 0
DWIDTH 54 0
BBX 51 97 3 0
BITMAP
000000000E0000
000000000C0000
00001FE01C0000
00007FFE3C0000
0000FFFFF80000
0000FFFFF80000
0001FFFFF00000
0001C0FFE00000
0003801F000000
00030000000000
00030000000000
000001F8000000
000001F8000000
000003FC000000
000007FE000000
000007FE000000
00000FFF000000
00001FFF800000
00001F9F800000
00003F0FC00000
00007E07E00000
00007803E00000
0000F000F00000
0001E000780000
0001C000380000
000380001C0000
000700000E0000
00000000000000
00000000000000
00000000000000
00000000000000
00000000000000
00000000000000
FFFFFFFFFFFC00
FFFFFFFFFFFE00
FFFFFFFFFFFE00
7FFFFFFFFFFE00
1FFFFFFFFFFE00
0FFE000007FF00
07FC000000FF00
07F80000003F00
07F80000001F00
07F80000000F00
07F80000000600
07F80000000000
07F80000000000
07F80000000000
07F80000000000
07F80000000000
07F80000000000
07F80000000000
07F80000000000
07F80000000000
07F80000000000
07F80000000000
07F80000000000
07F80000000000
07F80000038000
07F800000F8000
07F80000FF8000
07FFFFFFFF8000
07FFFFFFFF8000
07FFFFFFFF8000
07FFFFFFFF8000
07FFFFFFFF8000
07F800000F8000
07F80000038000
07F80000000000
07F80000000000
07F80000000000
07F80000000000
07F80000000000
07F80000000000
07F80000000000
07F80000000000
07F80000000000
07F80000000000
07F80000000000
07F80000000000
07F80000000000
07F80000000000
07F80000000000
07F80000000000
07F80000000000
07F80000000000
07F800000001C0
07F800000003E0
07F800000007E0
07F80000000FE0
07F80000001FC0
0FFC000000FFC0
0FFF00000FFFC0
3FFFFFFFFFFFC0
7FFFFFFFFFFFC0
FFFFFFFFFFFF80
FFFFFFFFFFFF80
7FFFFFFFFFFE00
ENDCHAR
STARTCHAR 00CE
ENCODING 206
SWIDTH 270 0
DWIDTH 24 0
BBX 18 79 3 -15
BITMAP
7FFFC0
FFFFC0
FFFFC0
7FFF80
1FFF00
0FFC00
07FC00
07F800
07F800
07F800
07F800
07F800
07F800
07F800
07F800
07F800
07F800
07F800
07F800
07F800
07F800
07F800
07F800
07F800
07F800
07F800
07F800
07F800
07F800
07F800
07F800
07F800
07F800
07F800
07F800
07F800
07F800
07F800
07F800
07F800
07F800
07F800
07F800
07F800
07F800
07F800
07F800
07F800
07F800
07F800
07F800
07F800
07F800
07F800
07F800
07F800
07F800
07FC00
0FFC00
1FFF00
7FFF80
FFFFC0
FFFFC0
7FFFC0
000000
000000
000000
000000
000000
000000
01F000
03F800
07FC00
07FC00
07FC00
07FC00
07FC00
03FC00
01F000
ENDCHAR
STARTCHAR 00CF
ENCODING 207
SWIDTH 652 0
DWIDTH 58 0
BBX 60 83 -2 0
BITMAP
00000000000E0000
00000000000E0000
0000001FF01C0000
0000007FFF7C0000
000000FFFFF80000
000000FFFFF80000
000001FFFFF00000
000001C0FFE00000
000003800F000000
0000038000000000
0000030000000000
0000000000000000
0000000000000000
0000000000000000
0000000000000000
0000000000000000
0000000000000000
0000000000000000
0000000000000000
7FFFE0000007FFF0
FFFFE000000FFFF0
7FFFE000000FFFF0
7FFFC0000007FFE0
1FFF00000001FFC0
07FE00000000FF80
03FE000000007F00
03FE000000007F00
01FF00000000FE00
00FF00000000FC00
00FF80000000FC00
007F80000001F800
007FC0000001F000
003FE0000003F000
001FE0000007E000
001FF0000007C000
000FF800000FC000
000FF800000F8000
0007FC00001F0000
0003FE00003F0000
0003FE00003E0000
0001FF00007C0000
0000FF8000FC0000
0000FFC000F80000
00007FC001F00000
00003FE003F00000
00001FF007E00000
00001FF007C00000
00000FF80FC00000
000007FC1F800000
000003FE3F000000
000003FF3E000000
000001FF7E000000
000000FFFC000000
0000007FF8000000
0000007FF8000000
0000003FF0000000
0000003FE0000000
0000001FE0000000
0000001FE0000000
0000001FE0000000
0000001FE0000000
0000001FE0000000
0000001FE0000000
0000001FE0000000
0000001FE0000000
0000001FE0000000
0000001FE0000000
0000001FE0000000
0000001FE0000000
0000001FE0000000
0000001FE0000000
0000001FE0000000
0000001FE0000000
0000001FE0000000
0000001FE0000000
0000001FE0000000
0000001FF0000000
0000003FF0000000
000000FFFC000000
000001FFFE000000
000003FFFF000000
000003FFFF000000
000001FFFE000000
ENDCHAR
STARTCHAR 00D0
ENCODING 208
SWIDTH 708 0
DWIDTH 63 0
BBX 64 82 2 -2
BITMAP
00000000000003F0
0000000000000F1C
0000000000000E06
0000000000000E07
0000000000000C03
0000000000000003
0000000000000003
0000000000000003
0000000000000007
0000000000000007
000000000000000E
000000000000003E
00000000000001FC
00000000000007F0
00000000000007C0
0000000000000400
7FFFC000007FFFC0
FFFFE000007FFFC0
FFFFE000007FFFC0
7FFFC000003FFF80
3FFF8000001FFF00
0FFE00000007FC00
07FC00000003FC00
07FC00000001FC00
07FC00000001FC00
07F800000001FC00
07F800000000FC00
07F800000000FC00
07F800000000FC00
07F800000000FC00
07F800000000FC00
0FF000000000FC00
0FF000000000FC00
0FF000000000FC00
0FF000000000FC00
0FF000000000FC00
0FF000000000FC00
0FF000000000FC00
0FF000000000FC00
0FF000000000FC00
0FF000000000FC00
0FF000000000FC00
0FF000000000FC00
0FF000000000FE00
0FF000000000FE00
0FE000000000FE00
0FE000000000FE00
0FE000000000FE00
0FE000000000FE00
0FE000000000FE00
0FE000000000FE00
0FE000000000FE00
0FE000000000FE00
0FE000000000FE00
0FE000000000FE00
0FE000000000FE00
0FF000000000FE00
0FF000000000FE00
0FF000000000FE00
0FF000000000FE00
0FF000000000FC00
0FF000000000FC00
07F000000000FC00
07F000000001FC00
07F800000001FC00
07F800000001F800
07F800000003F800
03FC00000003F800
03FC00000007F000
01FE00000007F000
01FF0000000FE000
00FF8000001FE000
00FFC000003FC000
007FE000007F8000
003FF80001FF0000
003FFE0007FE0000
000FFFF9FFFC0000
0007FFFFFFF80000
0003FFFFFFF00000
0000FFFFFFC00000
00001FFFFE000000
000000FF80000000
ENDCHAR
STARTCHAR 00D1
ENCODING 209
SWIDTH 708 0
DWIDTH 63 0
BBX 58 92 2 -1
BITMAP
00000007F8000000
0000001C1C000000
0000001C0E000000
0000003C06000000
0000003C07000000
0000001807000000
0000000007000000
0000000007000000
0000000007000000
000000000E000000
000000001E000000
000000003C000000
00000000F8000000
00000001F0000000
00000003C0000000
0000000300000000
0000000300000000
0000000300000000
0000000300000000
0000000000000000
0000000000000000
0000000000000000
0000000000000000
0000000000000000
0000000000000000
0000000000000000
7FFFC000007FFFC0
FFFFE000007FFFC0
FFFFE000007FFFC0
7FFFC000003FFF80
3FFF8000001FFF00
0FFE00000007FC00
07FC00000003FC00
07FC00000001FC00
07FC00000001FC00
07F800000001FC00
07F800000000FC00
07F800000000FC00
07F800000000FC00
07F800000000FC00
07F800000000FC00
0FF000000000FC00
0FF000000000FC00
0FF000000000FC00
0FF000000000FC00
0FF000000000FC00
0FF000000000FC00
0FF000000000FC00
0FF000000000FC00
0FF000000000FC00
0FF000000000FC00
0FF000000000FC00
0FF000000000FC00
0FF000000000FE00
0FF000000000FE00
0FE000000000FE00
0FE000000000FE00
0FE000000000FE00
0FE000000000FE00
0FE000000000FE00
0FE000000000FE00
0FE000000000FE00
0FE000000000FE00
0FE000000000FE00
0FE000000000FE00
0FE000000000FE00
0FF000000000FE00
0FF000000000FE00
0FF000000000FE00
0FF000000000FE00
0FF000000000FC00
0FF000000000FC00
07F000000000FC00
07F000000001FC00
07F800000001FC00
07F800000001F800
07F800000003F800
03FC00000003F800
03FC00000007F000
01FE00000007F000
01FF0000000FE000
00FF8000001FE000
00FFC000003FC000
007FE000007F8000
003FF80001FF0000
003FFE0007FE0000
000FFFF9FFFC0000
0007FFFFFFF80000
0003FFFFFFF00000
0000FFFFFFC00000
00001FFFFE000000
000000FF80000000
ENDCHAR
STARTCHAR 00D2
ENCODING 210
SWIDTH 765 0
DWIDTH 68 0
BBX 62 98 3 -2
BITMAP
0F00000000000000
1F80000000000000
1FC0000000000000
1FE0000000000000
1FF0000000000000
0FF8000000000000
07FC000000000000
01FE000000000000
00FF000000000000
003F800000000000
000FC007C0000000
0007E00FE0000000
0001F01FE0000000
0000781FF0000000
00003C3FF8000000
0000007FF8000000
0000007FFC000000
000000FCFE000000
000001F87E000000
000001F01F000000
000003E00F800000
000007C007800000
0000070003C00000
00000E0001C00000
00001C0000E00000
0000180000700000
0000000000000000
0000000000000000
0000000000000000
0000000000000000
0000000740000000
000001FFFF000000
00000FFFFFE00000
00007FFFFFF80000
0000FFFFFFFE0000
0003FFF87FFF0000
0007FF0003FFC000
001FFC00007FE000
003FF000003FF000
007FC000000FF800
00FF80000007FC00
01FF00000003FE00
01FE00000001FF00
03FE00000000FF00
07FC00000000FF80
07F8000000007FC0
0FF8000000007FC0
0FF0000000003FE0
1FF0000000003FE0
1FF0000000001FF0
3FE0000000001FF0
3FE0000000001FF0
3FE0000000000FF8
7FC0000000000FF8
7FC0000000000FF8
7FC0000000000FF8
7FC00000000007FC
7FC00000000007FC
FF800000000007FC
FF800000000007FC
FF800000000007FC
FF800000000007FC
FF800000000007FC
FF800000000007FC
FF800000000007FC
FF800000000007FC
FF800000000007FC
FF800000000007FC
FF800000000007FC
FF800000000007FC
7FC00000000007FC
7FC00000000007FC
7FC0000000000FF8
7FC0000000000FF8
7FC0000000000FF8
3FE0000000000FF8
3FE0000000001FF0
3FE0000000001FF0
1FE0000000001FF0
1FF0000000003FE0
0FF0000000003FE0
0FF8000000007FC0
07F8000000007FC0
07FC00000000FF80
03FE00000000FF80
03FE00000001FF00
01FF00000003FE00
00FF80000007FC00
007FC000000FF800
003FE000001FF000
001FF800007FE000
000FFE0001FFC000
0007FFC00FFF8000
0001FFFFFFFE0000
00007FFFFFF80000
00001FFFFFE00000
000007FFFF000000
0000003FF0000000
ENDCHAR
STARTCHAR 00D3
ENCODING 211
SWIDTH 765 0
DWIDTH 68 0
BBX 62 98 3 -2
BITMAP
00000000000001C0
00000000000003E0
00000000000007F0
0000000000000FF0
0000000000001FE0
0000000000003FE0
0000000000007F80
000000000000FF00
000000000001FC00
000000000003F800
00000007C007E000
0000000FE00FC000
0000001FE01F0000
0000001FF03C0000
0000003FF8780000
0000007FF8E00000
0000007FFC000000
000000FCFE000000
000001F87E000000
000001F01F000000
000003E00F800000
000007C007800000
0000070003C00000
00000E0001C00000
00001C0000E00000
0000180000700000
0000000000000000
0000000000000000
0000000000000000
0000000000000000
0000000740000000
000001FFFF000000
00000FFFFFE00000
00007FFFFFF80000
0000FFFFFFFE0000
0003FFF87FFF0000
0007FF0003FFC000
001FFC00007FE000
003FF000003FF000
007FC000000FF800
00FF80000007FC00
01FF00000003FE00
01FE00000001FF00
03FE00000000FF00
07FC00000000FF80
07F8000000007FC0
0FF8000000007FC0
0FF0000000003FE0
1FF0000000003FE0
1FF0000000001FF0
3FE0000000001FF0
3FE0000000001FF0
3FE0000000000FF8
7FC0000000000FF8
7FC0000000000FF8
7FC0000000000FF8
7FC00000000007FC
7FC00000000007FC
FF800000000007FC
FF800000000007FC
FF800000000007FC
FF800000000007FC
FF800000000007FC
FF800000000007FC
FF800000000007FC
FF800000000007FC
FF800000000007FC
FF800000000007FC
FF800000000007FC
FF800000000007FC
7FC00000000007FC
7FC00000000007FC
7FC0000000000FF8
7FC0000000000FF8
7FC0000000000FF8
3FE0000000000FF8
3FE0000000001FF0
3FE0000000001FF0
1FE0000000001FF0
1FF0000000003FE0
0FF0000000003FE0
0FF8000000007FC0
07F8000000007FC0
07FC00000000FF80
03FE00000000FF80
03FE00000001FF00
01FF00000003FE00
00FF80000007FC00
007FC000000FF800
003FE000001FF000
001FF800007FE000
000FFE0001FFC000
0007FFC00FFF8000
0001FFFFFFFE0000
00007FFFFFF80000
00001FFFFFE00000
000007FFFF000000
0000003FF0000000
ENDCHAR
STARTCHAR 00D4
ENCODING 212
SWIDTH 765 0
DWIDTH 68 0
BBX 62 88 3 -2
BITMAP
00000007C0000000
0000000FE0000000
0000001FE0000000
0000001FF0000000
0000003FF8000000
0000007FF8000000
0000007FFC000000
000000FCFE000000
000001F87E000000
000001F01F000000
000003E00F800000
000007C007800000
0000070003C00000
00000E0001C00000
00001C0000E00000
0000180000700000
0000000000000000
0000000000000000
0000000000000000
0000000000000000
0000000740000000
000001FFFF000000
00000FFFFFE00000
00007FFFFFF80000
0000FFFFFFFE0000
0003FFF87FFF0000
0007FF0003FFC000
001FFC00007FE000
003FF000003FF000
007FC000000FF800
00FF80000007FC00
01FF00000003FE00
01FE00000001FF00
03FE00000000FF00
07FC00000000FF80
07F8000000007FC0
0FF8000000007FC0
0FF0000000003FE0
1FF0000000003FE0
1FF0000000001FF0
3FE0000000001FF0
3FE0000000001FF0
3FE0000000000FF8
7FC0000000000FF8
7FC0000000000FF8
7FC0000000000FF8
7FC00000000007FC
7FC00000000007FC
FF800000000007FC
FF800000000007FC
FF800000000007FC
FF800000000007FC
FF800000000007FC
FF800000000007FC
FF800000000007FC
FF800000000007FC
FF800000000007FC
FF800000000007FC
FF800000000007FC
FF800000000007FC
7FC00000000007FC
7FC00000000007FC
7FC0000000000FF8
7FC0000000000FF8
7FC0000000000FF8
3FE0000000000FF8
3FE0000000001FF0
3FE0000000001FF0
1FE0000000001FF0
1FF0000000003FE0
0FF0000000003FE0
0FF8000000007FC0
07F8000000007FC0
07FC00000000FF80
03FE00000000FF80
03FE00000001FF00
01FF00000003FE00
00FF80000007FC00
007FC000000FF800
003FE000001FF000
001FF800007FE000
000FFE0001FFC000
0007FFC00FFF8000
0001FFFFFFFE0000
00007FFFFFF80000
00001FFFFFE00000
000007FFFF000000
0000003FF0000000
ENDCHAR
STARTCHAR 00D5
ENCODING 213
SWIDTH 765 0
DWIDTH 68 0
BBX 62 92 3 -2
BITMAP
00000003E0000000
0000000FF8000000
0000001C1C000000
000000380E000000
0000003806000000
0000003807000000
0000000007000000
0000000007000000
0000000007000000
000000000E000000
000000000E000000
000000001E000000
000000007C000000
00000001F8000000
00000003E0000000
0000000380000000
0000000300000000
0000000300000000
0000000300000000
0000000300000000
0000000000000000
0000000000000000
0000000000000000
0000000000000000
0000000740000000
000001FFFF000000
00000FFFFFE00000
00007FFFFFF80000
0000FFFFFFFE0000
0003FFF87FFF0000
0007FF0003FFC000
001FFC00007FE000
003FF000003FF000
007FC000000FF800
00FF80000007FC00
01FF00000003FE00
01FE00000001FF00
03FE00000000FF00
07FC00000000FF80
07F8000000007FC0
0FF8000000007FC0
0FF0000000003FE0
1FF0000000003FE0
1FF0000000001FF0
3FE0000000001FF0
3FE0000000001FF0
3FE0000000000FF8
7FC0000000000FF8
7FC0000000000FF8
7FC0000000000FF8
7FC00000000007FC
7FC00000000007FC
FF800000000007FC
FF800000000007FC
FF800000000007FC
FF800000000007FC
FF800000000007FC
FF800000000007FC
FF800000000007FC
FF800000000007FC
FF800000000007FC
FF800000000007FC
FF800000000007FC
FF800000000007FC
7FC00000000007FC
7FC00000000007FC
7FC0000000000FF8
7FC0000000000FF8
7FC0000000000FF8
3FE0000000000FF8
3FE0000000001FF0
3FE0000000001FF0
1FE0000000001FF0
1FF0000000003FE0
0FF0000000003FE0
0FF8000000007FC0
07F8000000007FC0
07FC00000000FF80
03FE00000000FF80
03FE00000001FF00
01FF00000003FE00
00FF80000007FC00
007FC000000FF800
003FE000001FF000
001FF800007FE000
000FFE0001FFC000
0007FFC00FFF8000
0001FFFFFFFE0000
00007FFFFFF80000
00001FFFFFE00000
000007FFFF000000
0000003FF0000000
ENDCHAR
STARTCHAR 00D6
ENCODING 214
SWIDTH 765 0
DWIDTH 68 0
BBX 62 82 3 -2
BITMAP
000000000000FE00
000000000001E380
000000000003C1C0
000000000003C0C0
00000000000180E0
00000000000000E0
00000000000000E0
00000000000000E0
00000000000000E0
00000000000001C0
00000000000001C0
0000000000000780
0000000000003F00
000000000000FE00
000000074001F800
000001FFFF018000
00000FFFFFE18000
00007FFFFFF90000
0000FFFFFFFF0000
0003FFF87FFF0000
0007FF0003FFC000
001FFC00007FE000
003FF000003FF000
007FC000000FF800
00FF80000007FC00
01FF00000003FE00
01FE00000001FF00
03FE00000000FF00
07FC00000000FF80
07F8000000007FC0
0FF8000000007FC0
0FF0000000003FE0
1FF0000000003FE0
1FF0000000001FF0
3FE0000000001FF0
3FE0000000001FF0
3FE0000000000FF8
7FC0000000000FF8
7FC0000000000FF8
7FC0000000000FF8
7FC00000000007FC
7FC00000000007FC
FF800000000007FC
FF800000000007FC
FF800000000007FC
FF800000000007FC
FF800000000007FC
FF800000000007FC
FF800000000007FC
FF800000000007FC
FF800000000007FC
FF800000000007FC
FF800000000007FC
FF800000000007FC
7FC00000000007FC
7FC00000000007FC
7FC0000000000FF8
7FC0000000000FF8
7FC0000000000FF8
3FE0000000000FF8
3FE0000000001FF0
3FE0000000001FF0
1FE0000000001FF0
1FF0000000003FE0
0FF0000000003FE0
0FF8000000007FC0
07F8000000007FC0
07FC00000000FF80
03FE00000000FF80
03FE00000001FF00
01FF00000003FE00
00FF80000007FC00
007FC000000FF800
003FE000001FF000
001FF800007FE000
000FFE0001FFC000
0007FFC00FFF8000
0001FFFFFFFE0000
00007FFFFFF80000
00001FFFFFE00000
000007FFFF000000
0000003FF0000000
ENDCHAR
STARTCHAR 00D7
ENCODING 215
SWIDTH 607 0
DWIDTH 54 0
BBX 51 86 3 0
BITMAP
0001E000000000
0003F000000000
0003F800000000
0003FC00000000
0003FE00000000
0001FF00000000
0000FF80000000
00003FC0000000
00001FE0000000
000007F0000000
000001F8000000
000000FC000000
0000003E000000
0000001F000000
00000007800000
00000001C00000
00000000000000
00000000000000
00000000000000
00000000000000
00000000000000
00000000000000
FFFFFFFFFFFC00
FFFFFFFFFFFE00
FFFFFFFFFFFE00
7FFFFFFFFFFE00
1FFFFFFFFFFE00
0FFE000007FF00
07FC000000FF00
07F80000003F00
07F80000001F00
07F80000000F00
07F80000000600
07F80000000000
07F80000000000
07F80000000000
07F80000000000
07F80000000000
07F80000000000
07F80000000000
07F80000000000
07F80000000000
07F80000000000
07F80000000000
07F80000000000
07F80000000000
07F80000038000
07F800000F8000
07F80000FF8000
07FFFFFFFF8000
07FFFFFFFF8000
07FFFFFFFF8000
07FFFFFFFF8000
07FFFFFFFF8000
07F800000F8000
07F80000038000
07F80000000000
07F80000000000
07F80000000000
07F80000000000
07F80000000000
07F80000000000
07F80000000000
07F80000000000
07F80000000000
07F80000000000
07F80000000000
07F80000000000
07F80000000000
07F80000000000
07F80000000000
07F80000000000
07F80000000000
07F80000000000
07F800000001C0
07F800000003E0
07F800000007E0
07F80000000FE0
07F80000001FC0
0FFC000000FFC0
0FFF00000FFFC0
3FFFFFFFFFFFC0
7FFFFFFFFFFFC0
FFFFFFFFFFFF80
FFFFFFFFFFFF80
7FFFFFFFFFFE00
ENDCHAR
STARTCHAR 00D8
ENCODING 216
SWIDTH 708 0
DWIDTH 63 0
BBX 64 93 2 -2
BITMAP
00001C0000000000
00003E0000000000
00007F0000000000
00007F8000000000
00003FC000000000
00003FE000000000
00001FF000000000
000007F800000000
000001FC00000000
000000FE00000000
0000003F00000000
0000001F800003F0
00000007C0000F1C
00000001E0000E06
00000000F0000E07
0000000038000C03
0000000000000003
0000000000000003
0000000000000003
0000000000000007
0000000000000007
000000000000000E
000000000000003E
00000000000001FC
00000000000007F0
00000000000007C0
0000000000000400
7FFFC000007FFFC0
FFFFE000007FFFC0
FFFFE000007FFFC0
7FFFC000003FFF80
3FFF8000001FFF00
0FFE00000007FC00
07FC00000003FC00
07FC00000001FC00
07FC00000001FC00
07F800000001FC00
07F800000000FC00
07F800000000FC00
07F800000000FC00
07F800000000FC00
07F800000000FC00
0FF000000000FC00
0FF000000000FC00
0FF000000000FC00
0FF000000000FC00
0FF000000000FC00
0FF000000000FC00
0FF000000000FC00
0FF000000000FC00
0FF000000000FC00
0FF000000000FC00
0FF000000000FC00
0FF000000000FC00
0FF000000000FE00
0FF000000000FE00
0FE000000000FE00
0FE000000000FE00
0FE000000000FE00
0FE000000000FE00
0FE000000000FE00
0FE000000000FE00
0FE000000000FE00
0FE000000000FE00
0FE000000000FE00
0FE000000000FE00
0FE000000000FE00
0FF000000000FE00
0FF000000000FE00
0FF000000000FE00
0FF000000000FE00
0FF000000000FC00
0FF000000000FC00
07F000000000FC00
07F000000001FC00
07F800000001FC00
07F800000001F800
07F800000003F800
03FC00000003F800
03FC00000007F000
01FE00000007F000
01FF0000000FE000
00FF8000001FE000
00FFC000003FC000
007FE000007F8000
003FF80001FF0000
003FFE0007FE0000
000FFFF9FFFC0000
0007FFFFFFF80000
0003FFFFFFF00000
0000FFFFFFC00000
00001FFFFE000000
000000FF80000000
ENDCHAR
ENDFONT
